<svg width="16" height="18" viewBox="0 0 16 18" fill="none" xmlns="http://www.w3.org/2000/svg">
<path fill-rule="evenodd" clip-rule="evenodd" d="M7.95484 4.15109C8.96427 4.23624 9.97369 3.64018 10.6046 2.88447C11.225 2.10748 11.635 1.06438 11.5299 0C10.6361 0.0425752 9.53207 0.596054 8.90118 1.37305C8.32286 2.04361 7.82866 3.12928 7.95484 4.15109ZM9.16326 4.88479C9.81868 4.62427 10.6301 4.30174 11.5194 4.35355C12.0872 4.39612 13.7275 4.56643 14.779 6.14171C14.7742 6.14537 14.7635 6.1524 14.7477 6.16282C14.4875 6.33407 12.835 7.42192 12.8548 9.56902C12.8745 12.127 14.933 13.081 15.2024 13.2058C15.2199 13.2139 15.2299 13.2185 15.2312 13.2198C15.23 13.2233 15.2279 13.2301 15.2249 13.2402C15.1711 13.4162 14.8171 14.5756 14.0114 15.7637C13.2649 16.8707 12.4973 17.9563 11.2776 17.9776C10.7036 17.988 10.3169 17.8188 9.91429 17.6427C9.49085 17.4575 9.04973 17.2645 8.35443 17.2645C7.63416 17.2645 7.17287 17.4626 6.72882 17.6534C6.34312 17.819 5.97043 17.9791 5.45233 17.9989C4.27466 18.0415 3.3809 16.8281 2.63434 15.7211C1.10968 13.4859 -0.0574675 9.42 1.51976 6.6739C2.28735 5.30085 3.68583 4.4387 5.18945 4.41741C5.84545 4.40534 6.47101 4.6569 7.01816 4.87693C7.43574 5.04485 7.80765 5.19441 8.11259 5.19441C8.38432 5.19441 8.74149 5.05244 9.16326 4.88479Z" fill="black"/>
</svg>
