<svg width="54" height="54" viewBox="0 0 54 54" fill="none" xmlns="http://www.w3.org/2000/svg">
<rect width="54" height="54" rx="8" transform="matrix(-1 0 0 1 54 0)" fill="#056DFF"/>
<path d="M18.25 23.25C18.25 25.0625 18.7875 26.725 19.7125 28.1125C21.0625 30.1125 23.2 31.525 25.6875 31.8875C26.1125 31.9625 26.55 32 27 32C27.45 32 27.8875 31.9625 28.3125 31.8875C30.8 31.525 32.9375 30.1125 34.2875 28.1125C35.2125 26.725 35.75 25.0625 35.75 23.25C35.75 18.4125 31.8375 14.5 27 14.5C22.1625 14.5 18.25 18.4125 18.25 23.25Z" stroke="white" stroke-width="1.5" stroke-linecap="round" stroke-linejoin="round"/>
<path d="M15.4372 35.0875L17.4997 35.575C17.9622 35.6875 18.3247 36.0375 18.4247 36.5L18.8622 38.3375C19.0997 39.3375 20.3747 39.6375 21.0372 38.85L26.9997 32L32.9622 38.8625C33.6247 39.65 34.8997 39.35 35.1372 38.35L35.5747 36.5125C35.6872 36.05 36.0497 35.6875 36.4997 35.5875L38.5622 35.1C39.5122 34.875 39.8497 33.6875 39.1622 33L34.2872 28.125C32.9372 30.125 30.7997 31.5375 28.3122 31.9C27.8872 31.975 27.4497 32.0125 26.9997 32.0125C26.5497 32.0125 26.1122 31.975 25.6872 31.9C23.1997 31.5375 21.0622 30.125 19.7122 28.125L14.8372 33C14.1497 33.675 14.4872 34.8625 15.4372 35.0875Z" stroke="white" stroke-width="1.5" stroke-linecap="round" stroke-linejoin="round"/>
<path d="M26.2745 19.475L25.537 20.95C25.437 21.15 25.1745 21.35 24.937 21.3875L23.5995 21.6125C22.7495 21.75 22.5495 22.375 23.162 22.9875L24.1995 24.025C24.3745 24.2 24.4745 24.5375 24.412 24.7875L24.112 26.075C23.8745 27.0875 24.412 27.4875 25.312 26.95L26.562 26.2125C26.787 26.075 27.162 26.075 27.387 26.2125L28.637 26.95C29.537 27.475 30.0745 27.0875 29.837 26.075L29.537 24.7875C29.487 24.55 29.5745 24.2 29.7495 24.025L30.787 22.9875C31.3995 22.375 31.1995 21.7625 30.3495 21.6125L29.012 21.3875C28.787 21.35 28.5245 21.15 28.4245 20.95L27.687 19.475C27.3245 18.675 26.6745 18.675 26.2745 19.475Z" stroke="white" stroke-width="1.5" stroke-linecap="round" stroke-linejoin="round"/>
</svg>
