<svg width="44" height="44" viewBox="0 0 44 44" fill="none" xmlns="http://www.w3.org/2000/svg">
<rect width="44" height="44" rx="8" fill="#056DFF"/>
<path d="M19 12H25C30 12 32 14 32 19V25C32 30 30 32 25 32H19C14 32 12 30 12 25V19C12 14 14 12 19 12Z" stroke="white" stroke-width="1.28571" stroke-linecap="round" stroke-linejoin="round"/>
<path d="M18.5703 25.2695L25.1103 18.7295" stroke="white" stroke-width="1.28571" stroke-linecap="round" stroke-linejoin="round"/>
<path d="M18.98 20.3701C19.6593 20.3701 20.21 19.8195 20.21 19.1402C20.21 18.4609 19.6593 17.9102 18.98 17.9102C18.3007 17.9102 17.75 18.4609 17.75 19.1402C17.75 19.8195 18.3007 20.3701 18.98 20.3701Z" stroke="white" stroke-width="1.28571" stroke-linecap="round" stroke-linejoin="round"/>
<path d="M25.521 26.0899C26.2003 26.0899 26.751 25.5392 26.751 24.8599C26.751 24.1806 26.2003 23.6299 25.521 23.6299C24.8417 23.6299 24.291 24.1806 24.291 24.8599C24.291 25.5392 24.8417 26.0899 25.521 26.0899Z" stroke="white" stroke-width="1.28571" stroke-linecap="round" stroke-linejoin="round"/>
</svg>
