<svg width="45" height="44" viewBox="0 0 45 44" fill="none" xmlns="http://www.w3.org/2000/svg">
<rect x="0.666016" width="44" height="44" rx="8" fill="#056DFF"/>
<path d="M28.6661 17.159C28.6061 17.149 28.5361 17.149 28.4761 17.159C27.0961 17.109 25.9961 15.979 25.9961 14.579C25.9961 13.149 27.1461 11.999 28.5761 11.999C30.0061 11.999 31.1561 13.159 31.1561 14.579C31.1461 15.979 30.0461 17.109 28.6661 17.159Z" stroke="white" stroke-width="1.28571" stroke-linecap="round" stroke-linejoin="round"/>
<path d="M27.6374 24.4392C29.0074 24.6692 30.5174 24.4292 31.5774 23.7192C32.9874 22.7792 32.9874 21.2392 31.5774 20.2992C30.5074 19.5892 28.9774 19.3492 27.6074 19.5892" stroke="white" stroke-width="1.28571" stroke-linecap="round" stroke-linejoin="round"/>
<path d="M16.6365 17.159C16.6965 17.149 16.7665 17.149 16.8265 17.159C18.2065 17.109 19.3065 15.979 19.3065 14.579C19.3065 13.149 18.1565 11.999 16.7265 11.999C15.2965 11.999 14.1465 13.159 14.1465 14.579C14.1565 15.979 15.2565 17.109 16.6365 17.159Z" stroke="white" stroke-width="1.28571" stroke-linecap="round" stroke-linejoin="round"/>
<path d="M17.6655 24.4392C16.2955 24.6692 14.7855 24.4292 13.7255 23.7192C12.3155 22.7792 12.3155 21.2392 13.7255 20.2992C14.7955 19.5892 16.3255 19.3492 17.6955 19.5892" stroke="white" stroke-width="1.28571" stroke-linecap="round" stroke-linejoin="round"/>
<path d="M22.6641 24.6297C22.6041 24.6197 22.5341 24.6197 22.4741 24.6297C21.0941 24.5797 19.9941 23.4497 19.9941 22.0497C19.9941 20.6197 21.1441 19.4697 22.5741 19.4697C24.0041 19.4697 25.1541 20.6297 25.1541 22.0497C25.1441 23.4497 24.0441 24.5897 22.6641 24.6297Z" stroke="white" stroke-width="1.28571" stroke-linecap="round" stroke-linejoin="round"/>
<path d="M19.7548 27.7794C18.3448 28.7194 18.3448 30.2594 19.7548 31.1994C21.3548 32.2694 23.9748 32.2694 25.5748 31.1994C26.9848 30.2594 26.9848 28.7194 25.5748 27.7794C23.9848 26.7194 21.3548 26.7194 19.7548 27.7794Z" stroke="white" stroke-width="1.28571" stroke-linecap="round" stroke-linejoin="round"/>
</svg>
