<svg width="45" height="44" viewBox="0 0 45 44" fill="none" xmlns="http://www.w3.org/2000/svg">
<rect x="0.333984" width="44" height="44" rx="8" fill="#056DFF"/>
<path d="M25.7839 29.7909C25.7839 29.7909 25.7839 21.0556 32.3354 21.0556C25.7839 21.0556 25.7839 12.3203 25.7839 12.3203C25.7839 12.3203 25.7839 21.0556 19.2324 21.0556C25.7839 21.0556 25.7839 29.7909 25.7839 29.7909Z" stroke="white" stroke-width="0.944225"/>
<path d="M15.8921 23.823C15.8921 23.823 15.8921 18.8856 19.4483 18.8856C15.8921 18.8856 15.8921 13.9482 15.8921 13.9482C15.8921 13.9482 15.8921 18.8856 12.3359 18.8856C15.8921 18.8856 15.8921 23.823 15.8921 23.823Z" stroke="white" stroke-width="0.944225"/>
<path d="M19.2319 31.6815C19.2319 31.6815 19.2319 26.9721 23.4561 26.9721C19.2319 26.9721 19.2319 22.2627 19.2319 22.2627C19.2319 22.2627 19.2319 26.9721 15.0078 26.9721C19.2319 26.9721 19.2319 31.6815 19.2319 31.6815Z" stroke="white" stroke-width="0.944225"/>
</svg>
