<svg width="45" height="44" viewBox="0 0 45 44" fill="none" xmlns="http://www.w3.org/2000/svg">
<rect x="0.333984" width="44" height="44" rx="8" fill="#005CDE" fill-opacity="0.1"/>
<path d="M28.3341 17.1605C28.2741 17.1505 28.2041 17.1505 28.1441 17.1605C26.7641 17.1105 25.6641 15.9805 25.6641 14.5805C25.6641 13.1505 26.8141 12.0005 28.2441 12.0005C29.6741 12.0005 30.8241 13.1605 30.8241 14.5805C30.8141 15.9805 29.7141 17.1105 28.3341 17.1605Z" stroke="#005CDE" stroke-width="1.28571" stroke-linecap="round" stroke-linejoin="round"/>
<path d="M27.3054 24.4406C28.6754 24.6706 30.1854 24.4306 31.2454 23.7206C32.6554 22.7806 32.6554 21.2407 31.2454 20.3007C30.1754 19.5907 28.6454 19.3506 27.2754 19.5906" stroke="#005CDE" stroke-width="1.28571" stroke-linecap="round" stroke-linejoin="round"/>
<path d="M16.3045 17.1605C16.3645 17.1505 16.4345 17.1505 16.4945 17.1605C17.8745 17.1105 18.9745 15.9805 18.9745 14.5805C18.9745 13.1505 17.8245 12.0005 16.3945 12.0005C14.9645 12.0005 13.8145 13.1605 13.8145 14.5805C13.8245 15.9805 14.9245 17.1105 16.3045 17.1605Z" stroke="#005CDE" stroke-width="1.28571" stroke-linecap="round" stroke-linejoin="round"/>
<path d="M17.3334 24.4406C15.9634 24.6706 14.4534 24.4306 13.3934 23.7206C11.9834 22.7806 11.9834 21.2407 13.3934 20.3007C14.4634 19.5907 15.9934 19.3506 17.3634 19.5906" stroke="#005CDE" stroke-width="1.28571" stroke-linecap="round" stroke-linejoin="round"/>
<path d="M22.3321 24.6297C22.2721 24.6197 22.2021 24.6197 22.1421 24.6297C20.7621 24.5797 19.6621 23.4497 19.6621 22.0497C19.6621 20.6197 20.8121 19.4697 22.2421 19.4697C23.6721 19.4697 24.8221 20.6297 24.8221 22.0497C24.8121 23.4497 23.7121 24.5897 22.3321 24.6297Z" stroke="#005CDE" stroke-width="1.28571" stroke-linecap="round" stroke-linejoin="round"/>
<path d="M19.4227 27.7799C18.0127 28.7199 18.0127 30.2599 19.4227 31.1999C21.0227 32.2699 23.6427 32.2699 25.2427 31.1999C26.6527 30.2599 26.6527 28.7199 25.2427 27.7799C23.6527 26.7199 21.0227 26.7199 19.4227 27.7799Z" stroke="#005CDE" stroke-width="1.28571" stroke-linecap="round" stroke-linejoin="round"/>
</svg>
