<svg width="45" height="44" viewBox="0 0 45 44" fill="none" xmlns="http://www.w3.org/2000/svg">
<rect x="0.666016" width="44" height="44" rx="8" fill="#005CDE" fill-opacity="0.1"/>
<path d="M26.1159 29.7909C26.1159 29.7909 26.1159 21.0556 32.6674 21.0556C26.1159 21.0556 26.1159 12.3203 26.1159 12.3203C26.1159 12.3203 26.1159 21.0556 19.5645 21.0556C26.1159 21.0556 26.1159 29.7909 26.1159 29.7909Z" stroke="#056DFF" stroke-width="0.944225"/>
<path d="M16.2241 23.823C16.2241 23.823 16.2241 18.8856 19.7803 18.8856C16.2241 18.8856 16.2241 13.9482 16.2241 13.9482C16.2241 13.9482 16.2241 18.8856 12.668 18.8856C16.2241 18.8856 16.2241 23.823 16.2241 23.823Z" stroke="#056DFF" stroke-width="0.944225"/>
<path d="M19.564 31.6815C19.564 31.6815 19.564 26.9721 23.7881 26.9721C19.564 26.9721 19.564 22.2627 19.564 22.2627C19.564 22.2627 19.564 26.9721 15.3398 26.9721C19.564 26.9721 19.564 31.6815 19.564 31.6815Z" stroke="#056DFF" stroke-width="0.944225"/>
</svg>
