<svg width="145" height="144" viewBox="0 0 145 144" fill="none" xmlns="http://www.w3.org/2000/svg">
<g filter="url(#filter0_b_7141_63416)">
<ellipse cx="72.5871" cy="72.7121" rx="72.4133" ry="71.2868" fill="#5FEE6D" fill-opacity="0.2"/>
</g>
<path d="M145 71.2868C145 110.657 112.58 142.574 72.5871 142.574C32.5944 142.574 0.173828 110.657 0.173828 71.2868C0.173828 31.9162 32.5944 0 72.5871 0C112.58 0 145 31.9162 145 71.2868ZM5.51807 71.2868C5.51807 107.752 35.5459 137.313 72.5871 137.313C109.628 137.313 139.656 107.752 139.656 71.2868C139.656 34.8218 109.628 5.26111 72.5871 5.26111C35.5459 5.26111 5.51807 34.8218 5.51807 71.2868Z" fill="#5FEE6D"/>
<path opacity="0.5" d="M137.76 71.2866C137.76 106.72 108.581 135.445 72.588 135.445C36.5945 135.445 7.41602 106.72 7.41602 71.2866C7.41602 35.853 36.5945 7.12842 72.588 7.12842C108.581 7.12842 137.76 35.853 137.76 71.2866ZM12.2258 71.2866C12.2258 104.105 39.2509 130.71 72.588 130.71C105.925 130.71 132.95 104.105 132.95 71.2866C132.95 38.4681 105.925 11.8634 72.588 11.8634C39.2509 11.8634 12.2258 38.4681 12.2258 71.2866Z" fill="#5FEE6D"/>
<path opacity="0.4" d="M130.518 71.2873C130.518 102.784 104.581 128.317 72.5869 128.317C40.5927 128.317 14.6562 102.784 14.6562 71.2873C14.6562 39.7908 40.5927 14.2578 72.5869 14.2578C104.581 14.2578 130.518 39.7908 130.518 71.2873ZM18.9316 71.2873C18.9316 100.459 42.9539 124.108 72.5869 124.108C102.22 124.108 126.242 100.459 126.242 71.2873C126.242 42.1153 102.22 18.4667 72.5869 18.4667C42.9539 18.4667 18.9316 42.1153 18.9316 71.2873Z" fill="#5FEE6D"/>
<path opacity="0.3" d="M123.277 71.2846C123.277 98.844 100.583 121.185 72.5877 121.185C44.5928 121.185 21.8984 98.844 21.8984 71.2846C21.8984 43.7251 44.5928 21.3838 72.5877 21.3838C100.583 21.3838 123.277 43.7251 123.277 71.2846ZM25.6394 71.2846C25.6394 96.8101 46.6589 117.503 72.5877 117.503C98.5166 117.503 119.536 96.8101 119.536 71.2846C119.536 45.7591 98.5166 25.0666 72.5877 25.0666C46.6589 25.0666 25.6394 45.7591 25.6394 71.2846Z" fill="#5FEE6D"/>
<path opacity="0.2" d="M116.035 71.2858C116.035 94.9081 96.5823 114.058 72.5866 114.058C48.591 114.058 29.1387 94.9081 29.1387 71.2858C29.1387 47.6634 48.591 28.5137 72.5866 28.5137C96.5823 28.5137 116.035 47.6634 116.035 71.2858ZM32.3452 71.2858C32.3452 93.1648 50.3619 110.901 72.5866 110.901C94.8114 110.901 112.828 93.1648 112.828 71.2858C112.828 49.4068 94.8114 31.6703 72.5866 31.6703C50.3619 31.6703 32.3452 49.4068 32.3452 71.2858Z" fill="#5FEE6D"/>
<path opacity="0.12" d="M108.794 71.2855C108.794 90.9708 92.5839 106.929 72.5875 106.929C52.5911 106.929 36.3809 90.9708 36.3809 71.2855C36.3809 51.6002 52.5911 35.6421 72.5875 35.6421C92.5839 35.6421 108.794 51.6002 108.794 71.2855ZM39.053 71.2855C39.053 89.518 54.0669 104.298 72.5875 104.298C91.1081 104.298 106.122 89.518 106.122 71.2855C106.122 53.053 91.1081 38.2726 72.5875 38.2726C54.0669 38.2726 39.053 53.053 39.053 71.2855Z" fill="#5FEE6D"/>
<defs>
<filter id="filter0_b_7141_63416" x="-20.3976" y="-19.1461" width="185.969" height="183.717" filterUnits="userSpaceOnUse" color-interpolation-filters="sRGB">
<feFlood flood-opacity="0" result="BackgroundImageFix"/>
<feGaussianBlur in="BackgroundImageFix" stdDeviation="10.2857"/>
<feComposite in2="SourceAlpha" operator="in" result="effect1_backgroundBlur_7141_63416"/>
<feBlend mode="normal" in="SourceGraphic" in2="effect1_backgroundBlur_7141_63416" result="shape"/>
</filter>
</defs>
</svg>
