<svg width="32" height="32" viewBox="0 0 32 32" fill="none" xmlns="http://www.w3.org/2000/svg">
<path d="M20.9459 20.2394L16.8125 17.7727C16.0925 17.346 15.5059 16.3194 15.5059 15.4794V10.0127" stroke="#056DFF" stroke-width="1.5" stroke-linecap="round" stroke-linejoin="round"/>
<path d="M29.5 15.9995C29.3151 17.7865 28.5001 21.0149 27.5468 22.6661C24.4547 28.0218 18.1998 30.421 12.4991 28.8678" stroke="#056DFF" stroke-width="1.5" stroke-linecap="round" stroke-linejoin="round" stroke-dasharray="4 4"/>
<path d="M28.2624 10.7615L27.0891 2.18114L20.2449 7.48742L28.2624 10.7615ZM8.95916 28.1957C9.31788 28.4028 9.77658 28.2799 9.98368 27.9212C10.1908 27.5624 10.0679 27.1037 9.70916 26.8966L8.95916 28.1957ZM24.1266 5.42714L24.5834 4.83229C24.099 4.46027 23.585 4.11583 23.0425 3.80263L22.6675 4.45215L22.2925 5.10167C22.7778 5.38187 23.2372 5.68974 23.6698 6.02199L24.1266 5.42714ZM22.6675 4.45215L23.0425 3.80263C16.3098 -0.0844784 7.69141 2.22482 3.80431 8.95749L4.45383 9.33249L5.10335 9.70749C8.57624 3.69226 16.2773 1.62877 22.2925 5.10167L22.6675 4.45215ZM4.45383 9.33249L3.80431 8.95749C-0.0827999 15.6902 2.2265 24.3086 8.95916 28.1957L9.33416 27.5462L9.70916 26.8966C3.69394 23.4237 1.63045 15.7227 5.10335 9.70749L4.45383 9.33249Z" fill="#056DFF"/>
</svg>
