<svg width="162" height="90" viewBox="0 0 162 90" fill="none" xmlns="http://www.w3.org/2000/svg">
<path d="M110.349 26.3787C110.349 26.3787 107.584 27.4255 104.368 30.7961C101.151 34.1668 99.2779 37.9571 100.664 38.9651C101.197 39.3482 102.425 39.4212 104.653 37.5055C106.709 35.8079 108.323 33.6799 109.368 31.2887C110.807 27.9523 110.349 26.4197 110.349 26.3833M127.952 32.4427C124.378 30.7003 121.766 28.5657 119.049 27.2453C116.456 25.9796 114.779 25.4505 112.683 25.7173C112.391 25.7669 112.102 25.8355 111.82 25.9226C111.82 25.9226 112.899 29.4278 108.603 35.3162C104.252 41.2867 100.304 41.2456 99.182 39.6059C98.0067 37.875 99.525 34.347 102.06 31.2066C104.715 27.9226 109.378 25.1996 109.378 25.1996C109.378 25.1996 107.891 24.3353 104.24 26.3034C100.679 28.2145 94.5481 32.7757 88.8589 40.468C83.1697 48.1603 82.0425 52.393 81.227 55.7249C80.4115 59.0568 81.1526 62.6259 85.0382 62.6259C88.9237 62.6259 93.4472 56.9906 94.7232 55.0316C97.0953 51.3827 98.6423 45.7862 95.414 46.5548C93.8238 46.9334 92.5358 48.6073 91.7227 50.2196C91.2094 51.2552 90.8169 52.3412 90.5523 53.458C89.4242 53.9001 88.3647 54.4863 87.4031 55.2004C86.3333 55.9538 85.3335 56.7931 84.4146 57.709C84.4146 57.709 84.4289 55.0453 86.6619 50.7351C88.8949 46.4248 92.9939 44.4567 95.3157 44.272C97.4071 44.1123 100.129 45.7999 97.8221 52.0258C95.5147 58.2518 88.7078 65.821 81.558 65.9145C74.9597 66.0011 70.6425 57.9941 79.8263 44.0211C89.991 28.584 101.914 23.8473 105.785 23.3205C109.656 22.7937 110.915 24.4174 110.915 24.4174C113.246 23.5084 115.762 23.1138 118.276 23.2634C123.004 23.5668 126.659 26.7481 131.485 28.9831C130.23 30.1234 129.033 31.3207 127.954 32.4427M149.19 27.2453C145.914 29.2431 141.381 31.0538 137.025 30.6661C135.922 31.7494 134.742 33.0037 133.559 34.372C141.112 35.7928 147.73 31.3435 151.248 27.5555C152.531 26.1935 153.633 24.687 154.529 23.0696C152.927 24.6561 151.135 26.0576 149.188 27.2453M139.131 47.4784C139.188 47.3837 139.235 47.2836 139.27 47.1797C139.248 47.0152 139.167 46.863 139.041 46.7485C138.914 46.6339 138.751 46.564 138.577 46.5502C137.857 46.5183 136.877 46.6483 134.303 49.3576C132.168 51.595 130.331 54.0735 128.832 56.7375C127.359 59.2963 126.762 61.2028 127.609 61.6954C127.884 61.8309 128.203 61.8619 128.501 61.7821C129.074 61.6521 129.724 61.1412 130.712 60.0534C131.175 59.5426 131.689 58.8196 132.303 58.0192C134.006 55.8161 138.284 48.881 139.131 47.4784ZM112.398 50.4249C112.827 49.3576 113.374 47.2618 112.237 46.4385C111.016 45.565 107.903 47.6153 107.886 49.7179C107.864 51.8708 110.078 52.8446 110.608 52.9814C110.911 53.0589 111.016 53.0475 111.162 52.8172C111.632 52.0479 112.045 51.2486 112.398 50.4249ZM110.042 54.3406C109.271 54.0019 108.551 53.5654 107.903 53.043C107.253 52.5245 106.71 51.8958 106.301 51.1889C106.258 51.1205 106.214 51.1729 106.166 51.2345C106.118 51.2961 105.927 51.4626 104.267 53.775C102.607 56.0875 100.057 60.879 102.365 61.6954C103.842 62.2177 106.301 59.7569 107.641 58.1263C108.555 56.9882 109.383 55.7902 110.119 54.5413C110.189 54.4022 110.119 54.3703 110.045 54.3406M136.217 59.8755C135.591 60.8288 134.876 62.6578 136.936 61.5198C139.457 60.1355 143.048 54.9564 143.048 54.9564H144.676C143.195 57.1229 141.545 59.1811 139.74 61.1139C137.186 63.8049 134.07 66.2497 131.876 66.008C129.312 65.7229 130.115 62.5233 130.115 62.5233C130.115 62.5233 126.448 66.236 123.91 65.9692C120.483 65.6089 121.529 61.5814 121.529 61.5814C121.529 61.5814 117.653 66.1037 115.012 65.9646C110.872 65.7366 111.913 60.9474 113.064 57.5745C113.681 55.7705 114.252 54.3543 114.252 54.3543C114.252 54.3543 113.842 54.4569 112.959 54.5824C112.498 54.6439 111.659 54.6895 111.659 54.6895C111.659 54.6895 109.934 57.5813 108.555 59.3191C107.176 61.0569 101.314 67.0479 97.8652 65.8483C94.6752 64.74 95.7306 60.0967 97.587 56.4068C100.297 51.027 107.92 43.2982 112.316 44.3198C116.873 45.3712 112.419 53.2779 112.419 53.2779C112.419 53.2779 112.419 53.3075 112.467 53.3281C112.558 53.36 112.796 53.3851 113.345 53.2824C113.914 53.1721 114.472 53.0141 115.012 52.8104C115.012 52.8104 119.593 43.6881 124.654 37.7199C129.715 31.7517 139.81 21.4732 143.772 23.959C144.732 24.5702 144.3 26.6752 142.995 29.2294C142.407 29.4109 141.81 29.5631 141.206 29.6855C142.079 28.178 142.657 26.9078 142.83 26.0206C143.427 22.9373 135.855 29.4415 130.444 36.4291C127.185 40.6417 124.289 45.0979 121.785 49.7544C122.763 49.1876 123.696 48.5542 124.577 47.8593C126.991 45.9564 129.284 43.9202 131.446 41.7611C133.528 39.7345 135.481 37.5915 137.294 35.3436C137.87 35.3171 138.444 35.2607 139.014 35.1748C137.037 37.7259 134.881 40.1473 132.562 42.4224C130.403 44.4977 128.067 46.7304 126.038 48.3519C124.225 49.8174 122.314 51.1681 120.315 52.3953C120.315 52.3953 115.583 61.4696 118.156 62.0512C119.67 62.3978 122.658 58.0214 122.658 58.0214C122.658 58.0214 126.558 52.3634 128.909 49.8114C132.116 46.345 134.876 44.3381 137.634 44.3016C139.241 44.2742 140.189 45.898 140.189 45.898L140.944 44.7851H145.597C145.597 44.7851 136.908 58.806 136.212 59.8619M149.188 27.2453C145.912 29.2431 141.378 31.0538 137.023 30.6661C135.92 31.7494 134.739 33.0037 133.557 34.372C141.11 35.7928 147.727 31.3435 151.246 27.5555C152.529 26.1937 153.632 24.6871 154.529 23.0696C152.927 24.6561 151.135 26.0576 149.188 27.2453ZM83.8413 34.1235H79.4161L76.9145 37.9662H81.3397L83.8413 34.1235ZM62.8882 47.4305C64.771 44.9766 69.9661 36.3767 69.9661 36.3767C69.9442 36.2124 69.8636 36.0603 69.7379 35.9457C69.6122 35.8311 69.4489 35.7611 69.2753 35.7472C68.5558 35.7153 67.3566 35.9456 64.9749 38.7804C62.5932 41.6151 60.744 43.8706 59.396 46.2173C57.9185 48.7783 57.2734 50.5845 58.1224 51.0749C58.3979 51.2061 58.7145 51.2369 59.0123 51.1615C59.5639 51.0292 60.2858 50.5024 61.2764 49.4192C61.7417 48.9129 62.2694 48.231 62.8882 47.4305ZM39.1432 35.7997C37.92 34.9217 34.8092 36.9764 34.7924 39.0746C34.7732 41.2297 37.5914 41.8888 37.956 41.9047C38.0632 41.9132 38.1707 41.8918 38.2654 41.8432C38.3304 41.8071 38.3823 41.753 38.4141 41.6881C38.7455 41.069 39.0432 40.4341 39.3063 39.7861C39.7357 38.7188 40.2801 36.623 39.1432 35.7997ZM37.2988 43.2183C36.4554 42.9678 35.6493 42.6152 34.9003 42.1693C34.1746 41.7194 33.5844 41.0977 33.1878 40.3654C33.1446 40.2969 33.0967 40.3494 33.0535 40.411C33.0103 40.4725 32.7609 40.769 31.0963 43.0906C29.4318 45.4122 26.9662 50.1604 29.2759 50.9768C30.7486 51.5082 33.2358 49.0269 34.5861 47.4032C35.5966 46.1271 36.5303 44.7977 37.3828 43.4213C37.4379 43.2822 37.3828 43.2503 37.3012 43.2252M73.4415 44.6482H75.0629C75.0629 44.6482 66.9392 55.823 62.3509 55.303C59.7894 55.0179 60.5497 52.0122 60.5497 52.0122C60.5497 52.0122 56.952 56.0168 53.6469 55.205C50.6488 54.4729 52.5843 49.7316 52.5843 49.7316C52.2437 49.8616 45.7559 56.815 41.1963 55.1479C36.4258 53.3965 38.9034 47.5742 39.81 45.8227C40.5799 44.3472 41.4314 42.9105 41.4314 42.9105C41.4314 42.9105 40.6999 43.1066 40.2322 43.2069C39.7645 43.3073 39.0881 43.435 39.0881 43.435C39.0881 43.435 36.8311 46.922 35.452 48.662C34.0729 50.4021 28.211 56.3817 24.7572 55.1913C21.3033 54.0008 22.1596 49.4055 24.1 45.7566C27.2468 39.8385 34.7133 32.5658 39.2104 33.6696C43.7531 34.7711 39.9923 41.777 39.9923 41.777C39.9923 41.777 40.8965 41.8888 43.0624 40.4839C46.1804 38.4611 50.2962 33.0197 54.7526 33.6582C56.8536 33.9593 58.8108 36.0004 56.1341 39.8773C55.2802 41.1225 53.8483 42.2354 52.7522 41.1339C52.0687 40.4497 52.6659 39.2023 53.383 38.3493C53.6621 38.0017 54.0269 37.7245 54.4451 37.5424C54.8634 37.3603 55.3223 37.2787 55.7815 37.3048C55.7815 37.3048 56.5178 35.7085 54.6446 35.7313C53.1288 35.7586 49.2912 39.1179 47.1254 42.5114C45.1394 45.6266 42.1294 50.9335 45.1514 52.0897C47.9217 53.1524 53.1935 47.2025 55.6352 44.0849C58.0768 40.9674 63.6413 33.9023 68.3088 33.6195C69.9157 33.5191 70.8727 34.9125 70.8727 34.9125L71.4124 34.1007H76.0798C76.0798 34.1007 67.2894 48.0486 66.6034 49.1045C66.0638 49.93 65.3466 51.7864 67.323 50.7465C69.2993 49.7065 73.4415 44.6482 73.4415 44.6482ZM70.9015 66.9977C67.4649 64.7357 63.3497 63.5939 59.173 63.7434C58.0425 63.7727 56.9352 64.0549 55.9408 64.5673C54.9465 65.0796 54.0932 65.8076 53.4502 66.6921C51.6705 63.7388 48.1519 61.9258 42.7122 61.9668C33.9218 62.0626 25.2033 65.9167 18.2957 65.9122C11.6758 65.9122 6.84771 61.9554 7.00361 54.929C7.29382 42.598 18.2525 31.494 26.4313 26.4973C31.1467 23.6261 35.0898 22.7731 37.6682 23.0491C39.5486 23.2475 41.8104 25.3137 40.3833 28.3582C38.287 32.8076 35.392 32.4427 35.5 30.3149C35.5599 28.9306 36.5289 28.0595 37.258 27.5783C37.7209 27.2749 38.5388 27.1883 38.9658 27.1792C39.3807 26.8462 39.6853 24.4106 36.3274 25.211C32.9696 26.0115 28.8921 29.1587 25.021 33.2249C21.1498 37.2912 15.1225 44.9766 13.633 53.0475C12.9374 56.7899 13.3932 63.6157 22.7256 63.5381C30.6406 63.4765 42.3068 58.5209 53.028 58.6235C57.1894 58.6623 60.8111 59.7296 63.6341 61.3853C66.4068 63.009 69.7311 65.3808 70.9111 67" fill="#E61D2B"/>
</svg>
