<svg width="14" height="14" viewBox="0 0 14 14" fill="none" xmlns="http://www.w3.org/2000/svg">
<path d="M5.4417 10.4998H8.5567C10.4934 10.4998 11.2809 9.129 10.3184 7.45484L9.8867 6.70817C9.7817 6.52734 9.5892 6.4165 9.3792 6.4165H4.6192C4.4092 6.4165 4.2167 6.52734 4.1117 6.70817L3.68004 7.45484C2.71754 9.129 3.50504 10.4998 5.4417 10.4998Z" fill="#00DE30"/>
<path d="M8.18852 5.08418L8.24256 5.17708H5.75726L5.81131 5.08418L5.81131 5.08419L5.81301 5.08124C6.22364 4.36699 6.67781 4.15479 6.99991 4.15479C7.32201 4.15479 7.77618 4.36699 8.18682 5.08124L8.18681 5.08125L8.18852 5.08418Z" fill="#00DE30" stroke="#00DE30" stroke-width="1.3125"/>
</svg>
