<svg width="14" height="14" viewBox="0 0 14 14" fill="none" xmlns="http://www.w3.org/2000/svg">
<path d="M6.99544 1.1665C3.78128 1.1665 1.16211 3.78567 1.16211 6.99984C1.16211 10.214 3.78128 12.8332 6.99544 12.8332C10.2096 12.8332 12.8288 10.214 12.8288 6.99984C12.8288 3.78567 10.2096 1.1665 6.99544 1.1665ZM6.55794 4.6665C6.55794 4.42734 6.75628 4.229 6.99544 4.229C7.23461 4.229 7.43294 4.42734 7.43294 4.6665V7.58317C7.43294 7.82234 7.23461 8.02067 6.99544 8.02067C6.75628 8.02067 6.55794 7.82234 6.55794 7.58317V4.6665ZM7.53211 9.55484C7.50294 9.63067 7.46211 9.689 7.40961 9.74734C7.35128 9.79984 7.28711 9.84067 7.21711 9.86984C7.14711 9.899 7.07128 9.9165 6.99544 9.9165C6.91961 9.9165 6.84378 9.899 6.77378 9.86984C6.70378 9.84067 6.63961 9.79984 6.58128 9.74734C6.52878 9.689 6.48794 9.63067 6.45878 9.55484C6.42961 9.48484 6.41211 9.409 6.41211 9.33317C6.41211 9.25734 6.42961 9.1815 6.45878 9.1115C6.48794 9.0415 6.52878 8.97734 6.58128 8.919C6.63961 8.8665 6.70378 8.82567 6.77378 8.7965C6.91378 8.73817 7.07711 8.73817 7.21711 8.7965C7.28711 8.82567 7.35128 8.8665 7.40961 8.919C7.46211 8.97734 7.50294 9.0415 7.53211 9.1115C7.56128 9.1815 7.57878 9.25734 7.57878 9.33317C7.57878 9.409 7.56128 9.48484 7.53211 9.55484Z" fill="#FF3939"/>
</svg>
