<svg width="100" height="100" viewBox="0 0 100 100" fill="none" xmlns="http://www.w3.org/2000/svg">
<rect width="100" height="100" rx="50" fill="#056DFF"/>
<path d="M72.6742 33.075C68.6492 32.675 64.6242 32.375 60.5742 32.15V32.125L60.0242 28.875C59.6492 26.575 59.0992 23.125 53.2492 23.125H46.6992C40.8742 23.125 40.3242 26.425 39.9242 28.85L39.3992 32.05C37.0742 32.2 34.7492 32.35 32.4242 32.575L27.3242 33.075C26.2742 33.175 25.5242 34.1 25.6242 35.125C25.7242 36.15 26.6242 36.9 27.6742 36.8L32.7742 36.3C45.8742 35 59.0742 35.5 72.3242 36.825C72.3992 36.825 72.4492 36.825 72.5242 36.825C73.4742 36.825 74.2992 36.1 74.3992 35.125C74.4742 34.1 73.7242 33.175 72.6742 33.075Z" fill="white"/>
<path d="M68.0744 40.35C67.4744 39.725 66.6494 39.375 65.7994 39.375H34.1994C33.3494 39.375 32.4994 39.725 31.9244 40.35C31.3494 40.975 31.0244 41.825 31.0744 42.7L32.6244 68.35C32.8994 72.15 33.2494 76.9 41.9744 76.9H58.0244C66.7494 76.9 67.0994 72.175 67.3744 68.35L68.9244 42.725C68.9744 41.825 68.6494 40.975 68.0744 40.35ZM54.1494 64.375H45.8244C44.7994 64.375 43.9494 63.525 43.9494 62.5C43.9494 61.475 44.7994 60.625 45.8244 60.625H54.1494C55.1744 60.625 56.0244 61.475 56.0244 62.5C56.0244 63.525 55.1744 64.375 54.1494 64.375ZM56.2494 54.375H43.7494C42.7244 54.375 41.8744 53.525 41.8744 52.5C41.8744 51.475 42.7244 50.625 43.7494 50.625H56.2494C57.2744 50.625 58.1244 51.475 58.1244 52.5C58.1244 53.525 57.2744 54.375 56.2494 54.375Z" fill="white"/>
</svg>
