<svg width="36" height="36" viewBox="0 0 36 36" fill="none" xmlns="http://www.w3.org/2000/svg">
<rect width="36" height="36" rx="4" fill="white"/>
<path d="M25.5 12.9831C22.725 12.7081 19.9333 12.5664 17.15 12.5664C15.5 12.5664 13.85 12.6497 12.2 12.8164L10.5 12.9831" stroke="#F5453B" stroke-width="1.25" stroke-linecap="round" stroke-linejoin="round"/>
<path d="M15.0835 12.142L15.2668 11.0503C15.4002 10.2587 15.5002 9.66699 16.9085 9.66699H19.0918C20.5002 9.66699 20.6085 10.292 20.7335 11.0587L20.9168 12.142" stroke="#F5453B" stroke-width="1.25" stroke-linecap="round" stroke-linejoin="round"/>
<path d="M23.7082 15.6162L23.1665 24.0079C23.0748 25.3162 22.9998 26.3329 20.6748 26.3329H15.3248C12.9998 26.3329 12.9248 25.3162 12.8332 24.0079L12.2915 15.6162" stroke="#F5453B" stroke-width="1.25" stroke-linecap="round" stroke-linejoin="round"/>
<path d="M16.6084 21.75H19.3834" stroke="#F5453B" stroke-width="1.25" stroke-linecap="round" stroke-linejoin="round"/>
<path d="M15.9165 18.417H20.0832" stroke="#F5453B" stroke-width="1.25" stroke-linecap="round" stroke-linejoin="round"/>
</svg>
