<svg width="20" height="20" viewBox="0 0 20 20" fill="none" xmlns="http://www.w3.org/2000/svg">
<path d="M4.5 1.75H15.5C16.4167 1.75 17.1667 2.5 17.1667 3.41667V5.25C17.1667 5.91667 16.75 6.75 16.3333 7.16667L12.75 10.3333C12.25 10.75 11.9167 11.5833 11.9167 12.25V15.8333C11.9167 16.3333 11.5833 17 11.1667 17.25L10 18C8.91667 18.6667 7.41666 17.9167 7.41666 16.5833V12.1667C7.41666 11.5833 7.08333 10.8333 6.75 10.4167L3.58333 7.08333C3.16667 6.66667 2.83333 5.91667 2.83333 5.41667V3.5C2.83333 2.5 3.58333 1.75 4.5 1.75Z" stroke="black" stroke-width="1.25" stroke-miterlimit="10" stroke-linecap="round" stroke-linejoin="round"/>
<path d="M9.10833 1.75L5 8.33333" stroke="black" stroke-width="1.25" stroke-miterlimit="10" stroke-linecap="round" stroke-linejoin="round"/>
</svg>
