<svg width="100" height="101" viewBox="0 0 100 101" fill="none" xmlns="http://www.w3.org/2000/svg">
<rect y="0.5" width="100" height="100" rx="50" fill="#056DFF"/>
<path d="M50 25.5C43.45 25.5 38.125 30.825 38.125 37.375C38.125 43.8 43.15 49 49.7 49.225C49.9 49.2 50.1 49.2 50.25 49.225C50.3 49.225 50.325 49.225 50.375 49.225C50.4 49.225 50.4 49.225 50.425 49.225C56.825 49 61.85 43.8 61.875 37.375C61.875 30.825 56.55 25.5 50 25.5Z" fill="white"/>
<path d="M62.7004 55.8747C55.7254 51.2247 44.3504 51.2247 37.3254 55.8747C34.1504 57.9997 32.4004 60.8747 32.4004 63.9497C32.4004 67.0247 34.1504 69.8747 37.3004 71.9747C40.8004 74.3247 45.4004 75.4997 50.0004 75.4997C54.6004 75.4997 59.2004 74.3247 62.7004 71.9747C65.8504 69.8497 67.6004 66.9997 67.6004 63.8997C67.5754 60.8247 65.8504 57.9747 62.7004 55.8747Z" fill="white"/>
</svg>
