<svg width="18" height="18" viewBox="0 0 18 18" fill="none" xmlns="http://www.w3.org/2000/svg">
<path d="M17.6934 9.19994C17.6934 8.58746 17.6441 7.97498 17.5456 7.375H9.17993V10.8374H13.9726C13.7755 11.9499 13.1348 12.9498 12.1985 13.5748V15.8247H15.0568C16.7324 14.2623 17.6934 11.9499 17.6934 9.19994Z" fill="#4285F4"/>
<path d="M9.18052 17.9999C11.5707 17.9999 13.5913 17.1999 15.0574 15.8249L12.1991 13.575C11.3982 14.125 10.3756 14.4375 9.18052 14.4375C6.86426 14.4375 4.9053 12.85 4.20303 10.7251H1.25842V13.05C2.76153 16.0874 5.82934 17.9999 9.18052 17.9999Z" fill="#34A853"/>
<path d="M4.20314 10.7252C3.83347 9.61275 3.83347 8.40029 4.20314 7.27532V4.96289H1.25806C-0.0111519 7.50031 -0.0111519 10.5002 1.25806 13.0376L4.20314 10.7252Z" fill="#FBBC04"/>
<path d="M9.18052 3.56294C10.4495 3.53794 11.6693 4.02542 12.581 4.9129L15.119 2.33797C13.505 0.813019 11.3859 -0.0244552 9.18052 0.000543996C5.82934 0.000543996 2.76153 1.92549 1.25842 4.96289L4.20303 7.28782C4.9053 5.15039 6.86426 3.56294 9.18052 3.56294Z" fill="#EA4335"/>
</svg>
