<svg width="30" height="30" viewBox="0 0 30 30" fill="none" xmlns="http://www.w3.org/2000/svg">
<rect x="0.5" y="0.5" width="29" height="29" rx="3.5" stroke="#E3E3E8"/>
<path d="M15.75 22.5H9.75C8.25 22.5 7.5 21.75 7.5 20.25V14.25C7.5 12.75 8.25 12 9.75 12H13.5V20.25C13.5 21.75 14.25 22.5 15.75 22.5Z" stroke="black" stroke-width="1.125" stroke-miterlimit="10" stroke-linecap="round" stroke-linejoin="round"/>
<path d="M13.5825 9C13.5225 9.225 13.5 9.4725 13.5 9.75V12H9.75V10.5C9.75 9.675 10.425 9 11.25 9H13.5825Z" stroke="black" stroke-width="1.125" stroke-miterlimit="10" stroke-linecap="round" stroke-linejoin="round"/>
<path d="M16.5 12V15.75" stroke="black" stroke-width="1.125" stroke-miterlimit="10" stroke-linecap="round" stroke-linejoin="round"/>
<path d="M19.5 12V15.75" stroke="black" stroke-width="1.125" stroke-miterlimit="10" stroke-linecap="round" stroke-linejoin="round"/>
<path d="M18.75 18.75H17.25C16.8375 18.75 16.5 19.0875 16.5 19.5V22.5H19.5V19.5C19.5 19.0875 19.1625 18.75 18.75 18.75Z" stroke="black" stroke-width="1.125" stroke-miterlimit="10" stroke-linecap="round" stroke-linejoin="round"/>
<path d="M10.5 15.75V18.75" stroke="black" stroke-width="1.125" stroke-miterlimit="10" stroke-linecap="round" stroke-linejoin="round"/>
<path d="M13.5 20.25V9.75C13.5 8.25 14.25 7.5 15.75 7.5H20.25C21.75 7.5 22.5 8.25 22.5 9.75V20.25C22.5 21.75 21.75 22.5 20.25 22.5H15.75C14.25 22.5 13.5 21.75 13.5 20.25Z" stroke="black" stroke-width="1.125" stroke-miterlimit="10" stroke-linecap="round" stroke-linejoin="round"/>
</svg>
