<svg width="100" height="100" viewBox="0 0 100 100" fill="none" xmlns="http://www.w3.org/2000/svg">
<rect width="100" height="100" rx="50" fill="#056DFF"/>
<path opacity="0.4" d="M42.5 38V61.975C42.5 70 47.5 75 55.5 75H61.975C69.975 75 74.975 70 74.975 62V38C75 30 70 25 62 25H55.5C47.5 25 42.5 30 42.5 38Z" fill="white"/>
<path d="M33.9266 40.2988L25.5516 48.6738C24.8266 49.3988 24.8266 50.5988 25.5516 51.3238L33.9266 59.6988C34.6516 60.4238 35.8516 60.4238 36.5766 59.6988C37.3016 58.9738 37.3016 57.7738 36.5766 57.0488L31.4016 51.8738H58.1266C59.1516 51.8738 60.0016 51.0238 60.0016 49.9988C60.0016 48.9738 59.1516 48.1238 58.1266 48.1238H31.4016L36.5766 42.9488C36.9516 42.5738 37.1266 42.0988 37.1266 41.6238C37.1266 41.1488 36.9516 40.6488 36.5766 40.2988C35.8516 39.5488 34.6766 39.5488 33.9266 40.2988Z" fill="white"/>
</svg>
