<svg width="128" height="64" viewBox="0 0 128 64" fill="none" xmlns="http://www.w3.org/2000/svg">
<g clip-path="url(#clip0_11303_19000)">
<path d="M2.94925 46.4537C4.08277 47.1986 5.29726 47.7491 6.59272 48.1054C7.88817 48.4616 9.19981 48.6398 10.5277 48.6398C11.2725 48.6398 12.0822 48.5588 12.9566 48.3969C13.8634 48.2349 14.6893 47.9273 15.4342 47.4739C16.1791 47.0205 16.7944 46.3727 17.2802 45.5307C17.7984 44.6886 18.0575 43.5875 18.0575 42.2273C18.0575 40.5432 17.6688 39.2153 16.8916 38.2438C16.1143 37.2722 15.1427 36.4463 13.9768 35.7662C12.8433 35.0861 11.5964 34.4708 10.2362 33.9202C8.87595 33.3696 7.61288 32.6895 6.44698 31.8798C5.31345 31.0702 4.35806 30.0338 3.58079 28.7708C2.80351 27.5077 2.41488 25.8398 2.41488 23.7671C2.41488 21.8563 2.73874 20.237 3.38647 18.9091C4.03419 17.5813 4.89243 16.4963 5.96118 15.6543C7.06232 14.7799 8.30919 14.1483 9.7018 13.7597C11.1268 13.3711 12.5842 13.1767 14.074 13.1767C16.2762 13.1767 18.349 13.5816 20.2921 14.3912V16.0915C19.3853 15.7353 18.4137 15.46 17.3774 15.2657C16.3734 15.0713 15.4504 14.9742 14.6083 14.9742C13.6044 14.9742 12.6004 15.1361 11.5964 15.46C10.5924 15.7838 9.68561 16.2534 8.87595 16.8688C8.06629 17.4841 7.41857 18.2452 6.93277 19.152C6.44698 20.0588 6.20408 21.0952 6.20408 22.2611C6.20408 23.848 6.59272 25.1111 7.36999 26.0503C8.17965 26.9571 9.18362 27.7344 10.3819 28.3821C11.5802 28.9975 12.8757 29.5804 14.2683 30.131C15.6609 30.6816 16.9563 31.3779 18.1546 32.2199C19.3529 33.0296 20.3407 34.0821 21.118 35.3776C21.9276 36.673 22.3325 38.3895 22.3325 40.527C22.3325 42.5673 21.9762 44.2352 21.2637 45.5307C20.5512 46.8261 19.6606 47.8463 18.5919 48.5912C17.5231 49.3037 16.341 49.7895 15.0455 50.0486C13.7825 50.3077 12.5842 50.4372 11.4507 50.4372C9.79896 50.4372 8.26061 50.2429 6.83561 49.8543C5.41061 49.4332 4.13135 48.9474 2.99783 48.3969L2.94925 46.4537ZM45.4779 49.9028V42.6645C45.1541 43.8628 44.6845 44.9477 44.0691 45.9193C43.4538 46.8585 42.7737 47.652 42.0288 48.2997C41.2839 48.9151 40.4905 49.4009 39.6484 49.7571C38.8388 50.081 38.0291 50.2429 37.2194 50.2429C35.4706 50.2429 33.8836 49.9028 32.4586 49.2227C31.0336 48.5102 29.803 47.5386 28.7666 46.308C27.7302 45.0449 26.9206 43.5551 26.3376 41.8386C25.7871 40.1222 25.5118 38.2438 25.5118 36.2034C25.5118 34.1631 25.7871 32.2847 26.3376 30.5682C26.9206 28.8517 27.7302 27.3781 28.7666 26.1475C29.803 24.9168 31.0336 23.9614 32.4586 23.2813C33.8836 22.5688 35.4706 22.2125 37.2194 22.2125C38.2234 22.2125 39.1302 22.3906 39.9399 22.7469C40.7819 23.0708 41.5268 23.5404 42.1745 24.1557C42.8547 24.771 43.4376 25.4997 43.9234 26.3418C44.4416 27.1514 44.895 28.0259 45.2836 28.9651V22.504H49.51V49.9028H45.4779ZM37.5595 48.494C38.7254 48.494 39.778 48.1864 40.7172 47.571C41.6887 46.9233 42.5146 46.0489 43.1947 44.9477C43.8748 43.8466 44.393 42.5511 44.7493 41.0614C45.1379 39.5392 45.3322 37.9199 45.3322 36.2034C45.3322 34.4546 45.1541 32.8352 44.7978 31.3455C44.4416 29.8557 43.9234 28.5764 43.2433 27.5077C42.5632 26.4066 41.7373 25.5483 40.7657 24.933C39.8265 24.2852 38.7578 23.9614 37.5595 23.9614C36.3936 23.9614 35.3248 24.2852 34.3532 24.933C33.3817 25.5483 32.5558 26.4066 31.8757 27.5077C31.1956 28.5764 30.6612 29.8557 30.2726 31.3455C29.9163 32.8352 29.7382 34.4546 29.7382 36.2034C29.7382 37.9199 29.9163 39.5392 30.2726 41.0614C30.6612 42.5511 31.1956 43.8466 31.8757 44.9477C32.5558 46.0489 33.3817 46.9233 34.3532 47.571C35.3248 48.1864 36.3936 48.494 37.5595 48.494ZM64.0922 49.9514L52.336 22.504H56.4167L65.5982 43.9761L74.4883 22.504H76.7229L64.9667 49.9514H64.0922ZM88.809 49.9514L77.0527 22.504H81.1334L90.3149 43.9761L99.205 22.504H101.44L89.6834 49.9514H88.809ZM109.542 58.8415L115.323 48.494L102.012 22.504H106.142L116.926 44.0247L124.165 22.504H126.448L113.574 58.8415H109.542Z" fill="black"/>
<path d="M46.29 3.99337C47.178 3.99337 47.954 4.16537 48.618 4.50937C49.29 4.84537 49.806 5.33337 50.166 5.97337C50.534 6.60537 50.718 7.34537 50.718 8.19337C50.718 9.04137 50.534 9.77737 50.166 10.4014C49.806 11.0254 49.29 11.5054 48.618 11.8414C47.954 12.1694 47.178 12.3334 46.29 12.3334H43.566V3.99337H46.29ZM46.29 11.2174C47.266 11.2174 48.014 10.9534 48.534 10.4254C49.054 9.89737 49.314 9.15337 49.314 8.19337C49.314 7.22537 49.054 6.46937 48.534 5.92537C48.014 5.38137 47.266 5.10937 46.29 5.10937H44.934V11.2174H46.29ZM58.7752 3.99337V12.3334H57.4072V3.99337H58.7752ZM72.7566 12.3334H71.3886L67.2726 6.10537V12.3334H65.9046V3.98137H67.2726L71.3886 10.1974V3.98137H72.7566V12.3334ZM81.2543 5.09737V7.54537H84.1343V8.66137H81.2543V11.2174H84.4943V12.3334H79.8863V3.98137H84.4943V5.09737H81.2543Z" fill="black"/>
</g>
<defs>
<clipPath id="clip0_11303_19000">
<rect width="126.667" height="64" fill="white" transform="translate(0.666016)"/>
</clipPath>
</defs>
</svg>
