<svg width="164" height="156" viewBox="0 0 164 156" fill="none" xmlns="http://www.w3.org/2000/svg">
<path d="M72.9977 118.912C74.1153 122.395 75.3718 125.832 76.4982 129.312C77.2743 129.185 78.0498 129.054 78.8254 128.922C78.7938 128.845 78.7627 128.798 78.7335 128.805C78.3199 127.53 77.9342 126.239 77.4919 124.966C75.8438 120.228 74.049 115.541 72.522 110.76C72.3108 110.099 72.2482 109.399 71.9553 108.764C71.4076 107.879 70.5165 107.283 69.966 106.397C69.8722 106.246 69.6903 106.035 69.4629 106.292C69.5297 107.446 69.9414 108.528 70.2074 109.637C70.9602 112.78 72.0114 115.837 72.9977 118.912Z" fill="#F3F4F4"/>
<path d="M60.5094 124.009C60.5915 126.356 60.5553 128.705 60.6662 131.047C60.6737 131.203 60.6815 131.359 60.689 131.514C60.7164 131.505 60.7428 131.495 60.7702 131.487C62.662 130.492 64.7009 130.037 66.8865 130.119C69.3929 130.113 71.8904 129.931 74.3786 129.649C75.0799 129.542 75.7802 129.43 76.4807 129.315C75.3384 126.047 74.2574 122.758 73.1384 119.482C71.2457 113.945 69.7642 108.292 68.3337 102.623C68.1179 101.769 67.8988 100.916 67.683 100.062C67.5892 99.693 67.4723 99.344 67.165 99.0924C66.8694 98.9463 66.5997 98.9778 66.3017 99.2698C66.1319 100.9 64.9724 101.699 63.5067 102.203C63.2946 102.275 63.0579 102.385 63.0389 102.598C62.9488 103.619 62.0192 104.127 61.6599 105.03C61.3494 104.807 61.4288 104.525 61.4237 104.283C61.4079 103.536 61.4548 102.786 61.3954 102.042C61.3768 101.814 61.5369 101.32 60.9563 101.467C60.7734 101.788 60.812 102.141 60.8106 102.486C60.8055 103.58 60.8055 104.675 60.8092 105.77C60.8291 111.852 60.2963 117.927 60.5094 124.009Z" fill="#F3F4F4"/>
<path d="M61.0626 101.4C61.3559 102.142 61.142 102.915 61.2023 103.672C61.246 104.221 61.1304 104.781 61.2743 105.305C61.5184 105.437 61.7124 105.419 61.9301 105.208C61.9356 104.438 62.6258 104.074 63.0612 103.577C63.2069 103.22 63.0245 102.847 63.225 102.55C63.484 102.25 63.847 102.436 64.1983 102.293C64.5589 101.958 64.9678 101.576 65.5763 101.475C65.723 100.708 66.8076 100.349 66.382 99.4175C66.603 99.0904 66.887 99.172 67.1442 99.1581C67.4147 98.7984 67.2068 98.4364 67.1256 98.0901C66.7088 96.3139 66.2196 94.5558 65.7954 92.7814C66.2437 94.6045 66.7287 96.4202 67.2527 98.2206C67.703 99.7675 67.8185 101.412 68.5769 102.87C69.2745 102.278 69.2963 101.438 69.3971 100.627C69.2787 99.91 68.9278 99.244 68.9343 98.499C68.1374 96.3158 67.6793 94.0341 67.011 91.8132C66.8828 91.3871 66.6717 91.0581 66.311 90.7805C65.0249 89.791 64.7 88.1173 65.5048 86.7212C65.6891 86.4014 65.7481 86.0789 65.6784 85.7229C65.2579 83.5781 64.8402 81.4333 64.7093 79.244C64.6884 78.8996 64.6601 78.5529 64.6258 78.209C64.5292 77.2408 64.92 76.6272 65.8 76.1673C68.0571 74.9874 69.9266 73.3226 71.4388 71.2767C72.9384 69.2475 73.8421 66.9491 74.367 64.4929C74.7527 62.687 74.9574 60.8667 74.8938 59.0143C74.7907 56.0114 74.1762 53.0994 73.4675 50.1921C72.1568 44.8128 69.8821 39.8168 67.534 34.8404C66.2006 32.0143 64.7887 29.2286 63.3814 26.44C63.2009 26.0822 63.0904 25.6274 62.6049 25.5034C62.1751 25.8107 62.3891 26.208 62.4485 26.5421C63.0013 29.6384 63.5699 32.7318 64.1087 35.8309C64.7385 39.4539 65.4468 43.063 66.0581 46.6892C66.3078 48.1708 65.8585 49.0619 64.5153 49.7465C64.3139 49.8491 64.2122 50.0347 64.0498 50.1633C63.807 50.1675 63.6905 49.9405 63.4928 49.8746C63.1456 49.6945 62.8305 49.9776 62.5817 49.9739C62.2109 49.87 62.0976 49.611 61.9231 49.417C61.8711 49.3585 61.8131 49.3079 61.75 49.2619C61.3996 49.0164 61.0427 48.8693 60.6672 49.2123C60.3167 49.5325 60.2847 50.0895 60.572 50.7472C60.8649 50.9987 61.1949 50.6766 61.5286 50.8303C61.6001 51.4048 61.2135 51.6666 60.7878 51.9061C60.5117 52.062 60.1719 52.1242 59.9644 52.3795C59.7166 52.684 59.6526 53.0005 60.0601 53.2488C60.3413 53.3222 60.5883 53.2085 60.8245 53.0887C63.3424 51.8123 66.1542 54.1567 66.2785 56.6811C66.298 57.0803 66.279 57.4803 66.2846 57.8795C66.3004 58.1441 66.2934 58.4174 66.5124 58.6207C66.7687 58.7614 67.0388 58.6388 67.3651 58.6704C65.7271 59.0078 64.9465 60.241 64.1356 61.5397C63.9216 61.3424 63.73 61.1447 63.406 61.2064C62.2828 61.4218 61.2278 61.2668 60.2935 60.5515C60.1891 60.4717 60.0541 60.4346 59.7426 60.4647C59.2892 61.3702 58.2054 61.8511 57.5241 62.7794C56.3071 62.0776 55.0233 61.1201 53.3209 62.0873C53.5274 61.7573 53.9177 61.6752 53.8945 61.2997C53.8402 60.9971 53.6276 60.784 53.4661 60.5413C52.4947 59.0839 52.329 56.3158 53.9219 54.7605C54.419 54.276 55.0168 54.0179 55.6369 53.7724C56.4695 53.3296 56.8 52.4176 57.4632 51.9483C57.4665 51.506 57.2488 51.358 57.0242 51.2132C55.8374 50.7541 55.5733 49.5989 55.1426 48.6145C54.2157 48.7352 54.2157 48.7352 52.8818 51.9813C52.4116 51.9172 51.9828 52.1442 51.5298 52.2793C50.7375 52.5151 50.1392 52.3099 49.6375 51.6513C48.9817 50.7899 48.7645 49.7576 48.6368 48.7338C47.8831 42.6777 46.7125 36.6951 45.5072 30.7189C45.3851 30.1146 45.3531 29.436 44.759 29.028C44.1797 29.1065 44.0953 29.5572 44.034 29.9688C43.795 31.5748 43.7054 33.1992 43.4849 34.8056C43.2775 36.3168 43.4682 37.8415 43.2283 39.3453C43.9788 39.4014 43.8386 38.3933 44.506 38.3632C44.6286 36.9814 44.1505 35.6276 44.6741 34.2663C45.2635 34.5633 45.5243 35.0247 45.4877 35.6679C45.4348 36.5976 45.6784 37.4832 45.8293 38.3882C45.956 39.1512 45.8938 39.9533 45.9374 40.7395C46.0386 42.5599 46.2762 44.3639 46.6494 46.1295C47.0639 48.0895 47.2783 50.1081 48.0975 51.979C48.4642 52.8163 49.0601 53.1922 49.9178 53.3129C50.6837 53.4206 50.7834 53.577 50.6665 54.2644C49.4723 54.8636 47.7949 53.7998 47.024 52.5294C46.4837 51.6383 46.351 50.6237 46.156 49.6416C45.8121 47.9071 45.5522 46.1546 45.2867 44.4052C45.16 43.5684 45.0853 42.7223 45.017 41.878C44.9818 41.4408 44.9563 41.0259 44.5237 40.8231C44.111 40.8068 44.0025 41.2185 43.6618 41.3229C43.4028 40.9776 43.7811 40.4708 43.3958 40.164C43.1294 40.4833 43.1851 40.8695 43.1846 41.2385C43.18 44.6828 43.0603 48.1327 43.2093 51.571C43.4636 57.4293 44.319 63.1822 46.7965 68.5921C48.9139 73.2159 52.4952 76.0072 57.3588 77.2598C57.4104 77.2733 57.4651 77.2738 57.5166 77.2868C59.2734 77.7314 59.4056 77.8841 59.596 79.6928C59.6284 80.6977 60.0378 81.4895 60.7878 82.1838C61.3713 82.7241 61.3077 83.9684 60.7553 84.6029C60.3878 85.0253 60.1441 85.4666 60.1738 86.0371C60.3975 88.3884 60.3836 90.7531 60.6291 93.1017C60.643 93.2344 60.6482 93.3676 60.6416 93.5003C60.5317 95.8419 60.89 98.1728 60.8087 100.514C60.7976 100.829 60.7818 101.161 61.0626 101.4Z" fill="#F3F4F4"/>
<path d="M83.9316 1.99781L83.6652 2.67637C83.9984 3.07459 83.7474 3.51181 83.6851 3.8975C83.2906 6.33373 83.4137 8.76626 83.5315 11.2164C83.6503 13.6912 83.9994 16.1372 84.2491 18.5929C84.5048 21.102 84.6672 23.6199 84.8947 26.1295C85.0901 28.2882 85.2386 30.4636 85.3625 32.6348C85.4809 34.702 85.5477 36.7767 85.7881 38.8379C85.8499 39.3684 85.8016 39.9036 85.8165 40.4364C85.8262 40.7794 85.777 41.1368 86.0341 41.4245C86.1056 41.4598 86.2254 41.4867 86.2393 41.4129C86.4027 40.5432 86.7967 39.6724 86.5229 38.7841C86.1687 37.6349 86.1386 37.4966 86.8138 36.4866C86.5377 35.925 86.573 35.2729 86.631 34.6115C86.6914 33.9227 86.094 33.4275 85.9204 32.6408C86.5229 32.8279 86.9963 32.9532 87.4609 33.0868C87.7575 33.8791 87.5681 34.5832 87.2348 35.2256C87.5718 35.5737 87.8122 35.4739 88.0443 35.233C88.3065 34.6157 88.1608 33.9668 88.1845 33.3324C88.2313 32.0569 88.5019 30.8497 89.1679 29.7451C90.1538 28.1113 91.9504 27.8435 93.38 29.119C94.0065 29.6778 94.4828 30.3494 94.8824 31.0809C95.0081 31.3115 95.0838 31.584 95.3804 31.6833C95.5503 31.7237 95.6835 31.6262 95.8167 31.5399C97.2574 30.6042 98.53 30.8056 99.5845 32.1725C100.829 33.7858 101.309 35.6382 101.223 37.6548C101.318 38.2099 100.922 38.7641 101.22 39.3192C101.854 39.3276 101.877 38.7196 101.835 38.4337C101.686 37.4084 102.045 36.5586 102.517 35.7148C102.608 35.3894 102.526 35.0752 102.429 34.7712C100.557 28.8976 98.7374 23.0059 96.5091 17.2525C95.1024 13.6192 93.6663 9.9976 91.8405 6.54817C90.9043 4.78028 89.9797 2.99801 88.4583 1.63161C88.2295 1.426 88.0462 1.11781 87.6591 1.19485C87.3123 1.8451 87.6257 2.56637 87.4196 3.21337C87.8081 3.917 88.5368 3.40598 89.1118 3.7643C88.8231 4.43079 87.8995 4.49345 87.6642 5.32564L87.9199 6.51615C87.6127 6.73057 87.4744 6.24695 87.0831 6.33281C85.9469 8.72124 85.9729 11.364 85.5556 13.9232C85.0919 11.1565 85.2326 8.37731 85.3811 5.6394C84.9508 5.44817 84.7146 5.84454 84.3294 5.7712C84.38 5.03277 85.0808 4.63873 85.2456 3.95737C85.065 3.49881 84.5396 3.27464 84.2992 2.77801C84.897 2.45452 85.3509 2.92468 85.9149 2.94742C86.7266 2.47029 86.8375 1.47566 87.3444 0.752071C86.3674 0.142663 85.5115 0.316254 84.6882 1.25055C84.4556 1.51417 84.3911 1.9616 83.9316 1.99781Z" fill="#F3F4F4"/>
<path d="M90.7466 4.98068C92.5869 8.11173 93.9867 11.4465 95.3378 14.8036C97.7378 20.7593 99.7243 26.8595 101.648 32.9804C101.927 33.8669 102.169 34.7664 102.427 35.6594C102.509 37.011 103.077 38.2358 103.442 39.5122C104.526 43.2777 105.832 46.9875 106.424 50.8821C107.463 57.7308 105.744 63.7766 101.114 68.9721C100.334 69.8493 99.5433 70.7149 98.6949 71.5262C96.8179 73.1136 95.0797 74.8225 93.9273 77.0397C93.2552 78.2952 92.8338 79.6449 92.4537 81.0089C92.3191 81.4675 92.2838 81.947 92.1859 82.412C92.1539 82.5257 92.1362 82.6413 92.1269 82.7583C92.1074 83.0228 92.1251 83.292 92.0323 83.5487C92.0081 83.6239 91.9905 83.7009 91.9761 83.7794C91.912 84.2235 91.9858 84.6835 91.8187 85.1179C91.795 85.2047 91.7821 85.2929 91.7774 85.3825C91.7533 86.4634 91.7612 87.5439 91.7677 88.6226C91.7658 88.7604 91.7867 88.8955 91.8173 89.0282C92.0113 89.5717 91.8879 90.1426 91.9487 90.6959C91.9552 90.7789 91.9714 90.8593 91.9923 90.9396C92.1446 91.3178 92.0787 91.7235 92.1413 92.1129C92.1524 92.1913 92.1715 92.267 92.1923 92.3435C92.2968 92.6434 92.2485 92.9594 92.2856 93.2672C92.3367 93.586 92.4249 93.8975 92.4876 94.2131C92.5999 94.5338 92.5595 94.8735 92.6175 95.2007C93.252 98.4441 93.996 101.661 94.8616 104.849C94.9498 105.086 94.9901 105.335 95.0542 105.578C95.3991 106.753 95.7885 107.914 96.1189 109.094C96.2359 109.432 96.364 109.767 96.4633 110.113C96.6142 110.522 96.7344 110.941 96.8258 111.367C97.3661 112.933 97.8631 114.514 98.3969 116.084C98.4628 116.265 98.5283 116.448 98.5876 116.631C98.7431 117.054 98.881 117.482 99.0123 117.913C99.0332 117.984 99.0606 118.054 99.0912 118.122C99.3173 118.51 99.346 118.968 99.5414 119.367C99.6152 119.537 99.6714 119.715 99.7276 119.892C99.9313 120.473 100.128 121.057 100.298 121.652C100.317 121.73 100.345 121.807 100.374 121.884C100.883 123.246 101.355 124.62 101.802 126.001L101.826 126C102.05 125.997 102.275 125.995 102.5 125.994C101.222 122.117 99.8227 118.283 98.5477 114.407C97.5819 111.472 96.6815 108.526 95.8316 105.556C95.2839 103.641 94.7335 101.719 94.2842 99.7776C93.8637 97.9591 93.4799 96.1267 93.1851 94.2832C93.0983 93.7396 92.9772 93.1646 92.999 92.6114C100.766 97.6472 108.799 97.7052 117.138 93.9285C117.213 93.8236 117.322 93.7401 117.452 93.6942C117.48 93.684 117.509 93.6756 117.538 93.6668C117.592 93.6046 117.649 93.5443 117.71 93.4867C117.812 93.3776 117.923 93.2839 118.038 93.1975C118.539 91.5555 119.055 89.918 119.583 88.2833C119.299 88.3979 119.019 88.5103 118.724 88.572C118.614 88.6411 118.502 88.7066 118.385 88.7665C118.294 88.8138 118.204 88.8328 118.118 88.8333C113.95 91.5736 109.409 92.9952 104.359 92.5635C100.039 92.1913 96.1653 90.5529 92.4667 88.2842C92.372 82.3336 93.4381 76.9018 98.2461 72.791C101.482 70.0257 104.199 66.8144 105.839 62.8163C107.655 58.3899 107.78 53.8284 106.825 49.2052C105.961 45.0159 104.601 40.9631 103.356 36.8796C101.433 30.5772 99.45 24.2928 97.1335 18.1221C95.4664 13.6827 93.7426 9.26277 91.381 5.12967C90.4932 3.57482 89.525 2.06917 88.1251 0.903734C88.0049 0.806265 87.8657 0.73061 87.7404 0.648926C87.5496 0.829935 87.6346 1.01606 87.6601 1.19382C89.0052 2.19913 89.9097 3.55858 90.7466 4.98068Z" fill="#5D687B"/>
<path d="M86.1368 127.709C86.1952 124.257 86.3888 120.808 86.464 117.356C86.3405 116.748 86.618 116.078 86.2189 115.523C86.1637 115.447 85.9924 115.624 85.9692 115.658C85.8931 115.773 85.8824 115.904 85.8634 116.037C85.8165 116.366 85.7961 116.697 85.7798 117.029C85.7408 117.812 85.7241 118.596 85.7093 119.38C85.6949 120.138 85.6239 120.905 85.5932 121.665C85.531 123.231 85.4902 124.799 85.4549 126.366C85.4443 126.851 85.4341 127.335 85.4238 127.82C85.6615 127.783 85.8991 127.746 86.1368 127.709Z" fill="#5D687B"/>
<path d="M43.2291 39.3455C43.5916 39.1152 43.5197 38.7448 43.522 38.4065C43.5392 35.7071 43.903 33.037 44.1978 30.3612C44.247 29.917 44.3231 29.4761 44.5951 29.0296C45.0852 29.5211 45.159 30.112 45.2759 30.6671C46.3495 35.7767 47.2903 40.9105 48.0593 46.0754C48.2515 47.3661 48.4427 48.6569 48.6641 49.9425C48.7309 50.3315 48.8632 50.719 49.0266 51.0797C49.7572 52.6893 50.9449 53.0355 52.4696 52.1026C52.7169 52.1393 52.6404 52.5858 53.0864 52.4818C53.4284 51.1535 53.5788 49.6409 54.9684 48.6727C55.4056 49.8061 55.6567 51.0504 57.0366 51.3934C57.9491 51.6125 58.8477 51.1409 59.3707 50.2034C59.6636 49.6789 59.6724 49.0862 59.8149 48.5125C60.8179 48.1426 61.5782 48.597 62.2948 49.1846C62.6211 49.4519 62.8935 49.7908 63.3168 49.924C63.69 50.1156 63.8065 50.629 64.2632 50.7139C64.6257 50.4744 64.252 50.2307 64.2998 49.9996C65.8231 49.658 66.5829 48.3496 66.271 46.6277C65.5052 42.4041 64.7421 38.1795 63.9824 33.955C63.5145 31.3554 63.0541 28.7544 62.5927 26.1534C62.5658 26.0016 62.5626 25.8457 62.5417 25.6243C62.874 25.777 62.9297 26.0531 63.0411 26.2689C66.083 32.1537 69.0943 38.0621 71.4001 44.2782C73.3087 49.4232 74.812 54.7148 74.6602 60.2737C74.5084 65.8382 72.7229 70.7455 68.1953 74.3439C67.3784 74.9932 66.5277 75.6068 65.5897 76.0556C64.6512 76.5044 64.3537 77.189 64.414 78.1855C64.5653 80.67 64.9129 83.1239 65.4128 85.5592C65.4662 85.8186 65.5052 86.0813 65.5451 86.3111C64.2734 87.9374 64.7236 90.0543 66.5866 91.2095C67.4026 93.5887 67.8156 96.127 68.73 98.5164C68.8678 98.6519 68.8293 98.8594 68.9328 99.0102C69.0744 99.2163 69.2057 99.2293 69.3319 98.9977C69.4313 98.359 69.1314 97.7947 68.9611 97.2164C68.5007 95.6532 68.153 94.0607 67.6899 92.4989C67.6314 92.3003 67.5585 92.0946 67.6787 91.8018C70.0964 92.6813 72.4352 93.6379 74.5224 95.2117C73.8884 96.2979 73.1532 97.1839 72.6074 98.1892C72.5015 98.3966 72.3739 98.593 72.2866 98.8102C71.4043 99.8851 71.3769 101.024 72.0523 102.202C72.541 103.054 73.2738 103.332 74.3479 103.052C74.4755 102.21 75.2515 101.781 75.7333 101.133C75.9654 100.883 76.2086 100.638 76.261 100.277C77.4153 99.09 78.4332 97.7882 79.4357 96.4756C80.1922 95.4856 80.5055 94.3944 79.9258 93.0688C82.2971 93.4439 84.4822 93.0247 86.6706 92.0176C86.7453 95.0576 86.5996 97.9757 86.5156 100.894C86.4144 101.488 86.4376 102.079 86.497 102.655C86.7509 102.721 86.8293 102.572 86.9277 102.457C87.1361 102.078 87.014 101.631 87.1746 101.24C87.2002 101.15 87.2141 101.058 87.222 100.964C87.3009 99.7955 87.1287 98.6194 87.3306 97.4549C87.357 97.3644 87.3728 97.2721 87.3825 97.1787C87.416 95.6852 87.3863 94.1907 87.4016 92.6966C87.4053 92.3587 87.3278 91.9888 87.6736 91.7461C88.6148 91.1942 89.3454 90.485 89.4721 89.327C89.4763 88.9729 89.4777 88.6187 89.4749 88.2641C89.3932 87.4241 88.9495 86.914 88.1089 86.7659C87.9033 86.7409 87.6796 86.7757 87.462 86.5209C87.2735 85.5819 87.5056 84.5437 87.3371 83.5286C87.2967 83.4348 87.2531 83.3439 87.1551 83.2956C87.002 83.2385 86.9259 83.3466 86.8432 83.4413L86.8483 83.4353C86.6934 84.3798 86.8224 85.3322 86.7746 86.2791C86.7597 86.5636 86.8585 86.8616 86.6901 87.1312C84.963 87.7749 83.2249 88.3644 81.372 88.5529C77.1795 88.9798 73.3927 87.8172 69.8611 85.6502C68.1688 84.6119 66.6599 83.342 65.262 81.893C65.0638 80.5906 64.9617 79.2623 64.8828 77.9298C64.8401 77.2076 65.1761 76.8135 65.7813 76.4872C68.1391 75.2155 70.1683 73.546 71.7195 71.3423C73.9719 68.1421 74.9656 64.5172 75.1341 60.6612C75.3225 56.3638 74.3636 52.2237 73.1634 48.1399C70.8455 40.2542 66.9955 33.037 63.3117 25.7496C63.0982 25.3272 62.8884 24.9081 62.2855 25.194C62.0112 25.4795 62.0409 25.8141 62.1049 26.1664C62.8977 30.5223 63.6918 34.8782 64.472 39.2364C64.9278 41.7821 65.3632 44.3321 65.7962 46.8825C65.863 47.277 65.8445 47.6813 65.7526 48.0772C65.5288 49.0398 64.9947 49.4487 64.0149 49.4181C62.6856 48.4225 62.363 46.9484 62.0288 45.4585C60.8026 39.991 59.5541 34.5287 58.3046 29.0658C58.1199 28.2578 57.8535 27.4692 57.4622 26.7359C57.2645 26.365 57.0385 25.9673 56.4834 26.0801C56.0327 26.4128 56.054 26.9104 56.0475 27.3866C56.0136 29.8075 56.5804 32.1565 56.9373 34.5291C57.5922 38.885 58.2958 43.2335 58.9813 47.5847C59.0737 48.1695 59.0635 48.7488 58.9734 49.3354C58.8565 50.0971 58.2777 50.7371 57.5736 50.8694C56.7191 51.0295 56.2536 50.5283 55.9487 49.8701C55.4549 48.8036 55.3481 47.6256 55.1132 46.4889C53.888 40.5578 52.6863 34.622 51.4661 28.6894C51.3695 28.222 51.2196 27.7607 51.0456 27.3156C50.9068 26.9605 50.6831 26.6491 50.2073 26.7354C49.7525 26.9967 49.7924 27.4474 49.7864 27.8684C49.7618 29.6135 50.1224 31.3192 50.3424 33.0379C50.9351 37.6718 51.5747 42.2997 52.1734 46.9331C52.3266 48.1199 52.6835 49.283 52.5512 50.5069C52.4486 51.4565 52.1367 51.9155 51.3654 52.0878C50.5137 52.2776 49.992 51.8492 49.6044 51.1637C49.1746 50.4043 49.0285 49.5592 48.9152 48.7149C48.1109 42.7081 47.0364 36.7482 45.806 30.8161C45.6315 29.9755 45.5308 29.0723 44.8304 28.4824C44.1453 28.4713 44.0358 28.9595 43.9068 29.3805C43.6153 30.331 43.5935 31.3266 43.4844 32.3064C43.2468 34.4298 43.0514 36.5569 43.0383 38.6966C43.037 38.9296 42.9687 39.1872 43.2291 39.3455Z" fill="#5D687B"/>
<path d="M57.8129 90.0982C58.5778 90.0258 59.3404 89.9213 60.1795 89.8229C60.2464 91.0552 60.3271 92.2221 60.3698 93.3903C60.5239 97.6079 60.5963 101.826 60.5671 106.047C60.5253 112.131 60.1211 118.209 60.2923 124.295C60.361 126.725 60.3916 129.158 60.4752 131.588C60.5731 131.553 60.6715 131.518 60.7708 131.486C60.8298 131.455 60.8892 131.426 60.9486 131.396C60.9138 130.446 60.8859 129.495 60.8609 128.544C60.7124 122.935 60.6678 117.328 60.9268 111.724C61.0855 108.282 60.996 104.841 61.0628 101.4C60.9602 98.2878 60.8771 95.1748 60.7476 92.0638C60.6613 89.99 60.5095 87.9191 60.387 85.8467C60.2547 85.7177 60.4037 85.4731 60.1345 85.345C59.8505 85.7 59.4133 85.9762 59.5762 86.5643C60.0714 87.3217 59.8022 88.1391 59.818 88.9866C58.8999 89.382 57.9405 89.3783 57.0169 89.5417C55.9146 89.771 54.7984 89.6313 53.7016 89.5658C52.9971 89.524 52.2786 89.5444 51.5773 89.4205C49.7468 88.9596 47.8805 88.6311 46.146 87.8249C43.2726 86.4886 40.8642 84.5601 38.7565 82.2149C37.7605 81.107 36.9492 79.8487 35.8989 78.7868C35.6603 78.7218 35.3744 78.5412 35.3535 79.0086C37.5178 82.0882 39.9911 84.8674 43.1575 86.9592C47.6308 89.9144 52.5993 90.5897 57.8129 90.0982Z" fill="#5D687B"/>
<path d="M35.3541 79.0087C35.4998 78.7107 35.6952 78.8867 35.879 78.9544C36.5218 78.753 37.0519 78.3367 37.6432 78.0359C37.6873 77.9347 37.6905 77.8405 37.5917 77.7583C37.7378 77.7867 37.8771 77.8015 37.9769 77.6651C37.9467 77.5026 37.9778 77.361 38.0521 77.206C38.622 76.0183 38.5942 75.8638 37.6752 74.936C38.2117 73.7561 38.143 72.4116 38.577 71.1714C38.7589 70.6525 39.011 70.283 39.4723 70.0185C40.026 69.7015 40.5811 69.3835 41.114 69.0336C42.0441 68.4223 42.3806 67.5126 42.1002 66.4604C41.8863 65.6556 41.1437 65.101 40.0808 65.0471C38.7065 64.9775 37.5736 65.4635 36.7423 66.8359C36.3881 65.3739 36.0818 64.0687 35.5485 62.8379C34.9322 61.4144 34.3139 59.9904 33.1118 58.9327C32.088 58.0322 30.8418 57.8944 29.8782 58.5679C29.0883 59.1201 28.8878 59.8586 29.3008 60.7349C29.7362 61.658 30.3516 62.4633 30.9569 63.2788C31.4813 63.9847 32.0086 64.7097 31.8285 65.6816C31.5746 65.735 31.6039 65.521 31.5389 65.3948C30.5512 63.4696 29.0911 62.0437 27.0674 61.2422C26.1977 60.8978 25.2856 60.8644 24.3987 61.1739C23.6509 61.4348 23.1056 61.9309 23.0174 62.7757C22.925 63.6608 23.2541 64.3588 24.0547 64.7705C24.8851 65.1975 25.7446 65.567 26.5806 65.9838C27.3283 66.3565 28.0189 66.8159 28.4682 67.5469C28.7054 67.9322 28.9402 68.3401 28.6334 68.808C28.1512 69.0113 27.7432 68.8043 27.3357 68.5973C26.536 68.1902 25.7033 67.9777 24.7909 68.0301C22.8563 68.1415 21.1302 69.9066 21.6389 72.3298C21.767 72.9411 22.278 73.2929 22.925 73.3793C23.7948 73.4953 24.5528 73.201 25.2736 72.755C26.297 72.1219 27.2702 72.2495 27.9349 73.2154C29.1551 74.9893 30.6603 76.3483 32.8013 76.8853C32.8997 76.9099 32.9856 76.9828 33.0612 77.0241C33.3648 78.6193 33.5481 78.7762 35.3541 79.0087Z" fill="#5D687B"/>
<path d="M88.5154 103.205C88.5729 103.136 88.6384 103.077 88.7094 103.031C88.746 103.007 88.7836 102.989 88.8212 102.973C88.7219 102.632 88.6839 102.274 88.6894 101.888C88.7154 99.9697 88.7205 98.051 88.6824 96.1332C88.6736 95.7024 88.7655 95.0647 87.9468 95.2754C87.6985 95.5706 87.7556 95.9289 87.7542 96.2696C87.7472 98.0533 87.7537 99.8374 87.7481 101.621C87.7472 101.911 87.8011 102.208 87.6697 102.482C87.5244 102.67 87.3476 102.632 87.1656 102.547C87.0585 102.489 86.967 102.404 86.8495 102.363C86.7693 102.424 86.6895 102.486 86.514 102.621C86.514 101.992 86.5669 99.7696 86.5665 99.221C86.4412 100.37 86.3145 101.749 86.3145 102.686C86.979 102.943 87.6307 103.256 88.358 103.202C88.4137 103.198 88.4657 103.2 88.5154 103.205Z" fill="#5D687B"/>
<path d="M86.788 116.121C87.0656 115.964 87.3227 116.092 87.5589 116.214C87.771 116.565 87.726 116.919 87.726 117.262C87.7292 120.666 87.7673 124.07 87.7172 127.473C88.0449 127.424 88.373 127.376 88.7012 127.329C88.7513 123.851 88.6886 120.372 88.6808 116.894C88.6803 116.721 88.7012 116.567 88.7392 116.428C88.7137 116.377 88.6909 116.323 88.6756 116.262C88.5902 115.931 88.5034 115.656 88.4635 115.367C87.9144 115.421 87.3626 115.434 86.8043 115.362C86.7087 115.35 86.6219 115.324 86.5439 115.289C86.5411 115.299 86.5397 115.309 86.5364 115.319C86.516 115.387 86.49 115.454 86.4798 115.526C86.4408 115.665 86.3707 115.785 86.2695 115.887L86.2324 115.916V117.296C86.7987 117.091 86.4659 116.469 86.788 116.121Z" fill="#5D687B"/>
<path d="M86.844 83.4411C86.9661 83.4216 87.1035 83.2824 87.1968 83.4862C87.2469 83.4806 87.297 83.4745 87.3467 83.469C87.4107 83.3882 87.4488 83.2968 87.4627 83.1951C87.5625 78.1918 87.285 73.1889 87.4247 68.1851C87.1931 63.7466 87.2107 59.3006 86.9926 54.8607C86.9025 53.0288 86.8413 51.1913 86.7921 49.3557C86.7791 48.8767 86.812 48.3958 86.7275 47.9206C86.5568 46.201 86.5266 44.473 86.4398 42.7483C86.4221 42.4034 86.4681 42.0548 86.3753 41.7142C86.3386 41.6176 86.2783 41.5392 86.1943 41.4789C86.0536 39.4868 85.9088 37.4952 85.7742 35.5027C85.5997 32.9216 85.4795 30.3355 85.2535 27.7591C84.8218 22.8369 84.4287 17.912 83.8931 12.9982C83.5376 9.7405 83.3552 6.45397 84.0477 3.19808C84.1145 2.88386 84.1576 2.58495 83.6671 2.67639C82.7625 6.54308 83.1324 10.4334 83.5408 14.3066C83.9293 17.9937 84.2672 21.684 84.5679 25.3785C85.6651 38.8607 86.2941 52.366 86.6008 65.8885C86.7011 70.2922 86.7159 74.6959 86.7656 79.0996C86.7819 80.5459 86.586 81.9991 86.844 83.4411Z" fill="#5D687B"/>
<path d="M72.4317 98.812L72.7422 98.3482C71.5368 97.5579 70.6197 97.7848 69.9421 99.0208C69.8428 99.2018 69.8868 99.6251 69.451 99.4311C69.135 99.504 69.1169 99.7091 69.1786 99.9815C69.2231 100.18 69.367 100.377 69.2385 100.596C69.1661 101.367 68.8713 102.073 68.6035 102.788C68.7794 103.898 68.9419 105.011 69.2993 106.083C69.3434 106.215 69.4367 106.31 69.6004 106.236C70.1746 107.213 71.1201 107.878 71.7568 108.802C72.1806 108.785 71.9815 109.43 72.4052 109.413L72.5051 109.093C73.7308 109.737 74.9691 110.197 76.2928 110.433C77.4235 110.635 78.4849 110.453 79.4549 109.89C79.9651 109.595 80.4747 109.47 81.0404 109.454C81.7287 109.434 82.3419 109.205 82.8784 108.769C83.3783 108.362 83.6865 107.795 83.4679 107.217C83.0037 105.992 82.7949 104.551 81.2892 104.01C80.7861 102.12 79.4856 101.225 77.6035 100.986C77.1097 100.924 76.4223 101.044 76.2603 100.276C76.0579 100.502 75.8556 100.727 75.6528 100.952C76.2808 101.54 77.1009 101.586 77.8806 101.725C78.9755 101.921 79.784 102.485 80.366 103.535C78.8632 103.629 77.9298 102.602 76.8628 101.821C76.4576 102.641 76.8786 103.014 77.2935 103.326C78.1169 103.944 79.0655 104.297 80.0713 104.51C80.587 104.62 81.1361 104.632 81.7042 105.047C80.1563 104.952 78.8414 104.548 77.6082 103.839C77.3014 103.663 76.9955 103.367 76.5597 103.649C76.4437 104.216 76.8688 104.45 77.2503 104.661C78.5021 105.355 79.8485 105.77 81.2725 105.931C82.2444 106.04 82.8083 106.622 82.7624 107.466C82.7243 108.16 82.0007 108.667 81.0632 108.659C81.2456 107.159 80.7206 105.962 78.3526 105.697C77.3654 105.586 76.4325 105.372 75.5901 104.757C76.0436 104.08 76.795 103.715 76.86 102.862C76.2195 102.57 76.0037 103.077 75.7052 103.36C75.3544 103.693 75.0067 104.017 74.5296 104.168C74.1313 104.294 73.5813 104.191 73.4542 104.925C75.0666 105.266 76.3146 106.545 78.045 106.576C78.4761 106.584 78.8994 106.648 79.3004 106.804C80.263 107.177 80.4626 108.016 79.7502 108.756C78.911 109.626 77.8351 109.956 76.6776 109.791C73.9629 109.404 71.7397 108.171 70.1932 105.828C69.3164 104.499 69.2 103.126 69.7523 101.549C70.2099 102.086 70.105 102.917 70.8434 103.1C71.3015 102.774 71.1108 102.413 70.9896 102.069C70.7863 101.49 70.5339 100.927 70.5538 100.292C70.5738 99.6711 70.7529 99.1401 71.3349 98.8268C71.7044 98.6727 72.0729 99.0426 72.4317 98.812Z" fill="#5D687B"/>
<path d="M59.6039 86.4904C59.5806 86.0587 60.2235 85.9747 60.0378 85.3398C60.2225 85.6071 60.3056 85.7269 60.3883 85.8466C60.4026 85.6633 60.4175 85.4795 60.4314 85.3059C61.6976 84.2425 62.0438 82.7114 60.0007 80.9797C59.9287 80.5541 59.8591 80.1396 59.7895 79.7256C59.44 79.9916 59.6322 80.3466 59.6405 80.6051C59.6498 80.5467 59.5612 80.4845 59.4841 80.4144C59.1611 80.2677 58.8617 79.9646 58.4366 80.2533C58.346 80.7425 58.6914 80.976 59.0079 81.2039C59.4637 81.532 59.9302 81.8462 60.2861 82.2876C60.6718 82.7662 60.9294 83.2971 60.6588 83.9125C60.3822 84.5419 59.8276 84.7796 59.1755 84.832C59.1221 84.8362 59.0673 84.8441 59.0153 84.8357C56.8436 84.5039 55.0461 83.4702 53.9516 81.5835C53.0308 79.9962 54.0997 78.4196 55.9298 78.362C56.6585 78.3388 57.3639 78.4358 58.0667 78.6215C58.4152 78.7133 58.7782 78.8999 59.1471 78.6623C59.2664 78.3212 59.2205 78.0645 58.8079 77.9944C58.2908 78.1893 57.8606 77.8315 57.3867 77.7544C56.6148 77.6287 55.8346 77.5326 55.0901 77.7285C53.6848 78.0979 52.9616 79.0642 52.9807 80.62C51.3734 81.0967 50.3486 82.024 50.7835 83.9668C49.9448 84.081 49.6663 84.8882 49.0226 85.2442C49.049 85.4414 48.9956 85.6271 48.9395 85.8132C48.9789 87.5685 50.0209 88.6212 51.4514 89.4033C51.4676 89.4121 51.4759 89.4538 51.4718 89.4775C51.4676 89.5002 51.4426 89.5198 51.4267 89.5407C52.1104 89.9379 52.8772 89.6887 53.5961 89.7643C54.7277 89.8841 55.8978 90.0433 57.0395 89.7198C56.6125 89.2956 56.1331 89.6084 55.6661 89.6038C56.2408 89.6084 56.6808 89.3271 57.0423 88.928C57.441 88.4889 57.8828 88.1491 58.4208 87.8702C58.9601 87.5903 59.5407 87.2306 59.6039 86.4904Z" fill="#5D687B"/>
<path d="M59.3995 80.5488L59.7369 80.7567C59.756 80.3873 59.7731 80.0563 59.7903 79.7259C59.7476 77.9023 59.4812 77.5445 57.737 77.1425C51.4397 75.6926 47.7776 71.5581 45.8176 65.6041C44.2075 60.7145 43.5201 55.6866 43.4083 50.5713C43.3391 47.4231 43.4208 44.2721 43.4315 41.1225C43.4324 40.8032 43.4096 40.4839 43.398 40.1646C43.2713 40.1646 43.1446 40.1646 42.9669 40.1646C42.9306 44.8017 42.7236 49.3901 43.0964 53.9758C43.5052 59.0028 44.4117 63.9031 46.497 68.5495C48.6678 73.3867 52.3684 76.2862 57.4488 77.5477C57.9115 77.6624 58.397 77.7199 58.8087 77.9947C59.0342 78.1669 59.1062 78.404 59.095 78.6756C59.0807 78.7916 59.1201 78.896 59.1633 78.9995C59.309 79.4005 59.1976 79.8215 59.2589 80.229C59.277 80.3483 59.3331 80.4504 59.3995 80.5488Z" fill="#5D687B"/>
<path d="M78.5556 128.968C78.7046 128.943 78.854 128.917 79.0035 128.892C78.9877 128.812 78.9724 128.733 78.9863 128.661C77.0086 122.172 74.3088 115.929 72.4077 109.413C72.1241 109.282 72.3562 108.602 71.7598 108.803C72.5149 111.488 73.3847 114.138 74.3227 116.762C75.7722 120.818 77.3447 124.83 78.5556 128.968Z" fill="#5D687B"/>
<path d="M49.0293 85.6867L49.357 85.4495L49.0238 85.2439C44.7421 84.1843 41.5591 81.4686 38.6383 78.358C38.4197 78.1255 38.1988 77.8957 37.9788 77.6646L37.5801 77.6864L37.6479 77.9649C37.6423 78.2564 37.8066 78.4754 37.9862 78.669C40.6248 81.509 43.5182 84.0097 47.2146 85.3863C47.7785 85.5962 48.3568 86.0139 49.0293 85.6867Z" fill="#5D687B"/>
<path d="M83.9316 1.99794C83.9591 2.11908 83.92 2.27317 84.2408 2.36043C84.813 1.04322 85.7422 0.200358 87.3444 0.752211C87.5083 0.422215 87.2604 0.343309 87.0381 0.241206C86.2231 -0.134279 85.2243 0.137235 84.5434 0.972677C84.2946 1.27806 84.1331 1.65402 83.9316 1.99794Z" fill="#5D687B"/>
<path d="M86.6895 87.131C87.0487 86.483 86.7985 85.7836 86.8487 85.1101C86.8895 84.555 86.851 83.9939 86.8477 83.4351C86.6199 84.3425 86.8213 85.2665 86.741 86.1804C86.7136 86.4965 86.7062 86.814 86.6895 87.131Z" fill="#5D687B"/>
<path d="M67.1436 99.1587C67.8417 101.774 68.5778 104.38 69.2308 107.006C71.027 114.232 73.5041 121.242 75.8953 128.28C76.0165 128.636 76.1195 128.997 76.2341 129.356C76.391 129.33 76.5479 129.304 76.7052 129.278C74.9276 123.891 73.0274 118.545 71.3705 113.118C70.678 110.85 70.1646 108.537 69.5998 106.237C69.2057 106.052 69.6578 105.75 69.5056 105.531C68.885 104.929 69.0999 104.144 69.047 103.451C68.9992 103.136 68.6066 103.098 68.6029 102.789C67.8449 99.834 67.0986 96.8756 66.3193 93.926C66.1625 93.3333 66.1815 92.6687 65.741 92.1284C65.2639 92.3795 65.5414 92.7174 65.6027 92.9708C66.103 95.0367 66.627 97.097 67.1436 99.1587Z" fill="#5D687B"/>
<path d="M64.9043 103.368C65.3722 103.658 65.3722 103.658 65.9361 103.54C66.1199 103.134 65.8837 102.911 65.5643 102.709C65.1591 102.707 64.9586 102.922 64.9043 103.368Z" fill="#F3F4F4"/>
<path d="M67.4316 63.3794C68.0604 62.8382 68.68 62.2182 68.9446 61.3331C69.4496 61.2096 70.0265 61.3192 70.5422 60.6327C69.4468 60.8053 68.5367 60.9033 67.613 60.5835C67.6139 61.2356 68.1635 61.0249 68.3951 61.3493C68.221 62.1374 67.6334 62.6693 66.96 63.0991C64.948 64.3815 62.6858 64.9932 60.3827 65.4801C58.7328 65.8291 57.0763 66.1113 55.3887 65.7488C54.4962 65.5571 54.0733 65.2109 53.7271 64.4335C53.8747 64.0227 54.4506 63.8589 54.3681 63.126C53.625 63.6342 53.185 64.3917 52.3105 64.5653C52.6507 65.0665 52.9794 64.6841 53.2978 64.7923C53.7132 65.6063 54.4808 66.0027 55.3687 66.2408C56.1197 68.1029 56.8414 69.9715 57.998 71.6234C58.5689 72.4388 59.2071 73.201 60.146 73.6061C61.9482 74.3836 63.5537 73.8415 64.6774 72.0773C65.5026 70.781 65.9904 69.3342 66.3821 67.8644C66.7665 66.4232 67.0658 64.9593 67.4316 63.3794Z" fill="#5D687B"/>
<path d="M63.3143 49.9233C62.7773 49.2545 62.1322 48.7259 61.3589 48.3448C60.7704 48.0552 60.1903 48.0696 59.5479 48.2942C59.4885 49.0345 59.4954 49.8129 59.0183 50.4473C58.5273 51.0995 57.8283 51.3566 57.0341 51.3928C57.1381 51.5571 57.4194 51.6235 57.2695 52.0189C56.3904 52.1164 56.3648 53.2419 55.5879 53.6063C55.6199 53.6499 55.6543 53.7098 55.6988 53.7144C56.8026 53.8328 57.8863 54.0142 58.7983 54.8102C59.3525 54.25 59.9364 53.8806 60.129 53.1709C59.8653 53.0043 59.9136 52.7759 59.9995 52.5077C60.8502 52.1025 61.9108 51.857 61.8263 50.5852C61.3807 50.1935 61.1148 50.7138 60.6553 50.7244C60.5467 50.1364 60.3499 49.5739 60.9714 49.184C61.3705 49.0921 61.5279 49.4945 61.8528 49.4453C61.8987 49.2137 61.7024 49.1561 61.6755 49.0113C61.7168 49.132 61.8523 49.19 61.8792 49.32C61.8894 49.3682 61.8783 49.4138 61.8528 49.4453C61.8918 49.8751 62.186 50.077 62.5248 50.2552L63.3143 49.9233Z" fill="#F3F4F4"/>
<path d="M60.132 53.1716C59.6818 53.6107 59.2158 54.0354 58.8575 54.6856C57.9204 53.7736 56.8121 53.4984 55.5909 53.607C52.1373 54.4303 51.604 59.0378 53.8328 61.3213C54.0477 61.6555 54.2802 61.7196 54.5397 61.3682C54.573 60.9668 54.2519 60.7607 54.0472 60.4938C52.7049 58.7417 52.9718 56.0516 54.6404 54.8286C55.5904 54.1319 56.632 54.1584 57.6707 54.6165C58.0731 54.7942 58.3636 55.1117 58.41 55.5874C58.4425 55.9174 58.4235 56.2428 58.3269 56.5621C58.3349 57.4936 58.547 58.3885 58.8389 59.2643C58.9382 59.5604 59.0756 59.8584 59.4144 59.9772C59.6743 60.0092 59.8354 59.9029 59.885 59.6407C59.905 59.3335 59.7412 59.0809 59.6298 58.8132C59.3207 58.0682 59.1411 57.3015 59.1661 56.4865C59.2144 54.9168 60.0067 53.8479 61.5234 53.3429C62.6016 52.9841 64.0859 53.5179 64.926 54.5622C65.3669 55.1103 65.6319 55.7457 65.8547 56.4034C66.0255 56.9116 65.9921 57.4217 65.8705 57.9332C65.8186 58.1806 65.7499 58.4251 65.7489 58.6809C65.8817 59.119 66.1059 59.0359 66.3411 58.8252C66.5036 58.5245 66.3175 58.2131 66.4823 57.9536C66.6661 56.5166 66.4103 55.1883 65.4431 54.0693C64.0251 52.429 62.4294 52.1709 60.132 53.1716Z" fill="#5D687B"/>
<path d="M66.4811 57.9526C66.1905 58.1801 66.4537 58.6479 66.0926 58.8484C65.8944 58.9009 65.8995 58.7421 65.8647 58.6256C65.3078 58.7278 65.1513 59.2615 64.852 59.6161C63.6072 61.0921 61.739 61.2308 60.3327 59.9113C60.1693 59.7577 60.063 59.4945 59.7614 59.5609C59.7512 59.7786 59.6523 59.9043 59.4193 59.8904C58.9853 60.4497 58.7561 61.1645 58.0742 61.5372C57.5479 61.8249 57.0759 61.9038 56.4888 61.6499C55.8603 61.3784 55.2142 60.9329 54.4638 61.3366C54.2456 61.6286 54.0405 61.3956 53.8316 61.3204C53.7123 61.8291 52.9261 61.6662 52.8379 62.5183C53.7773 62.0482 54.6364 61.6769 55.593 61.9911C56.492 62.2858 57.2202 62.911 58.0668 63.3677C58.265 62.8441 57.8027 62.7787 57.7577 62.471C58.6809 62.1057 59.3423 61.4341 59.87 60.4789C61.0271 61.4322 62.309 61.785 63.7264 61.3436C64.0379 61.4842 63.5385 61.8421 64.0713 61.9479C65.0841 60.6855 65.6809 58.7166 67.989 58.8716C67.5407 58.356 67.5407 58.356 66.5925 58.5393C66.3571 58.382 66.566 58.1387 66.4811 57.9526Z" fill="#5D687B"/>
<path d="M44.3887 32.9747C44.566 33.2123 44.6927 33.4198 45.0116 33.5066C45.3848 32.7055 45.071 31.9884 44.8189 31.2783C44.5201 31.2082 44.3655 31.3275 44.2207 31.56C44.4096 31.9861 44.3632 32.4692 44.3887 32.9747Z" fill="#F3F4F4"/>
<path d="M69.2386 100.596C69.569 100.558 69.5185 100.368 69.3996 100.168C69.2576 99.9308 69.2214 99.7001 69.3908 99.463C69.5315 99.2392 69.5407 99.055 69.2418 98.9627C68.8696 99.0453 68.9833 98.57 68.7294 98.5166C68.6607 99.268 69.013 99.9169 69.2386 100.596Z" fill="#5D687B"/>
<path d="M86.5136 47.8579C86.632 51.3166 86.7554 54.7753 86.8673 58.2345C86.9754 61.5605 87.071 64.8874 87.1722 68.2134C87.349 68.483 87.253 68.7838 87.2539 69.0674C87.2627 71.9185 87.2586 74.7702 87.2599 77.6849C87.9547 78.0061 88.5934 77.9444 89.2269 77.5545C90.1501 76.9855 90.6077 75.9449 91.5021 75.3345C91.827 75.1127 91.5963 74.6202 91.749 74.1816C92.6796 74.0749 93.4361 73.4298 94.3918 73.2469C94.6378 72.7048 94.7895 72.1251 95.1767 71.7997C95.3581 71.4767 95.0931 71.2502 95.2319 70.9777C95.8714 70.9986 96.4335 71.7695 97.1511 71.2562C97.4467 70.6245 96.7881 70.1692 96.8605 69.4874C97.2894 70.0871 97.5693 70.6821 97.9624 71.2C98.1517 71.4488 98.2836 71.7747 98.6878 71.7259C105.21 65.9024 108.132 58.7761 106.501 50.0235C105.654 45.4787 104.108 41.1238 102.8 36.7047C102.696 36.3506 102.553 36.0081 102.427 35.66C102.049 35.9078 102.154 36.5349 101.647 36.6142C101.479 37.5597 101.944 38.5362 101.248 39.3447C100.96 39.6283 100.96 39.6283 100.899 40.0423C101 40.3106 101.272 40.3036 101.493 40.4104C100.925 40.4076 100.476 40.6703 100.027 40.959C98.6553 41.8408 97.5707 41.7341 96.3444 40.6174C96.1291 40.4211 95.9364 40.1909 95.6259 40.1324C95.3303 40.1342 95.1492 40.3403 94.9492 40.513C93.5531 41.7151 91.9894 41.7471 90.5349 40.5868C89.7899 39.9917 88.967 39.5866 88.029 39.452C88.3632 39.3132 88.6769 39.4459 88.9949 39.4877C89.1592 39.4951 89.3133 39.4756 89.4729 39.2663C89.3309 38.5631 88.9369 37.911 88.5892 37.2399C88.2462 36.7911 87.6015 37.0747 87.2427 36.7113C87.1309 36.4314 87.253 36.2819 87.5946 36.1032C87.7347 36.0174 87.9687 36.5697 88.2495 36.2118C88.3622 35.8187 88.4189 35.4405 87.9872 35.188C87.8174 35.2413 87.6674 35.4005 87.4479 35.2766C87.3346 34.9689 87.777 34.9721 87.7733 34.8241V32.8849C87.1444 32.6635 86.3966 32.8548 85.9868 32.1938C85.6053 32.5243 85.7807 32.8868 85.7534 33.2038C86.4347 33.8689 86.6519 34.7173 86.2277 35.5913C86.2825 35.9296 86.6547 36.1367 86.6459 36.4699C86.5795 36.8022 86.2319 36.7382 86.0927 36.9609C86.0049 37.75 85.9729 38.5404 86.58 39.219C86.0184 39.9254 86.3001 40.7288 86.1943 41.4779C86.1692 41.5183 86.1702 41.5582 86.1971 41.5967C86.2941 41.6691 86.3043 41.774 86.2954 41.8803C86.1692 43.4379 86.599 44.977 86.4528 46.5332C86.4036 47.0568 86.6974 47.3877 87.0362 47.6889C87.5718 48.1656 88.0749 48.6747 88.5836 49.1788C88.1994 48.7987 87.8248 48.4079 87.4182 48.0519C87.1615 47.8268 86.8905 47.5687 86.5136 47.8579Z" fill="#F3F4F4"/>
<path d="M87.9867 35.188C88.2453 35.5264 88.1102 35.9325 88.1794 36.3033C88.0582 36.6876 88.1566 36.9865 88.521 37.1819C88.8106 37.2163 88.9006 37.0255 88.9573 36.7967C88.8668 35.6057 88.5855 34.4324 88.6718 33.2219C88.7521 32.0876 88.9661 30.9987 89.5634 30.019C90.3877 28.6669 91.8163 28.4256 93.0295 29.4564C93.9021 30.1976 94.4716 31.1677 94.8494 32.2375C95.3321 33.6034 95.6036 35.0135 95.6171 36.4685C95.6204 36.8092 95.5656 37.1685 95.812 37.465C96.4627 37.5829 96.3045 36.9981 96.479 36.7015C96.5658 36.3465 96.4488 35.945 96.6888 35.6651C97.0039 35.3384 97.4477 35.4753 97.754 35.2455C97.9573 34.8135 97.6417 34.7526 97.3474 34.6895C97.0642 34.6292 96.7635 34.7285 96.4539 34.6074C96.2135 33.9659 96.0975 33.2818 95.9699 32.6121C95.8287 31.8685 96.7677 31.2489 97.6634 31.4773C98.6609 31.7316 99.267 32.4816 99.7771 33.3055C100.39 34.2964 100.57 35.4386 100.828 36.5512C100.9 36.7725 100.883 37.0088 100.942 37.2293C101.005 37.4678 101.047 37.7746 101.433 37.5894C101.512 35.4331 101.025 33.4503 99.5455 31.8147C98.3002 30.439 96.8958 30.3698 95.4138 31.5854C95.1205 31.0888 94.8643 30.5741 94.5338 30.1127C93.7007 28.9487 92.7348 27.9382 91.1326 28.1192C89.5741 28.2956 88.9637 29.4935 88.4407 30.7667C87.8517 32.1994 87.9719 33.6972 87.9867 35.188Z" fill="#5D687B"/>
<path d="M88.8077 36.7615C88.7548 36.9355 88.7042 37.1119 88.4694 37.1086C88.4174 37.1342 88.3941 37.1666 88.3997 37.2061C88.4053 37.2497 88.4155 37.2711 88.4294 37.2711L89.3772 39.297C89.2408 39.4191 89.0848 39.3448 88.9349 39.3341C88.4568 39.2979 87.9709 39.142 87.5137 39.4265C87.5713 39.6966 87.7694 39.7342 88.0006 39.7263C88.8253 39.6999 89.4914 40.1 90.1217 40.5548C92.3722 42.1793 93.6556 42.0976 95.5223 40.2439C95.8412 40.5247 96.1522 40.8138 96.4789 41.0839C97.3905 41.8368 98.7416 41.9816 99.7821 41.3578C100.453 40.9554 101.084 40.5223 101.915 40.5817C102.015 40.5892 102.104 40.4889 102.063 40.2749C101.823 39.9227 101.351 40.2926 101.014 40.0758C100.987 39.8043 101.113 39.5741 101.246 39.3457C101.273 38.7568 101.535 38.1928 101.432 37.5904C100.782 37.4173 101.347 36.7554 100.98 36.4686C100.658 36.7652 100.756 37.1606 100.756 37.5198C100.755 38.2778 100.608 39.0023 100.303 39.6897C99.9079 40.5789 99.117 41.0853 98.2338 41.0477C97.3501 41.0101 96.5587 40.4114 96.1745 39.4274C97.1152 39.769 98.037 39.9589 98.7504 39.1304C99.4262 38.3446 99.2939 37.414 99.1667 36.5749C98.8529 36.3182 98.6756 36.4073 98.5086 36.5693C98.3062 36.8821 98.3614 37.2372 98.3517 37.5793C98.3378 38.0954 98.1827 38.534 97.6736 38.7424C97.3213 38.8863 96.9927 38.7637 96.7082 38.5303C96.2668 38.1682 96.3898 37.731 96.5485 37.2901C96.5666 37.24 96.5792 37.188 96.5936 37.1355C96.6279 36.9708 96.6237 36.8107 96.5341 36.6617C96.471 36.5893 96.3981 36.5781 96.3165 36.6278C96.0505 36.8357 96.4032 37.4201 95.824 37.4372C95.5567 37.6637 95.5312 37.9923 95.4661 38.301C95.384 38.6927 95.2828 39.0789 95.1134 39.4414C94.2752 41.2315 92.064 41.5448 90.7659 40.0601C90.0924 39.2896 89.6148 38.4082 89.2547 37.4539C89.1586 37.1996 89.1748 36.8497 88.8077 36.7615Z" fill="#5D687B"/>
<path d="M90.2484 22.2705C89.2899 23.1046 88.8124 24.419 89.1814 25.4289C90.0042 24.5086 90.5213 23.1793 92.0984 23.493C91.7596 22.5537 91.172 22.1949 90.2484 22.2705Z" fill="#5D687B"/>
<path d="M94.9355 24.1155C96.5545 24.0723 97.0311 25.4708 97.9835 26.3132C98.1232 25.3807 97.0882 23.5135 96.3414 23.2903C95.7278 23.1069 95.2795 23.358 94.9355 24.1155Z" fill="#5D687B"/>
<path d="M87.015 102.685C87.1918 102.832 87.4007 102.873 87.6234 102.869C88.1094 102.798 87.8806 102.414 87.8829 102.185C87.9029 100.146 87.8899 98.1072 87.9001 96.0678C87.9015 95.8181 87.7882 95.5377 88.0143 95.3173C88.1428 95.3326 88.2719 95.3484 88.426 95.3669V103.168C89.338 104.216 90.1159 105.334 89.5654 106.849C91.3709 108.237 92.6528 110.159 94.417 111.593C95.1099 112.156 95.5253 112.954 96.0233 113.689C95.16 112.568 93.8034 111.956 93.0056 110.72C92.4138 109.804 91.4043 109.174 90.6566 108.336C90.5215 108.184 90.2087 108.032 90.1957 108.494C90.4877 109.696 90.5085 110.581 89.7274 111.699C89.843 112.105 89.9636 112.527 90.0843 112.951C90.1771 113.214 90.1804 113.477 90.082 113.741C90.037 114.134 89.945 114.512 89.7307 114.853C89.8458 115.552 89.6879 116.12 89.131 116.632C88.6905 117.037 88.7133 118.752 89.052 119.229C89.2233 119.471 89.473 119.56 89.7464 119.567C91.1082 119.604 92.4704 119.613 93.8322 119.563C94.6356 119.533 94.7938 118.817 95.0872 118.337C95.6131 118.088 96.0768 118.11 96.5265 118.265C96.901 118.585 96.9001 118.993 96.837 119.391C96.7465 119.96 96.8927 120.444 97.2435 120.886C97.5852 121.316 97.7151 121.833 97.8632 122.349C98.2224 123.601 98.526 124.862 98.7882 126.131C99.0314 126.114 99.2751 126.1 99.5188 126.087C99.2124 124.491 98.8722 122.905 98.5538 121.313C98.305 120.069 98.0085 118.821 97.6538 117.594C97.4993 117.061 97.3206 116.53 97.3206 115.891C97.6993 115.995 97.7908 116.279 97.8659 116.537C98.7492 119.559 99.9875 122.461 100.872 125.482C100.924 125.661 100.975 125.841 101.024 126.021C101.272 126.014 101.521 126.007 101.769 126.002C101.487 124.805 101.165 123.618 100.673 122.481C100.564 122.23 100.587 121.957 100.504 121.704C100.524 121.665 100.518 121.631 100.484 121.602C100.089 121.076 99.807 120.51 99.8469 119.828C99.8497 119.656 99.8993 119.472 99.7267 119.343C99.3131 119.002 99.4032 118.463 99.2152 118.033C99.2351 117.988 99.2268 117.947 99.1911 117.913C98.9084 117.52 98.8425 117.052 98.7311 116.6C98.726 116.435 98.7664 116.258 98.603 116.137C98.2359 115.729 97.9077 115.291 97.5438 114.853C98.0507 113.848 97.3484 113.074 97.1076 112.214C97.0268 111.924 96.7655 111.653 97.0115 111.328C96.9493 110.883 96.8583 110.448 96.6151 110.06C96.364 109.786 96.0772 109.524 96.3023 109.096C96.0628 107.88 95.6052 106.729 95.2589 105.544C94.8909 105.431 95.1485 105.107 95.0445 104.905C94.6022 103.011 94.1566 101.118 93.7189 99.2239C93.4056 97.8677 93.103 96.5092 92.7958 95.1516C92.5716 94.8522 92.8222 94.4744 92.6333 94.169C92.6835 93.8343 92.5892 93.5257 92.4611 93.2236C92.2667 92.9228 92.495 92.5566 92.3117 92.254L92.3149 92.261C92.0842 91.8382 92.3405 91.3601 92.1631 90.9312C92.1928 90.8955 92.1924 90.8602 92.1617 90.8249C91.913 90.2359 92.1887 89.6015 92.0026 89.0069L91.9914 88.7377C91.8712 87.5607 91.8053 86.3836 91.9988 85.2071C92.0295 85.1718 92.0309 85.1351 92.003 85.098C92.1854 84.6158 91.9158 84.0848 92.1631 83.6095L92.1566 83.6197C92.3214 83.3686 92.1112 83.0479 92.3089 82.8034L92.3238 82.5341C92.579 82.0677 92.0234 81.4364 92.6273 81.0405C93.0877 79.7113 93.5045 78.3662 94.0995 77.0871C93.8122 76.8095 93.6697 76.7659 93.3574 77.113C92.8074 77.7234 92.1005 78.1726 91.6336 78.8415C90.748 79.2156 90.748 79.2156 90.3591 80.2677C88.9954 80.8897 88.3438 82.3336 87.3167 83.4239C87.1904 84.5438 87.2883 85.6633 87.2582 86.7299C87.5576 87.0037 87.895 86.7842 88.1373 86.9722C88.8729 87.0928 89.1811 87.602 89.3138 88.2694C89.3426 88.638 89.3937 89.0069 89.2851 89.3722C89.0651 90.3288 88.5438 91.0551 87.6588 91.5044C87.3246 91.7834 87.2429 92.1403 87.2498 92.5678C87.2721 93.8692 87.2642 95.1715 87.2522 96.473C87.2498 96.7273 87.3533 97.0044 87.1566 97.2379C87.1268 97.2764 87.1278 97.3135 87.1598 97.3502C87.0275 98.3963 87.1111 99.4457 87.1171 100.493C87.118 100.706 87.1658 100.911 86.9978 101.083C86.9672 101.12 86.9672 101.157 86.9982 101.194C86.9134 101.692 86.8794 102.189 87.015 102.685Z" fill="#F3F4F4"/>
<path d="M87.3096 83.4304C87.9975 83.3873 88.2467 82.7667 88.4658 82.3272C88.9411 81.3725 89.8619 80.9835 90.6453 80.2358C90.7428 79.741 90.7526 78.9984 91.6377 79.1646C91.9756 78.9882 91.9472 78.6679 92.139 78.4117C92.539 78.3329 92.7971 78.0275 93.0728 77.6826C93.309 77.3874 93.4984 76.8262 94.0985 77.0866C95.25 74.9772 96.9009 73.2942 98.6855 71.7259C98.0761 71.1226 97.651 70.3957 97.2611 69.641C97.1261 69.3792 97.0727 68.9926 96.5695 69.0669C96.2925 69.8541 97.0606 70.4092 97.0852 71.1453C96.4749 71.44 96.0511 71.0483 95.613 70.7893C95.2282 70.5614 94.9303 70.5294 94.7362 70.9392C94.7218 71.2845 95.1187 71.2882 95.1201 71.6391L94.4536 72.2225L94.3305 73.0673C94.0224 73.264 93.7128 73.1313 93.3591 73.2348L92.6722 73.801L91.7073 73.8512C91.0617 74.2364 91.6409 74.7776 91.4079 75.2802C90.3827 75.439 90.1812 76.5645 89.4316 77.1516C88.7837 77.6585 88.1734 77.7406 87.4591 77.6116C87.2678 77.309 87.344 77.0082 87.3431 76.7228C87.3352 74.1626 87.3398 71.602 87.33 69.0414C87.3291 68.7615 87.4372 68.4473 87.1699 68.2134C87.201 71.6503 87.2423 75.0867 87.2576 78.5236C87.2637 79.8445 87.2173 81.1664 87.182 82.4873C87.1732 82.8122 87.2177 83.1227 87.3096 83.4304Z" fill="#F3F4F4"/>
<path d="M92.6232 89.8579C92.5661 90.5309 92.729 91.1802 92.8107 91.8212C99.9681 97.0993 109.136 97.4809 117.554 93.1333C117.72 92.5647 117.905 91.9321 118.09 91.2995C117.185 91.3116 116.509 91.8982 115.759 92.27C113.068 93.604 110.21 94.4319 107.243 94.5503C104.81 94.6469 102.356 94.3238 99.9983 93.5487C99.1916 93.2837 98.3599 93.0948 97.5802 92.7485C96.1696 92.1957 94.8482 91.4582 93.493 90.789C93.0526 90.5713 93.1277 89.9596 92.6232 89.8579Z" fill="#F3F4F4"/>
<path d="M87.9309 127.441C87.9805 123.599 87.9866 119.754 87.935 115.905C87.4203 115.82 86.9813 115.748 86.5097 115.67C86.2284 116.194 86.5083 116.797 86.234 117.295C86.1161 120.78 85.9416 124.262 85.8887 127.748C86.5691 127.643 87.2495 127.541 87.9309 127.441Z" fill="#F3F4F4"/>
<path d="M92.6245 89.8579C92.8951 90.0333 92.7049 90.368 92.9448 90.6687C94.3256 91.4884 95.8461 92.2645 97.4371 92.9012C98.3339 93.0066 99.1549 93.3956 100.024 93.6146C101.364 93.9525 102.712 94.2166 104.068 94.4542C104.205 94.4784 104.331 94.4691 104.506 94.3479C104.779 93.7065 104.295 93.3928 103.848 93.0618C101.056 92.613 98.3469 91.8806 95.7946 90.6399C94.7484 90.1313 93.725 89.5762 92.69 89.0415C92.5146 89.3371 92.5837 89.5985 92.6245 89.8579Z" fill="#F3F4F4"/>
<path d="M101.564 126.008C101.651 126.006 101.739 126.002 101.826 126.001C101.893 126 101.961 126 102.028 125.999C101.564 124.553 101.065 123.119 100.505 121.705C100.334 122.296 100.64 122.819 100.842 123.309C101.202 124.183 101.394 125.093 101.564 126.008Z" fill="#F3F4F4"/>
<path d="M117.512 89.8677C117.339 89.9768 117.167 90.0854 116.996 90.1939C116.812 90.3416 116.764 90.5903 116.585 90.7417C116.306 90.9315 115.982 90.6099 115.704 90.8173L114.43 91.4546C114.041 92.1851 113.393 92.3717 112.619 92.3768C112.309 92.3786 111.984 92.2566 111.677 92.4135C110.474 92.7254 109.27 93.0382 108.017 93.0725C107.021 93.2684 106.009 93.0507 104.988 93.1867C104.671 93.616 104.888 93.9177 105.235 94.186C105.897 94.6979 106.694 94.7963 107.447 94.6362C109.39 94.2236 111.436 94.1836 113.246 93.2781C114.532 92.6353 115.922 92.2324 117.16 91.4917C117.554 91.2559 117.801 90.9264 117.895 90.4929C117.961 90.1884 117.943 89.889 117.512 89.8677Z" fill="#F3F4F4"/>
<path d="M117.51 89.8685C118.16 90.3949 117.442 90.7411 117.377 91.1839C115.441 92.0263 113.618 93.0892 111.604 93.6336C109.96 94.0782 108.272 94.4305 106.553 94.5001C105.779 94.5312 105.115 93.99 105.026 93.2748C105.896 93.2001 106.761 93.1759 107.624 93.291C107.854 93.3221 107.984 93.3286 108.015 93.0733C106.626 93.0701 105.236 93.0664 103.847 93.0627C103.934 93.5017 104.471 93.718 104.455 94.2049C104.086 94.5173 103.755 94.2332 103.447 94.1743C101.613 93.8248 99.759 93.5435 98.0027 92.8678C97.8003 92.7903 97.6119 92.67 97.4355 92.9021C100.097 93.9306 102.826 94.5479 105.7 94.6983C109.715 94.9081 113.336 93.7617 116.817 91.9474C117.24 91.7274 117.728 91.6369 118.09 91.3004C118.329 90.5907 118.568 89.8815 118.855 89.0308C118.241 89.2638 117.839 89.5065 117.51 89.8685Z" fill="#F3F4F4"/>
<path d="M97.0106 111.328C96.6156 111.366 96.6026 111.577 96.7447 111.883C96.9233 112.267 97.0644 112.671 97.2556 113.049C97.5536 113.638 97.8743 114.213 97.187 114.782C97.6947 115.295 97.9574 115.904 98.6021 116.137C98.0716 114.534 97.5411 112.931 97.0106 111.328Z" fill="#F3F4F4"/>
<path d="M111.678 92.4135C112.492 92.6181 113.301 92.6901 114.112 92.3076C114.327 92.0789 114.448 91.7938 114.43 91.4546C113.513 91.7744 112.595 92.0937 111.678 92.4135Z" fill="#F3F4F4"/>
<path d="M115.705 90.8172L116.573 91.104C116.887 90.8571 117 90.5526 116.996 90.1938C116.507 90.2797 116.108 90.5535 115.705 90.8172Z" fill="#F3F4F4"/>
<path d="M91.9978 85.2065C91.9064 85.2952 91.724 85.4006 91.737 85.4693C91.9268 86.4918 91.7439 87.5263 91.8568 88.5488C91.8637 88.6156 91.944 88.6745 91.9904 88.7372C91.9927 87.5602 91.9955 86.3836 91.9978 85.2065Z" fill="#F3F4F4"/>
<path d="M92.6283 81.0405C92.4161 81.0447 92.1957 81.0271 92.0332 81.3153C92.2133 81.6685 92.3712 82.0806 92.3247 82.5341C92.4259 82.0361 92.5271 81.5386 92.6283 81.0405Z" fill="#F3F4F4"/>
<path d="M96.3038 109.097C95.6433 109.666 96.1455 109.858 96.6166 110.06C96.573 109.719 96.4862 109.392 96.3038 109.097Z" fill="#F3F4F4"/>
<path d="M92.0037 89.0063C92.0431 89.6134 91.8069 90.2446 92.1624 90.8244C92.161 90.2141 92.1777 89.6018 92.0037 89.0063Z" fill="#F3F4F4"/>
<path d="M92.1614 83.6099C91.8087 84.0735 92.0421 84.6003 92.0013 85.0979C92.1837 84.6161 92.1582 84.1116 92.1614 83.6099Z" fill="#F3F4F4"/>
<path d="M92.1613 90.9312C92.1952 91.3763 91.978 91.8502 92.3131 92.2609C92.3131 91.8116 92.3414 91.3596 92.1613 90.9312Z" fill="#F3F4F4"/>
<path d="M95.0449 104.905L94.8848 105.297C94.9401 105.549 95.0941 105.556 95.2594 105.544C95.1925 105.329 95.2296 105.08 95.0449 104.905Z" fill="#F3F4F4"/>
<path d="M92.3107 92.2544C92.3423 92.5806 92.177 92.9367 92.4602 93.224C92.4509 92.8944 92.4885 92.5579 92.3107 92.2544Z" fill="#F3F4F4"/>
<path d="M92.6322 94.1694C92.6661 94.5004 92.4887 94.8661 92.7946 95.152C92.7761 94.8188 92.8137 94.4758 92.6322 94.1694Z" fill="#F3F4F4"/>
<path d="M92.3088 82.8032C92.0355 83.0339 92.1691 83.3402 92.1566 83.6196C92.2949 83.3639 92.2986 83.0831 92.3088 82.8032Z" fill="#F3F4F4"/>
<path d="M72.4309 98.8123C71.0144 98.3133 70.3294 98.8304 70.3539 100.359C70.3642 100.99 70.5772 101.559 70.7963 102.133C70.8961 102.394 71.0966 102.647 70.936 102.989C70.4639 102.887 70.4389 102.471 70.3043 102.151C70.1623 101.814 70.0518 101.463 69.8861 101.002C69.117 102.153 69.0177 103.311 69.35 104.488C70.2723 107.758 74.7126 110.517 78.0446 109.915C78.8481 109.77 79.5684 109.417 80.0785 108.749C80.6879 107.951 80.4498 107.045 79.5141 106.661C79.1507 106.512 78.745 106.414 78.3538 106.395C76.9423 106.326 75.7175 105.808 74.6082 104.952C74.2861 104.85 73.9232 105.077 73.5082 104.788C73.9909 104.292 74.733 104.493 75.2065 104.085C75.6803 103.678 76.0299 103.127 76.7817 102.696C76.5524 103.757 75.7602 104.103 75.1675 104.713C75.9969 105.446 76.9864 105.738 78.0395 105.885C78.4614 105.944 78.8935 105.963 79.302 106.072C80.6373 106.426 81.1218 107.422 80.6865 108.849C81.7387 109.087 82.8828 108.49 83.0072 107.637C83.1612 106.583 82.4261 105.812 81.184 105.699C79.7828 105.571 78.4754 105.13 77.2607 104.431C77.0078 104.285 76.6606 104.173 76.6197 103.518C78.3761 104.61 80.1425 105.291 82.1494 105.284C81.8719 104.688 81.3474 104.536 80.7937 104.442C79.548 104.23 78.3338 103.933 77.3257 103.112C77.0314 102.872 76.7042 102.619 76.817 101.917C77.8952 103.188 79.1539 103.769 80.7403 103.901C80.376 102.675 79.586 101.967 78.4916 101.665C77.5531 101.405 76.5831 101.255 75.652 100.952C75.2905 101.339 74.9386 101.734 74.5636 102.106C74.3251 102.343 74.1339 102.57 74.3835 102.927C73.4706 103.224 72.7911 102.942 72.3298 102.245C71.8239 101.482 71.5417 100.644 71.919 99.7062C72.0504 99.3794 72.4672 99.2262 72.4309 98.8123Z" fill="#F3F4F4"/>
<path d="M75.8214 94.2075C76.1017 94.0752 76.2865 93.7647 76.7831 93.7294C76.5955 94.5077 75.866 94.7356 75.5187 95.2536C75.1493 95.805 74.6787 96.2877 74.2934 96.8298C73.892 97.3942 73.5351 97.9906 73.1675 98.5782C72.8147 99.1421 72.4731 99.713 72.1385 100.261C72.2443 101.646 72.4346 102.005 73.323 102.535C74.0493 101.837 74.8003 101.163 75.4946 100.437C76.804 99.0669 77.9931 97.5919 79.1386 96.0839C80.2144 94.6683 79.9466 93.469 78.4173 92.5858C75.4051 90.8462 72.1259 89.6812 68.9926 88.2025C67.9826 87.7258 66.9685 87.258 65.9892 86.8013C65.1607 87.3425 65.0716 87.8558 65.5172 89.2222C65.6527 89.3949 65.8128 89.516 66.0398 89.5601C69.3936 90.2099 72.2545 91.884 74.9702 93.8603C75.2222 94.0431 75.4519 94.3026 75.8214 94.2075Z" fill="#F3F4F4"/>
<path d="M88.7882 88.7386C88.7863 87.7788 88.3468 87.3364 87.4292 87.445C87.011 87.4943 86.59 87.6177 86.1983 87.7769C80.4881 90.0929 75.0777 89.2881 69.8849 86.2216C68.3487 85.3142 66.9558 84.2073 65.4863 82.8511C65.5175 84.1381 65.8669 85.1596 66.0563 86.2202C69.6009 88.0637 73.2945 89.5313 76.9031 91.1827C78.4621 91.5169 80.0304 91.7341 81.634 91.6918C83.7871 91.6348 85.7699 91.0541 87.5814 89.8878C88.0576 89.5814 88.4345 89.1726 88.7882 88.7386Z" fill="#F3F4F4"/>
<path d="M56.6279 26.5483C56.4125 27.8015 56.5364 28.9567 56.7146 30.1022C57.6192 35.9215 58.5396 41.7385 59.4925 47.7973C60.1191 46.837 60.8658 46.5595 61.9839 47.2297C60.3289 40.5276 59.1174 33.9889 57.3157 27.5866C57.2131 27.2218 57.0549 26.8505 56.6279 26.5483Z" fill="#F3F4F4"/>
<path d="M50.166 27.3705C50.8738 34.4207 52.0179 41.4171 52.8729 48.5731C53.5022 48.1447 54.0457 47.7604 54.9058 47.8736C53.4094 40.9594 52.2012 34.0889 50.6315 27.2944L50.166 27.3705Z" fill="#F3F4F4"/>
<path d="M88.7893 88.7378C88.0913 88.8761 87.7752 89.5398 87.2006 89.88C84.7175 91.3495 82.071 91.7008 79.2607 91.3351C78.578 91.2465 77.8971 91.1773 77.2283 91.0107C77.082 90.9745 76.9744 91.0524 76.9043 91.1819C80.4976 93.614 84.0427 92.9781 87.532 90.9628C88.3364 90.4982 88.904 89.7802 88.7893 88.7378Z" fill="#F3F4F4"/>
<path d="M75.8218 94.2074C74.2191 93.0392 72.5947 91.9137 70.8036 91.0351C69.1128 90.2061 67.3885 89.5104 65.5176 89.2222C65.7297 90.0794 66.3219 90.5501 67.1175 90.8406C69.9385 91.871 72.7103 93.0054 75.1757 94.7751C75.4741 94.6674 75.6445 94.4339 75.8218 94.2074Z" fill="#F3F4F4"/>
<path d="M87.1543 97.2379C87.4174 97.0429 87.3279 96.7575 87.3297 96.5045C87.3386 95.34 87.3497 94.1755 87.3283 93.0114C87.3181 92.4749 87.3617 91.9667 87.6565 91.5044C87.3441 91.5893 87.1589 91.7462 87.1612 92.1175C87.1715 93.8241 87.1589 95.5312 87.1543 97.2379Z" fill="#F3F4F4"/>
<path d="M88.139 86.9725C87.9673 86.7111 87.6298 86.894 87.3189 86.6072C87.3189 85.614 87.3189 84.5177 87.3189 83.4214C87.2739 83.4344 87.233 83.4562 87.1973 83.4864C87.1973 84.6142 87.1973 85.742 87.1973 86.8281C87.564 87.0165 87.855 86.965 88.139 86.9725Z" fill="#F3F4F4"/>
<path d="M86.998 101.083C87.1512 101.018 87.3206 100.911 87.2849 100.745C87.0431 99.6193 87.2663 98.4794 87.1605 97.3506C86.9725 98.5884 87.0343 99.8379 86.998 101.083Z" fill="#F3F4F4"/>
<path d="M87.0135 102.686C87.0079 102.189 87.0023 101.692 86.9967 101.195C86.8046 101.566 86.9406 101.979 86.8496 102.363C86.8946 102.476 86.8571 102.63 87.0135 102.686Z" fill="#F3F4F4"/>
<path d="M89.2871 89.3728C89.5071 89.0103 89.4774 88.6418 89.3159 88.27C89.3066 88.6376 89.2968 89.0052 89.2871 89.3728Z" fill="#F3F4F4"/>
<path d="M49.0293 85.6871C46.1145 85.1176 43.7131 83.5651 41.4635 81.7267C40.0748 80.5923 38.8318 79.3085 37.6478 77.9653C36.9507 78.1018 36.4011 78.5023 35.8809 78.9543C37.7128 81.4129 39.6891 83.7308 42.1225 85.6332C44.8753 87.785 48.0035 89.007 51.4279 89.5408L51.9399 89.4554C51.214 89.1774 50.7545 88.7944 50.3024 88.392C49.4846 87.6643 49.1917 86.7114 49.0293 85.6871Z" fill="#F3F4F4"/>
<path d="M59.6042 86.4901C59.0277 87.1478 58.5237 87.903 57.5453 87.9512C57.1155 88.7941 56.4541 89.2944 55.6191 89.7191C56.0926 89.7191 56.5665 89.7191 57.0399 89.7191C58.0433 89.6388 59.0389 89.5061 60.0535 89.2916C60.1839 88.4432 60.0442 87.6259 60.0391 86.8099C60.0373 86.5031 59.8339 86.4818 59.6042 86.4901Z" fill="#F3F4F4"/>
<path d="M36.6601 69.943C35.0087 69.9676 33.6887 70.2726 33.4984 72.2062C32.9948 71.8232 33.1526 71.4236 33.2626 71.076C33.5383 70.2071 34.4123 69.7114 36.0943 69.425C36.5194 67.0459 35.8891 64.8366 34.9637 62.6826C34.4359 61.4545 33.8604 60.2478 32.8384 59.3283C32.022 58.5941 31.1336 58.4223 30.3474 58.847C29.5927 59.2545 29.3829 59.7952 29.744 60.5787C30.1135 61.3802 30.6217 62.1001 31.1763 62.7879C32.0248 63.8406 32.6513 64.9606 32.2211 66.3892C32.119 66.727 32.132 66.7312 31.7686 67.0761C31.4985 67.0143 31.4961 66.766 31.4432 66.5734C30.8672 64.4816 29.4479 63.0873 27.6564 62.0142C26.8538 61.5334 25.9646 61.3607 25.0335 61.5019C24.2988 61.6128 23.6945 61.9381 23.5228 62.7248C23.3413 63.5551 23.7456 64.1051 24.4775 64.4579C25.4141 64.9095 26.3702 65.3268 27.2758 65.8336C28.1223 66.3074 28.8631 66.9266 29.1685 67.9138C29.485 68.9373 28.9192 69.5763 27.881 69.3216C27.4475 69.2153 27.0479 68.973 26.6292 68.8008C24.5996 67.9649 22.5718 68.8918 22.0501 70.8862C21.8853 71.5155 21.8983 72.1263 22.3856 72.5965C22.8925 73.0857 23.5279 72.9478 24.122 72.7743C24.4246 72.686 24.7379 72.5501 24.9811 72.3542C26.089 71.4626 27.5765 71.8265 28.3906 73.0091C28.8608 73.6927 29.3792 74.3407 30.0128 74.8795C30.9392 75.6677 31.9524 76.2873 33.2083 76.3954C33.3578 76.4084 33.4998 76.5091 33.6432 76.5685C33.7188 77.0814 33.7917 77.5734 33.8655 78.0756C34.3612 78.5114 34.9121 78.5244 35.5127 78.3629C36.3988 78.1243 37.1209 77.6411 37.6584 76.9134C37.9652 76.498 38.1727 76.0204 37.5679 75.5799C36.9719 76.0069 36.6624 76.8168 35.8065 76.873C35.6348 76.6827 35.626 76.5128 35.8752 76.3717C37.0411 75.7126 37.4092 74.6224 37.5275 73.3767C37.7132 71.4171 38.2706 69.71 40.356 68.9103C41.1051 68.623 41.7381 68.1004 41.6857 67.1132C41.636 66.1748 41.1733 65.635 40.2274 65.5226C38.4154 65.3073 36.7761 66.7215 36.6633 68.6096C36.6382 69.0301 36.6601 69.4534 36.6601 69.943Z" fill="#F3F4F4"/>
<path d="M88.4357 127.366C90.14 127.118 91.8466 126.883 93.5575 126.661C95.3833 126.423 97.2153 126.231 99.0528 126.114C99.043 126.065 99.0352 126.014 99.0254 125.965C98.7418 124.486 98.286 123.042 97.9194 121.579C97.7639 120.96 97.1712 120.613 96.9758 119.985C97.1002 119.318 97.3383 118.603 96.7279 117.958C96.1107 117.922 95.4785 117.8 94.8334 118.087C94.7173 118.43 94.5999 118.776 94.4444 119.235H89.2665C88.7319 117.76 88.8716 117.152 89.9836 116.108C90.1814 115.633 90.0305 115.228 89.7311 114.852C89.3663 115.202 88.9941 115.543 88.4436 115.764C88.4436 116.444 88.4497 117.135 88.4422 117.826C88.4079 121.006 88.471 124.186 88.4357 127.366Z" fill="#F3F4F4"/>
<path d="M90.1967 108.495C90.3048 108.328 90.4515 108.274 90.5787 108.444C91.189 109.259 92.1809 109.8 92.6612 110.601C93.4832 111.972 95.0144 112.571 95.7904 113.918C95.9705 114.231 96.2908 114.286 96.7558 114.157C95.757 113.196 95.2149 111.969 94.1479 111.089C92.9875 110.132 92.0296 108.93 90.9709 107.848C90.5661 107.433 90.1345 107.041 89.5664 106.85C89.4879 106.982 89.4095 107.115 89.3496 107.217C89.6485 107.668 89.9228 108.081 90.1967 108.495Z" fill="#F3F4F4"/>
<path d="M88.0139 95.3179C87.6913 95.5221 87.8221 95.8479 87.8207 96.1213C87.8096 98.098 87.8185 100.074 87.8105 102.051C87.8096 102.332 87.9103 102.648 87.623 102.869C88.2631 103.045 87.9446 102.518 87.947 102.353C87.9739 100.513 87.9614 98.6736 87.9679 96.8337C87.9693 96.3283 87.998 95.8233 88.0139 95.3179Z" fill="#F3F4F4"/>
<path d="M90.084 113.741C90.2929 113.478 90.2919 113.214 90.0863 112.951C90.0854 113.214 90.0849 113.477 90.084 113.741Z" fill="#F3F4F4"/>
<path d="M86.5133 47.8588C87.1673 47.8644 87.5358 48.3624 87.9573 48.737C88.246 48.9932 88.4455 49.3501 88.6846 49.662L88.9315 49.4262C88.1457 48.5768 87.3604 47.728 86.5575 46.86C86.556 46.1921 86.4321 45.5034 86.705 44.835C86.2511 44.175 86.4215 43.4403 86.3704 42.7334C86.343 42.3533 86.5319 41.9328 86.1973 41.5981C86.2107 43.6895 86.3319 45.7758 86.5133 47.8588Z" fill="#F3F4F4"/>
<path d="M59.3976 80.5482L59.4138 80.2758C59.2194 79.8065 59.5378 79.2742 59.2338 78.8183C59.1869 78.7706 59.14 78.7228 59.0931 78.675C58.1096 78.4591 57.154 78.1087 56.125 78.1138C55.1401 78.1185 54.236 78.3176 53.7602 79.2727C53.2576 80.2822 53.3026 81.3586 54.048 82.1982C55.3731 83.6908 56.9331 84.8837 59.0351 85.0368C59.8297 85.0949 60.5356 84.821 60.8652 84.0334C61.2068 83.2174 60.8953 82.5203 60.2836 81.9508C59.9736 81.6621 59.6185 81.4226 59.2913 81.152C58.9971 80.9084 58.597 80.7672 58.4429 80.3319C58.8689 80.0641 59.0811 80.5352 59.3976 80.5482Z" fill="#F3F4F4"/>
<path d="M59.212 85.6552C56.4592 85.0801 54.2555 83.846 52.9495 81.27C51.4679 81.4339 50.7653 82.6578 51.3547 84.1416C51.5431 84.615 51.8077 85.0504 52.1915 85.3883C53.6396 86.6642 55.349 87.3372 57.2631 87.4351C58.3473 87.4903 59.0649 86.7802 59.212 85.6552Z" fill="#F3F4F4"/>
<path d="M56.8413 87.9475C54.4863 87.4443 52.2 86.7547 50.8953 84.4595C49.735 84.9366 49.3595 85.7641 49.7754 86.8345C50.673 89.1463 54.5972 90.1753 56.4965 88.5908C56.6729 88.4436 56.8928 88.2979 56.8413 87.9475Z" fill="#F3F4F4"/>
<path d="M59.2324 78.8188C59.3424 79.2983 59.1999 79.8093 59.4125 80.2762C59.3907 79.7857 59.6293 79.263 59.2324 78.8188Z" fill="#5D687B"/>
<path d="M64.7051 71.086L64.8457 70.6112C64.3584 69.9948 63.7494 70.2956 63.1781 70.406C62.8806 70.4636 62.6118 70.71 62.2823 70.5378C62.3802 69.6193 63.5689 68.627 64.7264 68.5151C65.2003 68.4692 65.6296 68.4144 65.8306 67.9067C66.3263 66.7046 66.511 65.4393 66.6883 64.1332C65.9517 63.9801 65.6482 64.3816 65.3827 64.8499C65.2175 64.9673 65.1613 65.1497 65.127 65.3312C64.8912 66.582 64.0553 67.2676 62.9038 67.5743C61.6994 67.8955 60.4768 68.1406 59.2158 68.1735C58.2457 68.1986 57.5101 67.8663 57.0065 67.0313C56.8974 66.8503 56.7842 66.6642 56.5568 66.6029L56.1353 66.4474C56.1205 67.0624 56.3943 67.5177 56.6032 67.9744C57.2738 69.4401 57.9301 70.9207 59.018 72.1442C59.2914 72.4515 59.5114 72.8562 60.0062 72.8738C60.4341 72.7508 60.4861 72.2751 60.7947 72.0332C61.0612 71.8244 61.2802 71.5487 61.6576 71.532C61.9221 71.7905 61.542 72.1915 61.943 72.4412C62.5413 72.4055 62.6815 71.7367 63.108 71.4266C63.619 71.0558 64.188 71.2535 64.7051 71.086Z" fill="#780101"/>
<path d="M64.891 64.7124C62.6957 65.4471 60.4734 66.0667 58.1606 66.3067C57.8107 66.4677 57.4208 66.2886 57.0695 66.4242C57.0421 67.267 57.5294 67.9172 58.4697 68.0407C60.336 68.2853 62.1485 67.9432 63.8324 67.1407C64.9003 66.632 65.2647 65.5989 64.891 64.7124Z" fill="#F3F4F4"/>
<path d="M64.7043 71.0857C63.3378 70.4875 62.6834 71.4515 62.0049 72.4071C61.699 71.9703 62.1274 71.7207 62.1195 71.4079C61.2743 71.1178 60.6115 71.5777 60.0059 72.8736C61.2483 73.9397 62.9405 73.6292 64.029 72.1523C64.2782 71.8144 64.4806 71.4422 64.7043 71.0857Z" fill="#F7514B"/>
<path d="M65.8259 67.9067C65.4834 68.1453 65.1543 68.2808 64.6869 68.2998C63.7025 68.3402 62.467 69.2031 61.8887 70.4785C61.9833 70.7723 62.2474 70.8242 62.5282 70.9078C63.2458 70.4966 64.0056 70.2353 64.841 70.6112C65.3483 69.7749 65.6185 68.8522 65.8259 67.9067Z" fill="#3E0102"/>
<path d="M64.8925 64.7127C64.8906 66.0963 64.4014 66.7958 63.1306 67.2339C61.7805 67.6989 60.3894 67.9073 58.9637 67.8879C57.9848 67.8748 57.5067 67.5245 57.1201 66.5335C57.4338 66.307 57.8613 66.5767 58.1626 66.307C57.6186 66.3609 57.0022 66.016 56.5566 66.6027C57.063 67.9199 58.0052 68.4611 59.4227 68.3659C60.6791 68.2819 61.9062 68.0897 63.1093 67.7449C64.5528 67.3309 65.3422 66.3771 65.3826 64.8492C65.2898 64.5493 65.1515 64.4143 64.8925 64.7127Z" fill="#5D687B"/>
<path d="M61.9984 49.4242C61.9028 49.0408 61.5918 48.8357 61.1699 48.4175C61.3737 49.0167 61.7009 49.2083 61.9984 49.4242Z" fill="#F3F4F4"/>
<path d="M61.3491 51.0884C60.9954 51.1989 60.9472 51.4175 60.7012 51.7516C61.1068 51.5841 61.2521 51.4472 61.3491 51.0884Z" fill="#F3F4F4"/>
<path d="M59.7634 59.5613C60.8769 60.9942 62.5097 61.4629 63.9908 60.7078C64.8629 60.2631 65.32 59.392 65.8668 58.6261C66.1226 58.4502 65.909 58.1638 66.0241 57.955C66.1253 57.4208 66.1578 56.8879 66.007 56.3565C65.3915 54.2456 64.0757 53.0514 62.3436 53.0319C60.6295 53.0129 59.1657 54.3325 58.9819 56.0363C58.8454 57.3043 59.1745 58.459 59.7634 59.5613Z" fill="white"/>
<path d="M54.4634 61.3369C55.3773 61.3893 56.2266 61.6525 56.9859 62.1199C58.3514 61.8948 59.3154 61.0023 59.4189 59.8907C58.7445 58.8543 58.5705 57.6823 58.4916 56.4839C58.642 56.1822 58.4814 55.8453 58.5983 55.5394C58.4559 54.7866 57.6687 54.1066 56.7594 54.0681C54.8997 53.9888 53.659 54.8297 53.1661 56.645C52.6751 58.4528 53.1889 60.0058 54.4634 61.3369Z" fill="white"/>
<path d="M66.0059 56.3569C66.0114 56.8897 66.0174 57.4226 66.023 57.9554C66.2593 57.4198 66.2598 56.887 66.0059 56.3569Z" fill="#5D687B"/>
<path d="M58.5973 55.5405C58.4214 55.8399 58.4298 56.1602 58.4906 56.4855C58.7083 56.1913 58.6149 55.8617 58.5973 55.5405Z" fill="#5D687B"/>
<path d="M98.8032 45.6836C98.8533 46.436 99.4641 46.8671 99.7106 47.4928C97.4113 49.2973 92.8006 47.7272 91.1789 44.5446C91.481 44.5339 91.6337 44.9999 91.9512 44.7776C91.6945 43.9264 90.1568 42.8477 89.1891 42.8338C88.4809 42.8236 88.13 43.0649 87.916 43.7143C88.2093 43.9375 88.337 43.6293 88.5166 43.5175C89.1539 43.1197 89.6774 43.226 90.0924 43.8303C90.7965 44.856 91.242 45.9741 91.5005 47.1971C91.9674 49.4059 92.0385 51.644 92.1289 53.8839C92.1926 55.4657 92.4367 57.0149 92.9806 58.508C93.2215 59.1685 93.552 59.7774 94.1178 60.2202C94.8757 60.8134 95.8574 60.786 96.7958 60.1603C97.2897 59.8308 97.6958 59.4038 98.0713 58.9531C98.7758 58.108 99.5992 57.4693 100.72 57.2938C100.861 57.2716 100.96 57.189 100.976 56.9142C100.203 56.6849 99.6033 57.195 98.8686 57.4795C98.2894 54.5741 97.8248 51.6983 97.7886 48.7148C98.7071 48.4628 99.6335 48.3166 100.497 47.7518C99.9696 46.9868 99.5662 46.2002 98.8032 45.6836Z" fill="#5D687B"/>
<path d="M92.7787 61.0386C92.5146 62.0397 92.9904 63.1035 93.7371 63.4743C94.4287 63.8178 95.247 63.686 95.6522 63.1081C94.9963 62.9917 94.3182 63.3904 93.7297 62.8938C93.1909 62.4398 93.2535 61.693 92.7787 61.0386Z" fill="#5D687B"/>
<path d="M88.4278 37.2707L88.4677 37.1083L88.1762 36.3039C87.9344 36.2339 87.926 35.8867 87.5116 35.8579C87.2256 35.8913 87.0242 36.18 86.8613 36.5133C87.0683 37.4536 87.9715 36.8948 88.4278 37.2707Z" fill="#F3F4F4"/>
<path d="M87.5137 39.4261C87.9732 39.1769 88.4629 39.3913 88.9349 39.3338C88.4476 39.156 87.9616 38.9949 87.5137 39.4261Z" fill="#F3F4F4"/>
<path d="M88.8099 36.7606C89.1942 37.9488 89.6936 39.0701 90.4886 40.0578C91.209 40.9517 92.1289 41.3244 93.2238 41.1662C94.3126 41.0093 95.0065 40.3033 95.4121 39.2948C95.6526 38.6965 95.686 38.0555 95.8261 37.4364C95.8967 35.6049 95.679 33.8152 95.0399 32.0882C94.6538 31.0448 94.0792 30.1216 93.2632 29.3609C91.913 28.1022 90.3016 28.3143 89.3687 29.9142C88.2097 31.9025 88.2617 34.0417 88.6994 36.2111C88.7365 36.3944 88.7732 36.5773 88.8099 36.7606Z" fill="white"/>
<path d="M98.5773 36.645C98.6859 36.5782 98.7629 36.4431 98.9254 36.4956C99.3013 37.5 99.0901 38.6371 98.42 39.1903C97.7892 39.7115 97.0661 39.6535 96.0533 38.9847L95.8403 39.5482C96.9264 41.2404 98.4956 41.7816 99.7312 40.8292C100.716 40.0703 100.904 38.9081 100.981 37.7441C101.009 37.3208 100.983 36.8938 100.981 36.4682C100.758 34.9741 100.395 33.5367 99.3854 32.3439C98.1707 30.9088 96.7769 30.8192 95.6426 32.1568C95.7832 33.0684 96.148 33.9679 96.2088 35.0377C96.6372 34.8488 97.0429 34.7801 97.4527 34.8614C97.6184 34.8943 97.8672 34.8743 97.7558 35.1807C97.2373 35.331 97.1988 35.726 97.2494 36.1683C97.3209 36.536 97.5386 36.7546 97.9094 36.8181C98.1554 36.852 98.3796 36.7986 98.5773 36.645Z" fill="white"/>
<path d="M97.3996 36.1275C97.3959 35.7668 97.4126 35.4136 97.7523 35.1802C97.278 35.2804 96.7289 35.0818 96.3145 35.5919V36.6269C96.3599 36.626 96.4054 36.6199 96.45 36.6097C96.7549 36.4259 96.9865 36.0978 97.3996 36.1275Z" fill="#92A5E8"/>
<path d="M97.4037 36.1279C96.7178 35.5607 96.6621 36.2356 96.4541 36.6101L96.4509 37.1439C96.4045 37.9338 96.8064 38.4968 97.4223 38.5047C98.0113 38.5126 98.4527 37.8939 98.3984 37.1898C98.3729 36.8584 98.2271 36.7057 97.9115 36.6858C97.6391 36.5934 97.4692 36.4082 97.4037 36.1279Z" fill="#06060A"/>
<path d="M97.9105 36.6859C98.5858 37.0669 98.3208 37.5598 98.0098 37.9827C97.6538 38.4668 97.2222 38.4185 96.8188 37.9864C96.5951 37.7464 96.4596 37.4744 96.4499 37.144C96.2336 37.4916 96.163 37.8717 96.1802 38.276C96.5868 38.8538 97.1131 39.2107 97.8074 38.9564C98.4777 38.7109 98.5867 38.0796 98.5867 37.4396C98.5872 37.1746 98.5807 36.91 98.577 36.645C98.3551 36.6585 98.1328 36.6724 97.9105 36.6859Z" fill="#92A5E8"/>
<path d="M99.0909 124.924C99.1809 125.315 99.2575 125.706 99.329 126.098C99.976 126.06 100.623 126.033 101.271 126.015C100.886 124.539 100.383 123.095 99.8553 121.664C99.2668 120.07 98.7261 118.463 98.222 116.842C98.0382 116.25 97.9315 115.581 97.0417 115.406C96.967 116.209 97.2469 116.89 97.4144 117.586C98.0006 120.026 98.5256 122.481 99.0909 124.924Z" fill="#F3F4F4"/>
<path d="M92.9824 74.871C93.2799 75.1852 93.4614 75.4888 93.8346 75.5849C94.2384 75.4479 94.4704 75.1467 94.6282 74.7494C94.5507 74.3679 94.3776 74.0212 93.9464 74.0077C93.4057 73.9915 93.2242 74.4505 92.9824 74.871Z" fill="#F3F4F4"/>
<path d="M91.5594 76.2622C91.26 76.6813 91.3092 77.0192 91.4698 77.3901C91.9572 77.6077 92.2598 77.5252 92.3053 76.8805L91.5594 76.2622Z" fill="#F3F4F4"/>
<path d="M88.7561 79.2003C89.2769 78.7487 89.1637 78.376 88.6113 78.0679C88.7352 78.4359 88.849 78.8035 88.7561 79.2003Z" fill="#F3F4F4"/>
<path d="M62.6486 55.7189C62.8083 55.6678 63.0366 55.8061 63.1225 55.5489C62.2323 54.7933 60.9411 55.0714 60.3173 56.1505C59.7543 57.1242 60.0244 58.7195 60.8775 59.4583C61.5969 60.0812 62.4885 60.1778 63.2409 59.7136C63.9793 59.2583 64.4945 58.059 64.3023 57.2806C64.2304 56.9906 64.1102 57.0082 63.9296 57.1771C63.6855 57.5081 63.6929 57.9351 63.5096 58.2864C63.2167 58.8476 62.8463 59.3414 62.1265 59.2992C61.4632 59.2602 60.9072 58.6563 60.7893 57.9128C60.5661 56.5046 61.0553 55.9277 62.6486 55.7189Z" fill="#5D687B"/>
<path d="M62.6493 55.7185C61.7182 55.421 60.8225 55.8619 60.5737 56.7396C60.2511 57.8804 60.8127 59.1206 61.8045 59.4576C62.6395 59.7412 63.4647 59.2204 63.7613 58.1928C63.856 57.8651 63.876 57.5161 63.9303 57.1768C63.7599 57.2873 63.5901 57.3977 63.4197 57.5077C63.3033 57.6265 63.2642 57.7834 63.2081 57.9319C63.0252 58.4123 62.6906 58.6848 62.1652 58.5929C61.721 58.5149 61.4634 58.2007 61.4346 57.7588C61.4008 57.239 61.5525 56.8055 62.1531 56.696C62.2051 56.6862 62.2557 56.6737 62.303 56.6468C62.2696 56.282 62.4246 55.9872 62.6493 55.7185Z" fill="#91AAED"/>
<path d="M62.3017 56.6467C62.155 56.4217 61.9494 56.4156 61.7605 56.5535C61.288 56.8983 61.0768 57.3773 61.2239 57.9477C61.3604 58.4787 61.702 58.8504 62.2924 58.85C62.9115 58.8495 63.2666 58.4866 63.4067 57.9045C63.4369 57.7788 63.4156 57.6404 63.4183 57.5077C62.8363 57.4928 62.3796 57.3151 62.3017 56.6467Z" fill="#05060B"/>
<path d="M58.3917 58.5892C58.4015 57.3095 57.4922 56.2295 56.4057 56.23C55.1827 56.2309 54.3738 57.0687 54.3538 58.3557C54.3343 59.6117 55.2728 60.7024 56.37 60.6996C57.5442 60.6968 58.382 59.8219 58.3917 58.5892Z" fill="#5D687B"/>
<path d="M92.6498 51.0595C92.4474 51.1825 92.4855 51.3723 92.5106 51.5589C92.5472 51.9753 92.8656 52.121 93.1891 52.2533C94.6275 52.8423 95.1283 54.1075 95.5924 55.5069C94.944 55.6024 94.3954 55.6206 93.8677 55.2933C93.5247 55.0803 93.1562 54.9081 92.7691 55.2237L92.7918 55.5811C93.573 56.0522 94.1745 56.6412 94.2483 57.6275C94.2678 57.8869 94.4056 58.1398 94.7746 58.176C95.3153 57.7203 94.9645 57.1114 94.9849 56.5093C95.5873 56.6017 95.8004 57.0635 96.0718 57.4585C96.5063 58.0906 96.4487 58.8829 96.7569 59.5555C97.4429 59.1535 97.7418 58.3835 98.4617 57.8576C97.8175 54.8631 97.4355 51.8133 97.2433 48.8215C96.8604 48.6595 96.8261 48.8349 96.775 48.9871C96.5884 49.4801 96.7769 49.9804 96.7481 50.4789C96.691 51.4647 96.3643 51.7882 95.3673 51.8086C94.789 51.8202 94.277 51.6295 93.7632 51.3978C93.41 51.2391 93.0889 50.9467 92.6498 51.0595Z" fill="#790102"/>
<path d="M96.1459 48.6697C94.4731 48.3828 93.0965 47.5362 91.8262 46.2432L92.4945 50.4018C93.3638 51.4438 94.4889 51.8517 95.8205 51.7283C96.1598 51.6967 96.4183 51.5139 96.5743 51.2024C96.901 50.5517 96.6801 49.2475 96.1459 48.6697Z" fill="#F3F4F4"/>
<path d="M96.7522 59.5554C96.8223 58.4146 96.5085 57.406 95.7028 56.5752C95.4137 56.2772 95.0841 56.0744 94.5982 56.2912C94.7648 56.8578 94.9973 57.4255 94.7114 58.2572C94.2733 57.0774 94.2528 55.7435 92.7871 55.5806C92.9082 56.7502 93.1575 57.8957 93.6639 58.9544C94.3035 60.292 95.5956 60.5185 96.7522 59.5554Z" fill="#F9544B"/>
<path d="M92.7687 55.2229C93.3893 55.1073 93.8307 55.4689 94.3269 55.8374C94.7566 55.5817 95.2175 55.8732 95.6816 55.8374C95.9968 55.4675 95.6854 55.1834 95.5846 54.8748C95.1339 53.4959 94.3853 52.3922 92.9256 51.9127C92.7655 51.8598 92.6471 51.6792 92.5098 51.5581C92.5784 52.7811 92.5325 54.0119 92.7687 55.2229Z" fill="#3E0101"/>
<path d="M96.1439 48.6698C96.4182 49.3177 96.563 49.9884 96.5059 50.6958C96.4595 51.2671 96.1666 51.5442 95.5795 51.5748C94.3704 51.6379 93.4598 50.9529 92.4925 50.402C92.4215 50.6498 92.5055 50.8615 92.6475 51.0596C93.5354 51.5224 94.3922 52.0603 95.4523 52.0501C96.4478 52.0403 96.9607 51.5567 96.9858 50.5482C96.9992 50.0176 96.9579 49.4918 96.7727 48.9873C96.6154 48.7775 96.4427 48.5983 96.1439 48.6698Z" fill="#5D687B"/>
<path d="M91.9507 34.6819L92.0301 33.9611L92.4641 33.6061C91.9535 32.9744 91.2165 32.8699 90.5918 33.3406C89.1418 34.4336 89.4495 37.5373 91.0865 38.3277C91.8106 38.6772 92.3272 38.5881 92.9008 38.0153C93.6624 37.2551 93.8741 36.0864 93.4355 35.0667C93.2322 35.1985 93.054 35.3855 92.7802 35.3596C92.5272 35.613 92.6187 35.9643 92.5249 36.2632C92.2691 37.0782 91.5214 37.2602 90.9306 36.6489C90.1351 35.826 90.3226 34.836 91.3571 34.351C91.6439 34.3148 91.6625 34.7334 91.9507 34.6819Z" fill="#93ABEF"/>
<path d="M93.4404 35.0665C93.3852 35.7989 93.5829 36.5429 93.232 37.2633C92.6245 38.5122 91.4716 38.6942 90.58 37.6281C89.8188 36.7184 89.6698 35.6499 89.9966 34.5508C90.3799 33.2601 91.2098 32.9737 92.469 33.6059C92.5924 33.5715 92.7377 33.5725 92.7851 33.4142C91.6192 32.2413 89.9942 32.7124 89.5185 34.445C89.1486 35.7947 89.3598 37.1027 90.4166 38.1465C91.4655 39.182 92.851 38.9754 93.5537 37.6861C94.0382 36.7963 94.0856 35.875 93.7175 34.8474L93.4404 35.0665Z" fill="#5D687B"/>
<path d="M91.9561 34.6825L91.7518 34.1204C90.8639 34.0707 90.3376 34.5261 90.2657 35.3884C90.1919 36.2721 90.8171 37.2171 91.5355 37.2556C92.2415 37.2932 92.6068 36.8481 92.7622 36.2294C92.8314 35.9551 92.7813 35.6506 92.7855 35.3601C92.3946 35.2742 92.0238 35.1642 91.9561 34.6825Z" fill="#020205"/>
<path d="M57.3709 56.9576C56.7879 56.7557 56.2031 56.577 55.5208 56.8852C54.9175 57.521 54.633 58.2952 55.0404 59.2267C55.3714 59.9841 56.0268 60.3712 56.7782 60.1587C57.4892 59.9577 57.8842 59.4444 57.8759 58.679C57.8726 58.3862 57.8336 58.0942 57.8104 57.8018C57.4911 57.8069 57.4387 58.1109 57.2688 58.2845C57.2326 58.3555 57.2029 58.4302 57.1876 58.5082C57.1115 58.8944 56.9657 59.2271 56.5289 59.3121C56.2407 59.3678 55.9952 59.2689 55.8356 59.0257C55.5877 58.6475 55.61 58.2766 55.9214 57.9387C56.114 57.7238 56.392 57.9141 56.6009 57.7897C56.7327 57.3971 57.0943 57.2165 57.3709 56.9576Z" fill="#92AAEA"/>
<path d="M57.3679 56.9575C57.1493 57.048 56.8796 56.9134 56.6856 57.1125C56.467 57.2973 56.6151 57.5739 56.5153 57.7883C56.4865 58.4724 56.8439 58.5096 57.3549 58.2891C57.6617 58.2715 57.6496 57.9573 57.8074 57.8018C57.8074 57.6217 57.8074 57.4416 57.8074 57.2745C57.7026 57.0907 57.5471 57.0076 57.3679 56.9575Z" fill="#F3F4F4"/>
<path d="M57.3559 58.2897C56.9674 58.305 56.604 58.2791 56.5163 57.7894C56.4481 57.6854 56.3798 57.5824 56.2981 57.4585C55.6038 57.7003 55.3049 58.1561 55.4961 58.8639C55.6447 59.412 56.0786 59.6408 56.598 59.5388C57.2533 59.4097 57.4975 58.946 57.3559 58.2897Z" fill="#07080D"/>
<path d="M83.9324 1.99763L83.666 2.67619L83.8182 3.09902L84.0758 3.04286C84.0758 3.04286 84.1269 2.6075 84.2415 2.36012V1.69873L83.9324 1.99763Z" fill="#5D687B"/>
<path d="M43.5101 38.9045L43.3945 40.1641L43.6424 43.2075C43.6424 43.2075 45.1513 50.9705 45.1889 51.0875C45.2265 51.2045 50.0488 56.5991 50.1653 56.5801C50.2813 56.561 51.5261 53.7888 51.5261 53.7131C51.5261 53.6379 49.6589 52.5825 49.6589 52.5825C49.6589 52.5825 48.7348 51.7327 48.565 51.2991C48.3951 50.8652 47.4496 46.9043 47.4603 46.7725C47.471 46.6402 46.8867 44.754 46.5469 42.5284C46.2077 40.3029 46.0754 38.0208 45.9245 37.3041C45.7737 36.5871 45.7546 35.2481 45.6604 34.9088C45.5662 34.569 45.3963 34.0408 44.9624 33.7958C44.5288 33.5507 44.301 33.211 44.217 34.0599C44.1325 34.9088 44.1139 34.7955 44.0763 35.8138C44.0383 36.8326 43.8689 37.5812 43.7932 37.9331C43.7176 38.2849 43.5101 38.9045 43.5101 38.9045Z" fill="#F3F4F4"/>
<path d="M43.0321 38.8129L42.9629 40.2655L43.2842 41.0341L43.4171 40.6665L43.5235 38.752L43.2748 38.5728L43.0321 38.8129Z" fill="#5D687B"/>
<path d="M78.5437 128.968C78.7149 128.94 78.8862 128.91 79.0574 128.881L78.7794 128.007H78.4759L78.3789 128.39L78.4039 128.474L78.5437 128.968Z" fill="#5D687B"/>
<path d="M87.6567 1.19476C87.6567 1.19476 87.6052 0.995184 87.3425 0.752441C87.3425 0.752441 85.3156 2.21678 85.2924 2.21678C85.2692 2.21678 84.4018 2.46184 84.4018 2.46184L84.2388 2.82016L84.2129 5.54555L84.0527 8.24309C84.0527 8.24309 84.4301 12.3641 84.4486 12.4017C84.4677 12.4393 85.2205 14.4198 85.2205 14.4198C85.2205 14.4198 87.3912 13.505 87.4098 13.3258C87.4288 13.1467 89.6358 4.45159 89.5128 4.17822C89.3902 3.90485 88.9661 3.10328 88.8904 3.02762C88.8152 2.95244 87.9853 1.61341 87.938 1.60367C87.8911 1.59439 87.6567 1.19476 87.6567 1.19476Z" fill="#F3F4F4"/>
<path d="M87.7387 0.649935L87.2268 0.331543L86.959 0.395594L86.0762 0.607703C86.0762 0.607703 87.1131 0.727913 87.9225 1.40183C88.7319 2.07529 87.7387 0.649935 87.7387 0.649935Z" fill="#5D687B"/>
<path d="M86.3102 102.685L85.7656 117.224L86.3719 116.137L86.9271 102.201L86.845 100.907L86.3102 102.685Z" fill="#5D687B"/>
<path d="M86.2266 117.295L86.9928 100.442L88.0812 94.6602L89.0997 94.7217L91.778 102.322L91.3819 115.147L86.2266 117.295Z" fill="#F3F4F4"/>
<path d="M92.9789 79.9961C92.9789 79.9961 91.2332 83.8298 92.0715 90.9682C92.0715 90.9682 93.0527 99.8387 95.2466 106.238C95.2466 106.238 99.4233 120.804 100.813 122.956L101.067 122.201L99.8323 118.759L97.6286 111.724L95.8602 106.622L94.88 103.019L93.4193 96.4839C93.4193 96.4839 92.7157 92.5045 92.6999 92.4478C92.6837 92.3912 92.4001 89.3358 92.3723 89.2792C92.3444 89.2226 92.382 84.5827 92.401 84.4791C92.4196 84.3752 92.7403 82.508 92.7779 82.2815C92.8159 82.0554 93.2212 80.1692 93.2401 80.1033C93.2592 80.0374 92.9789 79.9961 92.9789 79.9961Z" fill="#5D687B"/>
<path d="M120.393 99.2781C120.564 99.3556 120.731 99.441 120.881 99.5557C121.242 99.8327 121.474 100.251 121.745 100.608C122.642 101.793 124.243 102.398 125.699 102.101C127.155 101.804 128.392 100.621 128.753 99.1797C128.815 98.9342 128.855 98.6766 128.988 98.4612C129.091 98.2951 129.243 98.1656 129.391 98.0366C130.537 97.0373 131.655 95.7001 131.485 94.1889C131.465 94.0158 131.429 93.8403 131.459 93.6686C131.503 93.417 131.682 93.2137 131.843 93.0156C132.876 91.7462 133.43 89.9462 132.786 88.4411C132.392 87.517 131.585 86.8041 130.665 86.4003C129.745 85.9965 128.718 85.8814 127.714 85.9329C127.01 85.9691 126.163 86.0229 125.756 85.4478C126.21 84.6083 126.667 83.7607 126.929 82.8431C127.191 81.9256 127.246 80.9198 126.897 80.031C126.607 79.2902 126.048 78.6697 125.376 78.2431C124.67 77.7934 123.806 77.5488 122.982 77.702C122.159 77.8556 121.399 78.4534 121.18 79.2619C120.971 80.0301 121.251 80.8386 121.264 81.6346C121.311 84.4676 118.086 86.4917 117.955 89.322C117.924 89.9797 118.068 90.6406 117.99 91.2941C117.934 91.7698 117.763 92.2233 117.639 92.686C117.44 93.4319 117.367 94.2103 117.418 94.9798C117.489 96.0412 117.879 97.0962 118.544 97.9293C118.881 98.3526 119.292 98.7184 119.764 98.9853C119.965 99.0989 120.182 99.183 120.393 99.2781Z" fill="#5D687B"/>
<path d="M125.503 85.9929C125.092 86.3071 125.421 86.8446 124.901 87.0349C124.523 86.3856 124.87 85.8578 125.175 85.3589C125.744 84.426 126.221 83.4583 126.531 82.4079C127.088 80.5184 125.811 78.4522 123.871 78.1203C122.675 77.9156 121.619 78.7654 121.597 79.9866C121.589 80.4089 121.691 80.8322 121.725 81.2569C121.868 83.0643 121.004 84.5188 119.982 85.8657C119.204 86.8919 118.576 87.9887 118.467 89.2418C118.345 90.6291 118.355 92.0856 119.841 92.9294C119.93 92.9795 120.004 93.0645 120.069 93.1452C120.096 93.1786 120.082 93.2445 120.085 93.2956C119.601 93.3824 119.601 93.3824 118.317 92.2954C117.122 95.2751 118.324 98.2985 121.037 98.9163C121.114 97.7114 121.411 96.5984 122.647 96.0075C122.32 94.4727 122.801 93.3123 124.264 92.5706C124.139 91.9803 124.094 91.3764 124.147 90.7688C124.245 89.6322 124.918 88.8079 126.026 88.5665C126.543 88.4537 127.083 88.4231 127.615 88.4055C128.12 88.3883 128.556 88.0848 129.099 88.0388C129.158 88.541 128.792 88.6246 128.525 88.69C128.009 88.8163 127.477 88.9128 126.949 88.9392C126.047 88.9838 125.195 89.1704 124.824 90.0699C124.42 91.0468 124.46 92.0591 125.101 92.967C125.888 94.0795 126.991 94.4935 128.311 94.3106C129.954 94.0823 131.276 93.3624 132.082 91.8183C133.447 89.2024 131.964 86.7281 128.807 86.4227C128.356 86.379 127.898 86.3796 127.446 86.4064C126.747 86.4478 126.064 86.4612 125.503 85.9929Z" fill="#F3F4F4"/>
<path d="M130.957 93.9437C128.573 95.0455 126.337 95.4892 124.538 93.0674C123.125 93.6174 122.589 95.0033 123.375 96.2267C124.728 98.3325 128.061 99.1531 129.98 96.9661C130.603 96.2555 131.086 94.8775 130.957 93.9437Z" fill="#F3F4F4"/>
<path d="M128.241 98.6358C125.987 98.995 124.228 98.2329 122.902 96.4971C121.717 97.0229 121.285 98.2872 121.731 99.785C122.119 101.092 123.958 101.94 125.67 101.603C127.132 101.316 128.324 99.9748 128.241 98.6358Z" fill="#F3F4F4"/>
<path d="M157.386 138.011C154.68 139.41 151.822 139.907 148.818 139.408C148.168 139.301 147.993 139.489 147.885 140.092C147.001 144.992 146.085 149.886 145.179 154.783C145.141 154.989 145.079 155.194 145.062 155.402C145.027 155.861 144.835 155.952 144.373 155.871C140.988 155.28 137.602 154.69 134.205 154.163C126.738 153.005 119.24 152.111 111.711 151.462C95.5557 150.073 79.3867 149.799 63.1968 150.694C54.7157 151.165 46.2629 151.928 37.838 153.008C31.7137 153.793 25.6164 154.763 19.546 155.884C18.9394 155.997 18.7403 155.894 18.6293 155.281C17.7085 150.197 16.7412 145.122 15.8255 140.039C15.7146 139.429 15.4872 139.366 14.9483 139.448C9.31419 140.312 3.71535 137.49 1.29072 132.589C-0.830365 128.301 0.0932548 123.139 3.59886 119.593C5.57978 117.591 7.96496 116.332 10.6917 115.713C11.1647 115.606 11.2236 115.435 11.1424 115.004C10.4007 111.1 9.68503 107.191 8.94938 103.285C8.74841 102.218 8.73309 102.235 9.789 102.056C9.789 102.056 9.80153 102.053 9.8266 102.048C12.1644 101.65 14.499 101.23 16.8378 100.84C16.9023 100.829 16.9599 100.813 17.0132 100.792C35.5187 97.8256 86.8811 91.2609 139.545 99.4329C139.693 99.6069 139.894 99.7081 140.188 99.7504C144.223 100.329 148.242 100.994 152.256 101.699C152.269 101.702 152.281 101.704 152.294 101.706C152.943 101.821 153.591 101.935 154.24 102.051C154.755 102.144 154.951 102.253 154.838 102.843C154.058 106.884 153.325 110.933 152.561 114.976C152.479 115.404 152.517 115.554 153.008 115.666C158.087 116.83 161.788 119.638 163.383 124.746C164.954 129.775 162.333 135.453 157.386 138.011Z" fill="#CFCFCF"/>
<path d="M77.1451 98.417C82.3573 98.5158 87.5709 98.5706 92.7818 98.7256C99.1381 98.9145 105.489 99.2538 111.833 99.6989C118.385 100.159 124.925 100.77 131.451 101.517C138.139 102.284 144.803 103.234 151.445 104.326C152.361 104.477 152.344 104.474 152.178 105.401C151.552 108.897 150.948 112.397 150.313 115.891C150.212 116.449 150.55 116.513 150.927 116.598C153.367 117.155 155.537 118.253 157.388 119.936C159.514 121.869 160.936 124.193 161.177 127.13C161.388 129.698 160.554 131.927 158.89 133.835C156.615 136.444 153.655 137.747 150.261 138.155C149.072 138.298 147.881 138.339 146.696 138.155C146.131 138.066 145.903 138.275 145.814 138.824C145.275 142.145 144.718 145.464 144.156 148.782C143.953 149.979 143.697 151.168 143.514 152.369C143.424 152.954 143.156 153.083 142.61 152.992C140.235 152.598 137.859 152.211 135.478 151.857C130.831 151.167 126.171 150.579 121.5 150.076C115.294 149.408 109.072 148.911 102.84 148.567C97.6111 148.278 92.3752 148.127 87.137 148.037C81.9206 147.946 76.7065 148.01 71.4952 148.149C64.6715 148.331 57.8567 148.719 51.0525 149.299C46.231 149.71 41.4166 150.183 36.6165 150.786C31.7933 151.391 26.9788 152.068 22.188 152.901C22.0042 152.933 21.8149 152.944 21.6352 152.992C21.0936 153.135 20.9047 152.904 20.8044 152.377C20.1096 148.723 19.7546 145.021 19.2143 141.346C19.0514 140.236 18.8486 139.133 18.6931 138.022C18.6295 137.569 18.442 137.463 17.9923 137.519C15.7078 137.808 13.4192 137.862 11.15 137.398C8.88458 136.934 6.84331 136.04 5.2611 134.263C2.91119 131.625 2.34216 127.345 3.9202 124.149C5.77489 120.393 8.92635 118.277 12.8088 117.091C14.1149 116.692 14.1386 116.723 13.8773 115.365C13.1973 111.831 12.5173 108.298 11.8054 104.77C11.6814 104.157 11.7961 103.893 12.4463 103.772C16.7201 102.973 21.0045 102.244 25.3121 101.65C30.6854 100.908 36.0768 100.331 41.4807 99.8757C44.6484 99.6089 47.8226 99.4209 50.9958 99.2241C58.1621 98.7795 65.3357 98.5479 72.5158 98.5145C74.0586 98.507 75.6014 98.5135 77.1447 98.5135L77.1451 98.417Z" fill="white"/>
<path d="M77.7627 99.5214C81.9376 99.4792 86.7317 99.5664 91.5238 99.7094C98.0908 99.9052 104.653 100.228 111.207 100.692C117.829 101.162 124.442 101.746 131.037 102.509C137.399 103.244 143.743 104.115 150.063 105.154C151.144 105.331 151.124 105.332 150.937 106.371C150.312 109.843 149.712 113.321 149.079 116.792C148.966 117.412 149.382 117.359 149.735 117.417C152.943 117.942 155.638 119.401 157.799 121.836C160.402 124.769 160.934 128.371 159.132 131.703C157.979 133.837 156.118 135.236 153.895 136.155C151.252 137.245 148.521 137.528 145.718 136.957C145.13 136.838 145.09 137.213 145.024 137.574C144.666 139.552 144.317 141.531 143.977 143.512C143.543 146.046 143.117 148.58 142.701 151.116C142.612 151.657 142.459 151.904 141.798 151.798C136.628 150.97 131.452 150.184 126.251 149.578C121.932 149.075 117.61 148.611 113.276 148.263C105.048 147.602 96.808 147.192 88.5515 147.045C81.6039 146.922 74.6623 147.007 67.7208 147.264C59.94 147.552 52.1765 148.08 44.4296 148.879C38.3834 149.503 32.3566 150.266 26.3484 151.179C25.0776 151.372 23.8008 151.538 22.542 151.793C21.9099 151.92 21.7242 151.712 21.6277 151.13C21.1213 148.086 20.7686 145.022 20.3416 141.967C20.1183 140.371 19.8579 138.779 19.5976 137.189C19.4416 136.233 19.4212 136.232 18.4725 136.389C15.7917 136.834 13.128 136.846 10.4704 136.18C3.84442 134.518 2.17169 127.107 6.27648 122.374C8.46162 119.854 11.2395 118.379 14.4851 117.769C15.1577 117.643 15.3642 117.469 15.2148 116.74C14.442 112.963 13.7425 109.172 12.9851 105.392C12.8737 104.836 13.083 104.716 13.549 104.626C17.612 103.841 21.6968 103.192 25.7956 102.631C33.6274 101.559 41.4926 100.835 49.381 100.347C53.2547 100.107 57.1306 99.9197 61.0094 99.7785C66.3859 99.5831 71.7634 99.5084 77.7627 99.5214Z" fill="#5D687B"/>
<path d="M149.333 126.353C148.841 126.113 148.348 125.874 147.797 125.605C147.833 125.931 148.054 126.044 148.199 126.2C149.426 127.514 150.658 128.825 151.892 130.133C152.264 130.527 152.51 130.938 152.01 131.393C151.613 131.754 151.158 131.608 150.767 130.979C149.613 129.12 148.474 127.251 147.328 125.386L147.453 125.216C148.235 125.491 149.018 125.765 149.8 126.04C149.719 126.256 149.512 126.284 149.333 126.353Z" fill="white"/>
<path d="M16.7189 125.198C14.621 125.19 12.5231 125.182 10.4252 125.177C9.8766 125.176 9.47559 124.947 9.5234 124.368C9.57166 123.785 10.0024 123.617 10.5459 123.734C12.4827 124.152 14.4191 124.569 16.3531 124.996C16.4789 125.024 16.5856 125.138 16.7012 125.211L16.7189 125.198Z" fill="white"/>
<path d="M148.07 125.023C150.093 124.588 152.112 124.144 154.138 123.725C154.598 123.63 154.935 123.862 154.989 124.336C155.042 124.799 154.784 125.143 154.318 125.149C152.241 125.173 150.164 125.159 148.087 125.159L148.07 125.023Z" fill="white"/>
<path d="M149.332 126.352C149.363 126.062 149.585 126.057 149.799 126.039C151.161 126.444 152.527 126.838 153.884 127.262C154.373 127.414 154.649 127.78 154.424 128.288C154.219 128.75 153.788 128.832 153.355 128.604C151.996 127.887 150.627 127.184 149.332 126.352Z" fill="white"/>
<path d="M14.4483 126.772C13.3729 127.378 12.3035 127.995 11.2198 128.585C10.7709 128.831 10.3166 128.788 10.1072 128.269C9.90115 127.76 10.1833 127.4 10.6711 127.248C12.0065 126.832 13.3492 126.443 14.6892 126.043C14.9022 126 15.1932 125.847 15.2786 126.133C15.3464 126.359 15.0256 126.415 14.8558 126.516C14.7175 126.598 14.5703 126.664 14.4483 126.772Z" fill="white"/>
<path d="M16.1362 127.056C15.3208 128.41 14.5174 129.772 13.6828 131.114C13.3719 131.614 12.8362 131.727 12.5072 131.393C12.1261 131.008 12.192 130.599 12.5503 130.222C13.2563 129.482 13.9641 128.743 14.671 128.003C15.059 127.641 15.4108 127.243 15.8025 126.885C16.0457 126.663 16.204 126.65 16.1362 127.056Z" fill="white"/>
<path d="M16.1363 127.057C16.0797 126.757 15.9576 126.883 15.8165 126.999C15.4248 127.323 15.1747 127.808 14.6711 128.004L16.5958 125.854L16.5169 125.745L14.4492 126.772C14.5671 126.432 14.9741 126.442 15.1899 126.174C15.0447 125.998 14.8423 126.105 14.6901 126.043C15.3264 125.665 16.1521 125.742 16.7207 125.199L16.703 125.213C17.0804 125.177 17.2957 125.204 17.014 125.668C16.73 126.137 16.4765 126.624 16.1363 127.057Z" fill="white"/>
<path d="M17.8418 108.882C19.2913 108.604 20.7454 108.343 22.2009 108.098C24.1396 107.795 26.1697 107.392 28.0968 107.576C29.1439 107.675 30.0169 108.053 30.6658 108.742C31.3147 109.432 31.7969 110.337 32.0851 111.473C32.7307 114.017 33.0245 116.704 33.3972 119.319C34.1575 124.756 34.9117 130.194 35.6757 135.631C35.9908 137.935 36.4327 140.317 36.4067 142.611C36.3955 143.603 36.1783 144.326 35.8209 144.839C35.464 145.352 34.9818 145.707 34.3798 145.958C33.7778 146.208 32.8449 146.426 31.5755 146.633C29.318 146.999 27.066 147.402 24.8191 147.829C22.3861 134.866 20.2748 121.844 17.8418 108.882ZM24.5597 112.919C26.1674 122.541 27.706 132.174 29.3138 141.796C30.0917 141.665 30.5526 141.298 30.612 140.72C30.7786 139.111 30.3209 137.261 30.0694 135.611C29.1147 129.611 28.1706 123.609 27.2145 117.609C26.9012 115.647 26.6863 114.521 26.541 114.035C26.3962 113.55 26.1902 113.223 25.9219 113.038C25.6541 112.854 25.1988 112.815 24.5597 112.919Z" fill="white"/>
<path d="M39.9424 105.689C41.5292 118.734 42.7675 131.82 44.3544 144.866C42.6032 145.066 40.8539 145.283 39.1069 145.516C37.2012 132.498 35.7475 119.416 33.8418 106.398C35.8738 106.148 37.9071 105.912 39.9424 105.689Z" fill="white"/>
<path d="M55.9232 104.275C56.7962 117.368 57.433 130.476 58.306 143.569C56.7442 143.688 55.1834 143.812 53.6225 143.943C51.648 138.409 50.6372 132.458 49.365 126.74C49.8565 132.557 50.3313 138.376 50.8669 144.189C49.3979 144.326 47.9294 144.473 46.4628 144.632C45.0054 131.577 43.8534 118.489 42.3965 105.434C44.0957 105.263 45.7958 105.102 47.4973 104.95C49.8667 110.24 50.9124 116.304 52.1929 121.915C51.7696 116.163 51.3593 110.41 50.8984 104.661C52.5726 104.524 54.2477 104.396 55.9232 104.275Z" fill="white"/>
<path d="M58.3066 104.107C61.5588 103.891 64.8091 103.705 68.0664 103.584C68.1541 105.656 68.2358 107.727 68.318 109.799C66.7719 109.85 66.0001 109.882 64.4592 109.959C64.5831 112.696 64.7024 115.433 64.8217 118.17C66.2479 118.099 66.9622 118.07 68.3927 118.022C68.5101 121.044 68.6276 124.066 68.745 127.089C67.3308 127.135 66.6244 127.163 65.2148 127.233C65.3545 130.444 65.4952 133.656 65.6395 136.867C67.0027 136.799 68.3681 136.746 69.7327 136.709C69.8134 138.78 69.8937 140.852 69.9796 142.923C66.8049 143.027 63.6395 143.201 60.4709 143.414C59.654 130.317 59.1231 117.204 58.3066 104.107Z" fill="white"/>
<path d="M87.7247 114.121C85.9341 114.061 84.143 114.013 82.3519 113.98C82.3254 112.674 82.3134 112.041 82.2906 110.842C82.2641 109.444 82.1816 108.646 82.0372 108.3C81.8929 107.955 81.6585 107.786 81.335 107.781C80.9836 107.776 80.7218 107.993 80.5511 108.458C80.3803 108.924 80.3055 109.645 80.3278 110.69C80.3571 112.033 80.4879 113.134 80.7001 113.876C80.9112 114.616 81.4738 115.543 82.3918 116.66C84.3871 119.093 86.3959 121.829 87.3627 124.832C88.3592 127.928 88.4464 131.413 88.4794 134.617C88.4989 136.507 88.5717 138.613 87.9892 140.431C87.6583 141.463 86.9454 142.192 85.9252 142.696C84.9051 143.199 83.6941 143.346 82.3695 143.343C81.1744 143.341 79.6112 143.06 78.559 142.418C77.5054 141.776 76.7656 140.858 76.4216 139.525C75.8629 137.358 75.8262 135.042 75.7352 132.791C75.7013 131.649 75.6837 131.059 75.6475 129.855C77.4019 129.849 79.1559 129.861 80.9098 129.888C80.9507 131.66 80.9906 133.432 81.0291 135.203C81.062 136.735 81.153 137.613 81.3071 138.004C81.4612 138.396 81.7234 138.586 82.0957 138.594C82.4684 138.601 82.7413 138.373 82.9149 137.879C83.0885 137.385 83.1771 136.619 83.147 135.547C83.1006 133.904 83.1576 132.017 82.5255 130.54C81.8883 129.051 80.7423 127.635 79.7699 126.252C78.7433 124.792 77.6674 123.327 76.8301 121.762C76.2225 120.625 75.8267 119.204 75.5681 117.95C75.1722 116.029 74.9949 114.033 74.9346 112.095C74.8719 110.078 74.7401 107.814 75.4145 105.892C75.7919 104.817 76.5224 104.104 77.5012 103.647C78.4801 103.19 79.6975 103.038 81.0751 103.034C82.3027 103.03 83.8594 103.252 84.9878 103.818C86.0594 104.355 86.7997 105.101 87.1269 106.125C87.7507 108.077 87.6569 110.353 87.7033 112.413C87.7117 113.082 87.7159 113.424 87.7247 114.121Z" fill="white"/>
<path d="M100.131 104.198C101.528 117.375 101.781 130.656 102.954 143.853C101.079 143.736 99.2045 143.623 97.3295 143.517C97.2575 141.694 97.1874 139.871 97.1169 138.048C96.3186 138.004 95.9189 137.982 95.1197 137.94C95.0167 139.755 94.9187 141.569 94.7252 143.376C92.8181 143.277 90.91 143.187 89.002 143.11C90.7545 130.089 89.7074 116.774 91.6535 103.776C94.4801 103.898 97.3058 104.037 100.131 104.198ZM96.9781 130.544C96.6128 124.071 96.3329 117.593 96.0573 111.115C95.5759 117.547 95.2409 123.995 95.0348 130.441C95.8126 130.481 96.2011 130.502 96.9781 130.544Z" fill="white"/>
<path d="M117.879 105.498C115.104 118.33 115.47 131.68 113.106 144.578C110.474 144.364 107.84 144.172 105.205 143.996C104.073 130.797 103.843 117.521 102.51 104.338C104.568 104.466 106.626 104.6 108.683 104.744C109.276 114.429 109.378 124.165 109.464 133.865C109.905 126.112 110.25 118.344 110.966 110.609C111.146 108.723 111.321 106.836 111.614 104.964C113.704 105.131 115.791 105.308 117.879 105.498Z" fill="white"/>
<path d="M133.053 107.217C129.386 119.828 128.86 133.184 125.656 145.902C123.179 145.588 120.7 145.305 118.216 145.048C117.809 131.869 118.459 118.626 117.521 105.465C119.619 105.663 121.716 105.871 123.812 106.093C123.895 115.755 123.347 125.454 122.824 135.098C123.737 127.4 124.566 119.68 125.768 112.02C126.068 110.148 126.362 108.277 126.774 106.426C128.869 106.675 130.961 106.938 133.053 107.217Z" fill="white"/>
<path d="M147.247 109.514C143.241 117.239 141.339 126.341 138.852 134.626C138.167 138.953 137.505 143.287 136.717 147.597C135.137 147.324 133.557 147.06 131.975 146.807C132.704 142.489 133.28 138.143 133.885 133.806C133.975 125.045 134.557 115.982 133.422 107.267C135.235 107.516 137.045 107.78 138.853 108.063C138.958 112.94 138.579 117.905 138.029 122.749C139.063 118.003 140.02 113.056 141.912 108.558C143.693 108.858 145.473 109.176 147.247 109.514Z" fill="white"/>
</svg>
