<svg width="100" height="101" viewBox="0 0 100 101" fill="none" xmlns="http://www.w3.org/2000/svg">
<rect y="0.5" width="100" height="100" rx="50" fill="#056DFF"/>
<path d="M50 75.5C36.225 75.5 25 64.275 25 50.5C25 36.725 36.225 25.5 50 25.5C63.775 25.5 75 36.725 75 50.5C75 64.275 63.775 75.5 50 75.5ZM48.125 60.5C48.125 61.525 48.975 62.375 50 62.375C51.025 62.375 51.875 61.525 51.875 60.5V48C51.875 46.975 51.025 46.125 50 46.125C48.975 46.125 48.125 46.975 48.125 48V60.5ZM52.3 39.55C52.175 39.225 52 38.975 51.775 38.725C51.525 38.5 51.25 38.325 50.95 38.2C50.65 38.075 50.325 38 50 38C49.675 38 49.35 38.075 49.05 38.2C48.75 38.325 48.475 38.5 48.225 38.725C48 38.975 47.825 39.225 47.7 39.55C47.575 39.85 47.5 40.175 47.5 40.5C47.5 40.825 47.575 41.15 47.7 41.45C47.825 41.75 48 42.025 48.225 42.275C48.475 42.5 48.75 42.675 49.05 42.8C49.65 43.05 50.35 43.05 50.95 42.8C51.25 42.675 51.525 42.5 51.775 42.275C52 42.025 52.175 41.75 52.3 41.45C52.425 41.15 52.5 40.825 52.5 40.5C52.5 40.175 52.425 39.85 52.3 39.55Z" fill="white"/>
</svg>
