<svg width="100" height="101" viewBox="0 0 100 101" fill="none" xmlns="http://www.w3.org/2000/svg">
<rect y="0.5" width="100" height="100" rx="50" fill="#056DFF"/>
<path d="M75.8991 41.175L75.1741 34.25C74.1241 26.7 70.6991 23.625 63.3741 23.625H57.4741H53.7741H46.1741H42.4741H36.4741C29.1241 23.625 25.7241 26.7 24.6491 34.325L23.9741 41.2C23.7241 43.875 24.4491 46.475 26.0241 48.5C27.9241 50.975 30.8491 52.375 34.0991 52.375C37.2491 52.375 40.2741 50.8 42.1741 48.275C43.8741 50.8 46.7741 52.375 49.9991 52.375C53.2241 52.375 56.0491 50.875 57.7741 48.375C59.6991 50.85 62.6741 52.375 65.7741 52.375C69.0991 52.375 72.0991 50.9 73.9741 48.3C75.4741 46.3 76.1491 43.775 75.8991 41.175Z" fill="white"/>
<path d="M48.3758 62.15C45.2008 62.475 42.8008 65.175 42.8008 68.375V75.225C42.8008 75.9 43.3508 76.45 44.0258 76.45H55.9508C56.6258 76.45 57.1758 75.9 57.1758 75.225V69.25C57.2008 64.025 54.1258 61.55 48.3758 62.15Z" fill="white"/>
<path d="M73.4242 56.5V63.9499C73.4242 70.8499 67.8242 76.4499 60.9242 76.4499C60.2492 76.4499 59.6992 75.9 59.6992 75.2249V69.25C59.6992 66.05 58.7242 63.55 56.8242 61.85C55.1492 60.325 52.8742 59.575 50.0492 59.575C49.4242 59.575 48.7992 59.6 48.1242 59.675C43.6742 60.125 40.2992 63.875 40.2992 68.375V75.2249C40.2992 75.9 39.7492 76.4499 39.0742 76.4499C32.1742 76.4499 26.5742 70.8499 26.5742 63.9499V56.55C26.5742 54.8 28.2992 53.625 29.9242 54.2C30.5992 54.425 31.2742 54.6 31.9742 54.7C32.2742 54.75 32.5992 54.8 32.8992 54.8C33.2992 54.85 33.6992 54.875 34.0992 54.875C36.9992 54.875 39.8492 53.8 42.0992 51.95C44.2492 53.8 47.0492 54.875 49.9992 54.875C52.9742 54.875 55.7242 53.85 57.8742 52C60.1242 53.825 62.9242 54.875 65.7742 54.875C66.2242 54.875 66.6742 54.85 67.0992 54.8C67.3992 54.775 67.6742 54.75 67.9492 54.7C68.7242 54.6 69.4242 54.375 70.1242 54.15C71.7492 53.6 73.4242 54.8 73.4242 56.5Z" fill="white"/>
</svg>
