<svg width="64" height="64" viewBox="0 0 64 64" fill="none" xmlns="http://www.w3.org/2000/svg">
<rect width="64" height="64" rx="12" fill="#056DFF"/>
<path d="M32.0287 19.8801C27.6154 19.8801 24.0287 23.4668 24.0287 27.8801V31.7335C24.0287 32.5468 23.6821 33.7868 23.2687 34.4801L21.7354 37.0268C20.7887 38.6001 21.4421 40.3468 23.1754 40.9335C28.9221 42.8535 35.1221 42.8535 40.8687 40.9335C42.4821 40.4001 43.1887 38.4935 42.3087 37.0268L40.7754 34.4801C40.3754 33.7868 40.0287 32.5468 40.0287 31.7335V27.8801C40.0287 23.4801 36.4287 19.8801 32.0287 19.8801Z" stroke="white" stroke-width="2.4" stroke-miterlimit="10" stroke-linecap="round"/>
<path d="M34.4919 20.2667C34.0786 20.1467 33.6519 20.0533 33.2119 20C31.9319 19.84 30.7053 19.9333 29.5586 20.2667C29.9453 19.28 30.9053 18.5867 32.0253 18.5867C33.1453 18.5867 34.1053 19.28 34.4919 20.2667Z" stroke="white" stroke-width="2.4" stroke-miterlimit="10" stroke-linecap="round" stroke-linejoin="round"/>
<path d="M36.0273 41.4133C36.0273 43.6133 34.2273 45.4133 32.0273 45.4133C30.934 45.4133 29.9207 44.96 29.2007 44.24C28.4807 43.52 28.0273 42.5067 28.0273 41.4133" stroke="white" stroke-width="2.4" stroke-miterlimit="10"/>
</svg>
