<svg width="30" height="30" viewBox="0 0 30 30" fill="none" xmlns="http://www.w3.org/2000/svg">
<path d="M15 8.0498V12.2123" stroke="#111111" stroke-width="1.875" stroke-miterlimit="10" stroke-linecap="round"/>
<path d="M15.0256 2.5C10.4256 2.5 6.7006 6.225 6.7006 10.825V13.45C6.7006 14.3 6.3506 15.575 5.9131 16.3L4.3256 18.95C3.3506 20.5875 4.0256 22.4125 5.8256 23.0125C11.8006 25 18.2631 25 24.2381 23.0125C25.9256 22.45 26.6506 20.475 25.7381 18.95L24.1506 16.3C23.7131 15.575 23.3631 14.2875 23.3631 13.45V10.825C23.3506 6.25 19.6006 2.5 15.0256 2.5Z" stroke="#111111" stroke-width="1.875" stroke-miterlimit="10" stroke-linecap="round"/>
<path d="M19.1629 23.5249C19.1629 25.8124 17.2879 27.6874 15.0004 27.6874C13.8629 27.6874 12.8129 27.2124 12.0629 26.4624C11.3129 25.7124 10.8379 24.6624 10.8379 23.5249" stroke="#111111" stroke-width="1.875" stroke-miterlimit="10"/>
</svg>
