<svg width="30" height="30" viewBox="0 0 30 30" fill="none" xmlns="http://www.w3.org/2000/svg">
<rect x="0.5" y="0.5" width="29" height="29" rx="3.5" stroke="#E3E3E8"/>
<path d="M17.5864 20.8432C17.5864 20.8432 17.5864 14.2917 22.5 14.2917C17.5864 14.2917 17.5864 7.74023 17.5864 7.74023C17.5864 7.74023 17.5864 14.2917 12.6729 14.2917C17.5864 14.2917 17.5864 20.8432 17.5864 20.8432Z" stroke="black" stroke-width="0.826197"/>
<path d="M10.1671 16.367C10.1671 16.367 10.1671 12.664 12.8343 12.664C10.1671 12.664 10.1671 8.96094 10.1671 8.96094C10.1671 8.96094 10.1671 12.664 7.5 12.664C10.1671 12.664 10.1671 16.367 10.1671 16.367Z" stroke="black" stroke-width="0.826197"/>
<path d="M12.673 22.2614C12.673 22.2614 12.673 18.7293 15.8411 18.7293C12.673 18.7293 12.673 15.1973 12.673 15.1973C12.673 15.1973 12.673 18.7293 9.50488 18.7293C12.673 18.7293 12.673 22.2614 12.673 22.2614Z" stroke="black" stroke-width="0.826197"/>
</svg>
