<svg width="20" height="150" viewBox="0 0 20 150" fill="none" xmlns="http://www.w3.org/2000/svg">
<mask id="mask0_12208_79354" style="mask-type:alpha" maskUnits="userSpaceOnUse" x="-56" y="0" width="76" height="150">
<mask id="path-1-inside-1_12208_79354" fill="white">
<path fill-rule="evenodd" clip-rule="evenodd" d="M20 10C20 4.47715 15.5228 0 10 0H-46C-51.5228 0 -56 4.47715 -56 10V140C-56 145.523 -51.5228 150 -46 150H10C15.5228 150 20 145.523 20 140V102C20 96.4772 15.1582 92.2132 10.5663 89.1445C6.00435 86.0958 3 80.8988 3 75C3 69.1012 6.00435 63.9042 10.5663 60.8555C15.1582 57.7868 20 53.5228 20 48V10Z"/>
</mask>
<path d="M10.5663 89.1445L11.122 88.3131L10.5663 89.1445ZM-46 1H10V-1H-46V1ZM-55 140V10H-57V140H-55ZM10 149H-46V151H10V149ZM19 102V140H21V102H19ZM11.122 88.3131C6.82581 85.4421 4 80.5508 4 75H2C2 81.2467 5.18289 86.7496 10.0107 89.9759L11.122 88.3131ZM4 75C4 69.4492 6.8258 64.5579 11.122 61.6869L10.0107 60.0241C5.18289 63.2504 2 68.7533 2 75H4ZM19 10V48H21V10H19ZM11.122 61.6869C13.4507 60.1307 15.8996 58.2353 17.7731 55.9885C19.6506 53.737 21 51.0711 21 48H19C19 50.4517 17.9285 52.6793 16.2371 54.7076C14.5418 56.7407 12.2739 58.5116 10.0107 60.0241L11.122 61.6869ZM21 102C21 98.9289 19.6506 96.263 17.7731 94.0115C15.8996 91.7647 13.4507 89.8693 11.122 88.3131L10.0107 89.9759C12.2739 91.4884 14.5418 93.2593 16.2371 95.2924C17.9285 97.3208 19 99.5483 19 102H21ZM10 151C16.0751 151 21 146.075 21 140H19C19 144.971 14.9706 149 10 149V151ZM-57 140C-57 146.075 -52.0751 151 -46 151V149C-50.9706 149 -55 144.971 -55 140H-57ZM10 1C14.9706 1 19 5.02944 19 10H21C21 3.92487 16.0751 -1 10 -1V1ZM-46 -1C-52.0751 -1 -57 3.92487 -57 10H-55C-55 5.02944 -50.9706 1 -46 1V-1Z" fill="#CACACA" mask="url(#path-1-inside-1_12208_79354)"/>
</mask>
<g mask="url(#mask0_12208_79354)">
<rect width="20" height="150" fill="#D9D9D9"/>
</g>
</svg>
