<svg width="10" height="150" viewBox="0 0 10 150" fill="none" xmlns="http://www.w3.org/2000/svg">
<path fill-rule="evenodd" clip-rule="evenodd" d="M9.57178 9.375C9.57178 12.9802 7.33936 16.1101 4.06543 17.6787C7.33936 19.1602 9.57227 22.1162 9.57227 25.5212C9.57227 28.926 7.33936 31.8818 4.06543 33.3633C7.33936 34.9319 9.57227 38.0618 9.57227 41.667C9.57227 45.2949 7.31152 48.4414 4.00391 50C7.31152 51.5586 9.57227 54.7051 9.57227 58.333C9.57227 61.594 7.74561 64.4661 4.97412 66.1455C7.74561 67.825 9.57227 70.697 9.57227 73.958C9.57227 77.5862 7.31055 80.7329 4.00244 82.2915C7.31055 83.8501 9.57178 86.9968 9.57178 90.625C9.57178 94.2532 7.31055 97.3999 4.00244 98.9585C7.31055 100.517 9.57227 103.664 9.57227 107.292C9.57227 110.92 7.31152 114.066 4.00391 115.625C7.31152 117.184 9.57227 120.33 9.57227 123.958C9.57227 127.586 7.31055 130.733 4.00244 132.292C7.31055 133.85 9.57178 136.997 9.57178 140.625C9.57178 145.584 5.34766 149.644 0 149.978V150H10V0H0V0.0222168C5.34766 0.356445 9.57178 4.41602 9.57178 9.375Z" fill="white"/>
</svg>
