<svg width="100" height="101" viewBox="0 0 100 101" fill="none" xmlns="http://www.w3.org/2000/svg">
<rect y="0.5" width="100" height="100" rx="50" fill="#056DFF"/>
<path d="M52.5 73C52.5 73 52.5 50.5 75 50.5C52.5 50.5 52.5 28 52.5 28C52.5 28 52.5 50.5 30 50.5C52.5 50.5 52.5 73 52.5 73Z" fill="white"/>
<path d="M35 45.5C35 45.5 35 35.5 45 35.5C35 35.5 35 25.5 35 25.5C35 25.5 35 35.5 25 35.5C35 35.5 35 45.5 35 45.5Z" fill="white"/>
<path d="M35 75.5C35 75.5 35 65.5 45 65.5C35 65.5 35 55.5 35 55.5C35 55.5 35 65.5 25 65.5C35 65.5 35 75.5 35 75.5Z" fill="white"/>
</svg>
