<svg width="10" height="150" viewBox="0 0 10 150" fill="none" xmlns="http://www.w3.org/2000/svg">
<path fill-rule="evenodd" clip-rule="evenodd" d="M7.44635 15.083C8.77944 13.5021 9.57197 11.5229 9.57197 9.375C9.57197 4.41609 5.3477 0.356424 0 0.0222349V0H10V150H0V149.978C5.3477 149.644 9.57197 145.584 9.57197 140.625C9.57197 138.436 8.7489 136.422 7.36944 134.827C6.26313 133.547 6.26313 131.036 7.36944 129.756C8.7489 128.161 9.57197 126.147 9.57197 123.958C9.57197 121.769 8.74889 119.755 7.36943 118.16C6.26325 116.881 6.26325 114.369 7.36943 113.09C8.74889 111.495 9.57197 109.481 9.57197 107.292C9.57197 105.103 8.7489 103.089 7.36945 101.494C6.26314 100.214 6.26314 97.7026 7.36945 96.423C8.7489 94.8276 9.57197 92.8139 9.57197 90.625C9.57197 88.4361 8.7489 86.4224 7.36945 84.827C6.26314 83.5474 6.26314 81.0356 7.36945 79.756C8.7489 78.1606 9.57197 76.1469 9.57197 73.958C9.57197 71.8236 8.78941 69.8559 7.47154 68.28C6.50791 67.1278 6.50791 65.1633 7.47154 64.011C8.78941 62.4352 9.57197 60.4674 9.57197 58.333C9.57197 56.1441 8.74889 54.1304 7.36942 52.5349C6.26324 51.2556 6.26324 48.7444 7.36942 47.4651C8.74889 45.8696 9.57197 43.8559 9.57197 41.667C9.57197 39.5191 8.77943 37.5398 7.44635 35.959C6.35063 34.6597 6.38479 32.1248 7.50461 30.8461C8.80249 29.3642 9.57197 27.52 9.57197 25.5212C9.57197 23.5223 8.8025 21.6781 7.50462 20.1962C6.38476 18.9175 6.35059 16.3824 7.44635 15.083Z" fill="white"/>
</svg>
