<svg width="56" height="56" viewBox="0 0 56 56" fill="none" xmlns="http://www.w3.org/2000/svg">
<path d="M55.4758 28C55.4758 31.6082 54.7651 35.181 53.3843 38.5146C52.0035 41.8481 49.9797 44.877 47.4283 47.4284C44.8769 49.9798 41.848 52.0036 38.5145 53.3844C35.1809 54.7652 31.6081 55.4759 27.9999 55.4759C20.7128 55.4759 13.7242 52.5811 8.57152 47.4284C3.41879 42.2757 0.524013 35.2871 0.524013 28C0.524013 20.7129 3.41879 13.7243 8.57152 8.57161C13.7242 3.41888 20.7128 0.524106 27.9999 0.524106C31.6081 0.524106 35.1809 1.23479 38.5145 2.61558C41.848 3.99638 44.8769 6.02024 47.4283 8.57161C49.9797 11.123 52.0035 14.1519 53.3843 17.4854C54.7651 20.819 55.4758 24.3918 55.4758 28Z" fill="white"/>
<path d="M28 0C12.5415 0 0 12.5415 0 28C0 43.4585 12.5415 56 28 56C43.4585 56 56 43.4585 56 28C56 12.5415 43.4585 0 28 0ZM28 1.05086C31.5391 1.04982 35.0437 1.74608 38.3136 3.09986C41.5835 4.45365 44.5547 6.43843 47.0573 8.94082C49.5599 11.4432 51.545 14.4142 52.8991 17.6839C54.2532 20.9537 54.9498 24.4583 54.9491 27.9974C54.9509 31.5371 54.255 35.0425 52.9014 38.3132C51.5478 41.5839 49.5629 44.5558 47.0601 47.059C44.5574 49.5622 41.5859 51.5477 38.3154 52.902C35.045 54.2563 31.5398 54.9528 28 54.9518C24.4605 54.9528 20.9554 54.2564 17.6852 52.9023C14.4149 51.5482 11.4435 49.5629 8.94082 47.06C6.43812 44.557 4.45315 41.5854 3.09936 38.315C1.74556 35.0446 1.04947 31.5395 1.05086 28C1.04982 24.4609 1.74608 20.9563 3.09986 17.6864C4.45365 14.4165 6.43843 11.4453 8.94082 8.94269C11.4432 6.44006 14.4142 4.45498 17.6839 3.10088C20.9537 1.74677 24.4583 1.05016 27.9974 1.05086H28Z" fill="black"/>
<path d="M41.5579 22.5339C38.3629 22.5339 36.6927 23.8866 36.6927 25.9618C36.6927 26.6236 37.103 27.5712 37.7938 28.0185C39.0035 28.802 40.0173 28.9185 41.407 29.2573C42.2037 29.4532 43.0693 29.6782 43.0693 30.1864C43.0693 30.6099 42.6405 30.9249 41.5076 30.9249C39.2629 30.9249 38.8209 29.7417 38.8209 29.7417L35.9462 30.7979C36.555 32.7328 39.5329 33.3972 41.5049 33.3972C43.6146 33.3972 44.8322 32.9472 45.6078 32.2061C46.4628 31.3908 46.5475 30.602 46.5475 29.8529C46.5475 29.1911 46.2881 28.3123 45.0175 27.5765C44.091 27.0444 42.2223 26.7162 41.407 26.5441C41.0999 26.4753 40.1126 26.3324 40.1126 25.75C40.1126 25.3159 40.7293 25.0804 41.5579 25.0804C43.1937 25.0804 43.4558 26.1868 43.4558 26.1868L46.341 25.1254C45.891 23.1004 43.5193 22.5339 41.5579 22.5339ZM51.0924 22.5842L47.6327 23.8548V32.987H51.095L51.0924 22.5842ZM4.78834 22.7748V32.9843H8.25062V31.0811C9.57465 30.6497 10.8775 30.1559 12.1549 29.6014C14.5743 28.5003 14.6775 27.1212 14.6775 25.975C14.6775 24.5536 13.6187 22.7748 10.6673 22.7748H4.78834ZM15.6675 22.7748V32.9843H24.6673V30.4697H19.1298V29.117H23.4788V26.605H19.1298V25.2815H24.5694V22.7722L15.6675 22.7748ZM26.1682 22.7748V32.9843H29.6305V31.0811C30.9545 30.6497 32.2574 30.1559 33.5348 29.6014C35.9542 28.5003 36.0574 27.1212 36.0574 25.975C36.0574 24.5536 34.9986 22.7748 32.0472 22.7748H26.1682ZM8.25062 25.2842H9.98176C10.5641 25.2842 11.0485 25.758 11.0485 26.3589C11.0485 27.0735 10.7732 27.4547 9.73294 27.8888L8.25062 28.4765V25.2842ZM29.6305 25.2842H31.3616C31.9439 25.2842 32.4283 25.758 32.4283 26.3589C32.4283 27.0735 32.1557 27.4547 31.1128 27.8888L29.6305 28.4765V25.2842Z" fill="black"/>
<path d="M27.9999 2.92229C23.1077 2.92636 18.3234 4.36114 14.2364 7.04996C10.1493 9.73878 6.93782 13.5642 4.99745 18.0552C5.08745 18.087 9.97911 19.8181 14.9184 19.8181C22.6344 19.8181 31.8857 16.6655 41.8543 16.6655C46.9022 16.6655 50.6371 17.9149 51.0182 18.0473C49.0756 13.5553 45.8612 9.72982 41.7711 7.04229C37.681 4.35475 32.894 2.92259 27.9999 2.92229Z" fill="#FF1400"/>
<path d="M28.0131 53.083C32.9055 53.0797 37.6901 51.6455 41.7777 48.9572C45.8653 46.2688 49.0773 42.4436 51.0182 37.9527C50.9283 37.9183 46.0339 36.1872 41.0973 36.1872C33.3813 36.1872 24.13 39.3424 14.1587 39.3424C9.11354 39.3424 5.37862 38.093 4.9948 37.9607C6.93784 42.4522 10.1524 46.2771 14.2425 48.9641C18.3326 51.6512 23.1194 53.0829 28.0131 53.083Z" fill="#0E0E96"/>
</svg>
