<svg width="40" height="46" viewBox="0 0 40 46" fill="none" xmlns="http://www.w3.org/2000/svg">
<circle cx="20" cy="23" r="9.5" fill="#056DFF"/>
<path d="M19.9998 7.16663C11.2757 7.16663 4.1665 14.2758 4.1665 23C4.1665 31.7241 11.2757 38.8333 19.9998 38.8333C28.724 38.8333 35.8332 31.7241 35.8332 23C35.8332 14.2758 28.724 7.16663 19.9998 7.16663ZM27.5682 19.3583L18.5907 28.3358C18.369 28.5575 18.0682 28.6841 17.7515 28.6841C17.4348 28.6841 17.134 28.5575 16.9123 28.3358L12.4315 23.855C11.9723 23.3958 11.9723 22.6358 12.4315 22.1766C12.8907 21.7175 13.6507 21.7175 14.1098 22.1766L17.7515 25.8183L25.8898 17.68C26.349 17.2208 27.109 17.2208 27.5682 17.68C28.0273 18.1391 28.0273 18.8833 27.5682 19.3583Z" fill="white"/>
</svg>
