<svg width="21" height="21" viewBox="0 0 21 21" fill="none" xmlns="http://www.w3.org/2000/svg">
<path d="M10.8299 2.16699C6.23825 2.16699 2.49658 5.90866 2.49658 10.5003C2.49658 15.092 6.23825 18.8337 10.8299 18.8337C15.4216 18.8337 19.1632 15.092 19.1632 10.5003C19.1632 5.90866 15.4216 2.16699 10.8299 2.16699ZM14.4549 13.4753C14.3382 13.6753 14.1299 13.7837 13.9132 13.7837C13.8049 13.7837 13.6966 13.7587 13.5966 13.692L11.0132 12.1503C10.3716 11.767 9.89658 10.9253 9.89658 10.1837V6.76699C9.89658 6.42533 10.1799 6.14199 10.5216 6.14199C10.8632 6.14199 11.1466 6.42533 11.1466 6.76699V10.1837C11.1466 10.4837 11.3966 10.9253 11.6549 11.0753L14.2382 12.617C14.5382 12.792 14.6382 13.1753 14.4549 13.4753Z" fill="white"/>
</svg>
