<svg width="100" height="100" viewBox="0 0 100 100" fill="none" xmlns="http://www.w3.org/2000/svg">
<rect width="100" height="100" rx="50" fill="#056DFF"/>
<path d="M75 46.875C76.025 46.875 76.875 46.025 76.875 45V42.5C76.875 31.475 73.525 28.125 62.5 28.125H46.875V33.75C46.875 34.775 46.025 35.625 45 35.625C43.975 35.625 43.125 34.775 43.125 33.75V28.125H37.5C26.475 28.125 23.125 31.475 23.125 42.5V43.75C23.125 44.775 23.975 45.625 25 45.625C27.4 45.625 29.375 47.6 29.375 50C29.375 52.4 27.4 54.375 25 54.375C23.975 54.375 23.125 55.225 23.125 56.25V57.5C23.125 68.525 26.475 71.875 37.5 71.875H43.125V66.25C43.125 65.225 43.975 64.375 45 64.375C46.025 64.375 46.875 65.225 46.875 66.25V71.875H62.5C73.525 71.875 76.875 68.525 76.875 57.5C76.875 56.475 76.025 55.625 75 55.625C72.6 55.625 70.625 53.65 70.625 51.25C70.625 48.85 72.6 46.875 75 46.875ZM46.875 55.425C46.875 56.45 46.025 57.3 45 57.3C43.975 57.3 43.125 56.45 43.125 55.425V44.575C43.125 43.55 43.975 42.7 45 42.7C46.025 42.7 46.875 43.55 46.875 44.575V55.425Z" fill="white"/>
</svg>
