<svg width="111" height="30" viewBox="0 0 111 30" fill="none" xmlns="http://www.w3.org/2000/svg">
<g filter="url(#filter0_i_17114_92747)">
<path d="M1.23313 1.60843C0.728785 0.950589 1.19781 0 2.02674 0H110C110.552 0 111 0.447715 111 1V29C111 29.5523 110.552 30 110 30H2.02673C1.19781 30 0.728785 29.0494 1.23313 28.3916L11.0335 15.6084C11.3087 15.2495 11.3087 14.7505 11.0335 14.3916L1.23313 1.60843Z" fill="url(#paint0_linear_17114_92747)"/>
</g>
<path d="M26.319 16.636C26.319 17.884 25.299 19.084 23.439 19.084C21.771 19.084 20.487 18.172 20.487 16.696H21.951C22.011 17.38 22.491 17.932 23.439 17.932C24.399 17.932 24.939 17.416 24.939 16.708C24.939 14.692 20.511 16 20.511 12.928C20.511 11.464 21.675 10.552 23.379 10.552C24.975 10.552 26.103 11.392 26.223 12.82H24.711C24.663 12.256 24.171 11.74 23.307 11.716C22.515 11.692 21.903 12.076 21.903 12.88C21.903 14.764 26.319 13.588 26.319 16.636ZM27.4772 15.664C27.4772 13.624 28.8572 12.28 30.5972 12.28C31.7132 12.28 32.4812 12.808 32.8892 13.348V12.388H34.2692V19H32.8892V18.016C32.4692 18.58 31.6772 19.108 30.5732 19.108C28.8572 19.108 27.4772 17.704 27.4772 15.664ZM32.8892 15.688C32.8892 14.272 31.9172 13.468 30.8852 13.468C29.8652 13.468 28.8812 14.236 28.8812 15.664C28.8812 17.092 29.8652 17.92 30.8852 17.92C31.9172 17.92 32.8892 17.116 32.8892 15.688ZM35.286 12.388H36.75L38.622 17.776L40.494 12.388H41.946L39.426 19H37.794L35.286 12.388ZM42.2001 12.388H43.6641L45.5361 17.776L47.4081 12.388H48.8601L46.3401 19H44.7081L42.2001 12.388ZM52.4981 17.428L54.4301 12.388H55.8461L51.7901 22.108H50.3741L51.7181 18.892L49.1141 12.388H50.6381L52.4981 17.428ZM65.4797 10.648H66.8477V19H65.4797L61.3637 12.772V19H59.9957V10.648H61.3637L65.4797 16.864V10.648ZM74.6321 12.388V19H73.2641V18.208C72.8321 18.772 72.0881 19.096 71.3081 19.096C69.7601 19.096 68.5841 18.124 68.5841 16.276V12.388H69.9401V16.072C69.9401 17.284 70.6001 17.908 71.5961 17.908C72.6041 17.908 73.2641 17.284 73.2641 16.072V12.388H74.6321ZM75.9811 15.664C75.9811 13.624 77.3611 12.28 79.1131 12.28C79.9771 12.28 80.8891 12.688 81.3931 13.312V10.12H82.7731V19H81.3931V18.004C80.9731 18.604 80.1811 19.108 79.1011 19.108C77.3611 19.108 75.9811 17.704 75.9811 15.664ZM81.3931 15.688C81.3931 14.272 80.4211 13.468 79.3891 13.468C78.3691 13.468 77.3851 14.236 77.3851 15.664C77.3851 17.092 78.3691 17.92 79.3891 17.92C80.4211 17.92 81.3931 17.116 81.3931 15.688ZM84.1139 15.664C84.1139 13.624 85.4939 12.28 87.2339 12.28C88.3139 12.28 89.1179 12.784 89.5259 13.348V12.388H90.9059V19.108C90.9059 20.908 89.7419 22.264 87.6779 22.264C85.9139 22.264 84.6059 21.388 84.4379 19.924H85.7939C85.9979 20.608 86.7299 21.076 87.6779 21.076C88.7339 21.076 89.5259 20.428 89.5259 19.108V18.004C89.1059 18.568 88.3139 19.108 87.2339 19.108C85.4939 19.108 84.1139 17.704 84.1139 15.664ZM89.5259 15.688C89.5259 14.272 88.5539 13.468 87.5219 13.468C86.5019 13.468 85.5179 14.236 85.5179 15.664C85.5179 17.092 86.5019 17.92 87.5219 17.92C88.5539 17.92 89.5259 17.116 89.5259 15.688ZM95.4867 13.432C94.5627 13.432 93.8187 14.056 93.6747 15.1H97.3347C97.3107 14.08 96.5067 13.432 95.4867 13.432ZM98.5827 17.032C98.2107 18.184 97.1667 19.108 95.5467 19.108C93.6507 19.108 92.2467 17.764 92.2467 15.688C92.2467 13.612 93.5907 12.28 95.5467 12.28C97.4307 12.28 98.7627 13.588 98.7627 15.532C98.7627 15.76 98.7507 15.976 98.7147 16.204H93.6627C93.7587 17.296 94.5387 17.956 95.5467 17.956C96.3867 17.956 96.8547 17.548 97.1067 17.032H98.5827Z" fill="white"/>
<defs>
<filter id="filter0_i_17114_92747" x="1.02539" y="0" width="114.975" height="33" filterUnits="userSpaceOnUse" color-interpolation-filters="sRGB">
<feFlood flood-opacity="0" result="BackgroundImageFix"/>
<feBlend mode="normal" in="SourceGraphic" in2="BackgroundImageFix" result="shape"/>
<feColorMatrix in="SourceAlpha" type="matrix" values="0 0 0 0 0 0 0 0 0 0 0 0 0 0 0 0 0 0 127 0" result="hardAlpha"/>
<feOffset dx="5" dy="3"/>
<feGaussianBlur stdDeviation="4"/>
<feComposite in2="hardAlpha" operator="arithmetic" k2="-1" k3="1"/>
<feColorMatrix type="matrix" values="0 0 0 0 1 0 0 0 0 1 0 0 0 0 1 0 0 0 0.4 0"/>
<feBlend mode="normal" in2="shape" result="effect1_innerShadow_17114_92747"/>
</filter>
<linearGradient id="paint0_linear_17114_92747" x1="0" y1="0" x2="93" y2="68.5" gradientUnits="userSpaceOnUse">
<stop stop-color="#FD3535"/>
<stop offset="1" stop-color="#FD1212"/>
</linearGradient>
</defs>
</svg>
