<svg width="46" height="45" viewBox="0 0 46 45" fill="none" xmlns="http://www.w3.org/2000/svg">
<circle cx="22.9551" cy="22.3334" r="9.5" fill="white"/>
<path d="M22.9544 6.5C14.2303 6.5 7.12109 13.6092 7.12109 22.3333C7.12109 31.0575 14.2303 38.1667 22.9544 38.1667C31.6786 38.1667 38.7878 31.0575 38.7878 22.3333C38.7878 13.6092 31.6786 6.5 22.9544 6.5ZM30.5228 18.6917L21.5453 27.6692C21.3236 27.8908 21.0228 28.0175 20.7061 28.0175C20.3894 28.0175 20.0886 27.8908 19.8669 27.6692L15.3861 23.1883C14.9269 22.7292 14.9269 21.9692 15.3861 21.51C15.8453 21.0508 16.6053 21.0508 17.0644 21.51L20.7061 25.1517L28.8444 17.0133C29.3036 16.5542 30.0636 16.5542 30.5228 17.0133C30.9819 17.4725 30.9819 18.2167 30.5228 18.6917Z" fill="#056DFF"/>
</svg>
