<svg width="21" height="20" viewBox="0 0 21 20" fill="none" xmlns="http://www.w3.org/2000/svg">
<path d="M18.5386 15.3914L17.1636 15.7164C16.8553 15.7914 16.6136 16.0248 16.5469 16.3331L16.2553 17.5581C16.0969 18.2248 15.2469 18.4331 14.8053 17.9081L12.3136 15.0414C12.1136 14.8081 12.2219 14.4414 12.5219 14.3664C13.9969 14.0081 15.3219 13.1831 16.2969 12.0081C16.4553 11.8164 16.7386 11.7914 16.9136 11.9664L18.7636 13.8164C19.3969 14.4498 19.1719 15.2414 18.5386 15.3914Z" fill="white"/>
<path d="M3.08021 15.3914L4.45521 15.7164C4.76355 15.7914 5.00521 16.0248 5.07188 16.3331L5.36355 17.5581C5.52188 18.2248 6.37188 18.4331 6.81355 17.9081L9.30521 15.0414C9.50521 14.8081 9.39688 14.4414 9.09688 14.3664C7.62188 14.0081 6.29688 13.1831 5.32188 12.0081C5.16355 11.8164 4.88021 11.7914 4.70521 11.9664L2.85521 13.8164C2.22188 14.4498 2.44688 15.2414 3.08021 15.3914Z" fill="white"/>
<path d="M10.8299 1.66699C7.60492 1.66699 4.99658 4.27533 4.99658 7.50033C4.99658 8.70866 5.35492 9.81699 5.97158 10.742C6.87158 12.0753 8.29658 13.017 9.95492 13.2587C10.2382 13.3087 10.5299 13.3337 10.8299 13.3337C11.1299 13.3337 11.4216 13.3087 11.7049 13.2587C13.3632 13.017 14.7882 12.0753 15.6882 10.742C16.3049 9.81699 16.6632 8.70866 16.6632 7.50033C16.6632 4.27533 14.0549 1.66699 10.8299 1.66699ZM13.3799 7.31699L12.6882 8.00866C12.5716 8.12533 12.5049 8.35033 12.5466 8.51699L12.7466 9.37533C12.9049 10.0503 12.5466 10.317 11.9466 9.95866L11.1132 9.46699C10.9632 9.37533 10.7132 9.37533 10.5632 9.46699L9.72992 9.95866C9.12992 10.3087 8.77158 10.0503 8.92992 9.37533L9.12992 8.51699C9.16325 8.35866 9.10492 8.12533 8.98825 8.00866L8.27991 7.31699C7.87158 6.90866 8.00492 6.50033 8.57158 6.40866L9.46325 6.25866C9.61325 6.23366 9.78825 6.10033 9.85492 5.96699L10.3466 4.98366C10.6132 4.45033 11.0466 4.45033 11.3132 4.98366L11.8049 5.96699C11.8716 6.10033 12.0466 6.23366 12.2049 6.25866L13.0966 6.40866C13.6549 6.50033 13.7882 6.90866 13.3799 7.31699Z" fill="white"/>
</svg>
