<svg width="30" height="30" viewBox="0 0 30 30" fill="none" xmlns="http://www.w3.org/2000/svg">
<rect x="0.5" y="0.5" width="29" height="29" rx="3.5" stroke="#E3E3E8"/>
<path d="M15.1199 14.1525C15.0449 14.145 14.9549 14.145 14.8724 14.1525C13.0874 14.0925 11.6699 12.63 11.6699 10.83C11.6699 8.9925 13.1549 7.5 14.9999 7.5C16.8374 7.5 18.3299 8.9925 18.3299 10.83C18.3224 12.63 16.9049 14.0925 15.1199 14.1525Z" stroke="black" stroke-width="1.125" stroke-linecap="round" stroke-linejoin="round"/>
<path d="M11.371 16.92C9.55602 18.135 9.55602 20.115 11.371 21.3225C13.4335 22.7025 16.816 22.7025 18.8785 21.3225C20.6935 20.1075 20.6935 18.1275 18.8785 16.92C16.8235 15.5475 13.441 15.5475 11.371 16.92Z" stroke="black" stroke-width="1.125" stroke-linecap="round" stroke-linejoin="round"/>
</svg>
