<svg width="24" height="24" viewBox="0 0 24 24" fill="none" xmlns="http://www.w3.org/2000/svg">
<path d="M19.8319 8.6998L15.3019 4.1698C14.3519 3.2198 13.0419 2.7098 11.7019 2.7798L6.70193 3.0198C4.70193 3.1098 3.11193 4.6998 3.01193 6.6898L2.77193 11.6898C2.71193 13.0298 3.21193 14.3398 4.16193 15.2898L8.69193 19.8198C10.5519 21.6798 13.5719 21.6798 15.4419 19.8198L19.8319 15.4298C21.7019 13.5798 21.7019 10.5598 19.8319 8.6998ZM9.50193 12.3798C7.92193 12.3798 6.62193 11.0898 6.62193 9.4998C6.62193 7.9098 7.92193 6.6198 9.50193 6.6198C11.0819 6.6198 12.3819 7.9098 12.3819 9.4998C12.3819 11.0898 11.0819 12.3798 9.50193 12.3798ZM17.5319 13.5298L13.5319 17.5298C13.3819 17.6798 13.1919 17.7498 13.0019 17.7498C12.8119 17.7498 12.6219 17.6798 12.4719 17.5298C12.1819 17.2398 12.1819 16.7598 12.4719 16.4698L16.4719 12.4698C16.7619 12.1798 17.2419 12.1798 17.5319 12.4698C17.8219 12.7598 17.8219 13.2398 17.5319 13.5298Z" fill="black"/>
</svg>
