<svg width="24" height="25" viewBox="0 0 24 25" fill="none" xmlns="http://www.w3.org/2000/svg">
<path d="M4.40476 15.6572L8.93476 20.1872C10.7948 22.0472 13.8148 22.0472 15.6848 20.1872L20.0748 15.7972C21.9348 13.9372 21.9348 10.9172 20.0748 9.04723L15.5348 4.52723C14.5848 3.57723 13.2748 3.06723 11.9348 3.13723L6.93476 3.37723C4.93476 3.46723 3.34476 5.05723 3.24476 7.04723L3.00476 12.0472C2.94476 13.3972 3.45476 14.7072 4.40476 15.6572Z" stroke="black" stroke-width="1.5" stroke-linecap="round" stroke-linejoin="round"/>
<path d="M9.73438 12.3574C11.1151 12.3574 12.2344 11.2381 12.2344 9.85742C12.2344 8.47671 11.1151 7.35742 9.73438 7.35742C8.35366 7.35742 7.23438 8.47671 7.23438 9.85742C7.23438 11.2381 8.35366 12.3574 9.73438 12.3574Z" stroke="black" stroke-width="1.5" stroke-linecap="round"/>
<path d="M13.2344 17.3574L17.2344 13.3574" stroke="black" stroke-width="1.5" stroke-miterlimit="10" stroke-linecap="round" stroke-linejoin="round"/>
</svg>
