<svg width="24" height="25" viewBox="0 0 24 25" fill="none" xmlns="http://www.w3.org/2000/svg">
<path d="M9.16055 11.0009C9.06055 10.9909 8.94055 10.9909 8.83055 11.0009C6.45055 10.9209 4.56055 8.97086 4.56055 6.57086C4.56055 4.12086 6.54055 2.13086 9.00055 2.13086C11.4505 2.13086 13.4405 4.12086 13.4405 6.57086C13.4305 8.97086 11.5405 10.9209 9.16055 11.0009Z" stroke="black" stroke-width="1.5" stroke-linecap="round" stroke-linejoin="round"/>
<path d="M16.4093 4.13086C18.3493 4.13086 19.9093 5.70086 19.9093 7.63086C19.9093 9.52086 18.4093 11.0609 16.5393 11.1309C16.4593 11.1209 16.3693 11.1209 16.2793 11.1309" stroke="black" stroke-width="1.5" stroke-linecap="round" stroke-linejoin="round"/>
<path d="M4.1607 14.6909C1.7407 16.3109 1.7407 18.9509 4.1607 20.5609C6.9107 22.4009 11.4207 22.4009 14.1707 20.5609C16.5907 18.9409 16.5907 16.3009 14.1707 14.6909C11.4307 12.8609 6.9207 12.8609 4.1607 14.6909Z" stroke="black" stroke-width="1.5" stroke-linecap="round" stroke-linejoin="round"/>
<path d="M18.3398 20.1309C19.0598 19.9809 19.7398 19.6909 20.2998 19.2609C21.8598 18.0909 21.8598 16.1609 20.2998 14.9909C19.7498 14.5709 19.0798 14.2909 18.3698 14.1309" stroke="black" stroke-width="1.5" stroke-linecap="round" stroke-linejoin="round"/>
</svg>
