<svg width="24" height="25" viewBox="0 0 24 25" fill="none" xmlns="http://www.w3.org/2000/svg">
<path d="M10.5 20.0309V4.23086C10.5 2.73086 9.86 2.13086 8.27 2.13086H4.23C2.64 2.13086 2 2.73086 2 4.23086V20.0309C2 21.5309 2.64 22.1309 4.23 22.1309H8.27C9.86 22.1309 10.5 21.5309 10.5 20.0309Z" stroke="black" stroke-width="1.5" stroke-linecap="round" stroke-linejoin="round"/>
<path d="M22 8.65086V4.11086C22 2.70086 21.36 2.13086 19.77 2.13086H15.73C14.14 2.13086 13.5 2.70086 13.5 4.11086V8.64086C13.5 10.0609 14.14 10.6209 15.73 10.6209H19.77C21.36 10.6309 22 10.0609 22 8.65086Z" stroke="black" stroke-width="1.5" stroke-linecap="round" stroke-linejoin="round"/>
<path d="M22 19.9009V15.8609C22 14.2709 21.36 13.6309 19.77 13.6309H15.73C14.14 13.6309 13.5 14.2709 13.5 15.8609V19.9009C13.5 21.4909 14.14 22.1309 15.73 22.1309H19.77C21.36 22.1309 22 21.4909 22 19.9009Z" stroke="black" stroke-width="1.5" stroke-linecap="round" stroke-linejoin="round"/>
</svg>
