<svg width="24" height="25" viewBox="0 0 24 25" fill="none" xmlns="http://www.w3.org/2000/svg">
<path d="M11 20.6271V4.82705C11 3.32705 10.36 2.72705 8.77 2.72705H4.73C3.14 2.72705 2.5 3.32705 2.5 4.82705V20.6271C2.5 22.1271 3.14 22.7271 4.73 22.7271H8.77C10.36 22.7271 11 22.1271 11 20.6271Z" fill="black"/>
<path d="M21.5 20.3671V16.0871C21.5 14.7871 20.5 13.7271 19.27 13.7271H15.23C14 13.7271 13 14.7871 13 16.0871V20.3671C13 21.6671 14 22.7271 15.23 22.7271H19.27C20.5 22.7271 21.5 21.6671 21.5 20.3671Z" fill="black"/>
<path d="M21.5 9.36705V5.08705C21.5 3.78705 20.5 2.72705 19.27 2.72705H15.23C14 2.72705 13 3.78705 13 5.08705V9.36705C13 10.6671 14 11.7271 15.23 11.7271H19.27C20.5 11.7271 21.5 10.6671 21.5 9.36705Z" fill="black"/>
</svg>
