<svg width="24" height="25" viewBox="0 0 24 25" fill="none" xmlns="http://www.w3.org/2000/svg">
<path d="M3.00977 11.3516V15.8416C3.00977 20.3316 4.80977 22.1316 9.29977 22.1316H14.6898C19.1798 22.1316 20.9798 20.3316 20.9798 15.8416V11.3516" stroke="black" stroke-width="1.5" stroke-linecap="round" stroke-linejoin="round"/>
<path d="M12.0005 12.1309C13.8305 12.1309 15.1805 10.6409 15.0005 8.81086L14.3405 2.13086H9.67048L9.00048 8.81086C8.82048 10.6409 10.1705 12.1309 12.0005 12.1309Z" stroke="black" stroke-width="1.5" stroke-linecap="round" stroke-linejoin="round"/>
<path d="M18.3108 12.1309C20.3308 12.1309 21.8108 10.4909 21.6108 8.48086L21.3308 5.73086C20.9708 3.13086 19.9708 2.13086 17.3508 2.13086H14.3008L15.0008 9.14086C15.1708 10.7909 16.6608 12.1309 18.3108 12.1309Z" stroke="black" stroke-width="1.5" stroke-linecap="round" stroke-linejoin="round"/>
<path d="M5.64037 12.1309C7.29037 12.1309 8.78037 10.7909 8.94037 9.14086L9.16037 6.93086L9.64037 2.13086H6.59037C3.97037 2.13086 2.97037 3.13086 2.61037 5.73086L2.34037 8.48086C2.14037 10.4909 3.62037 12.1309 5.64037 12.1309Z" stroke="black" stroke-width="1.5" stroke-linecap="round" stroke-linejoin="round"/>
<path d="M12 17.1309C10.33 17.1309 9.5 17.9609 9.5 19.6309V22.1309H14.5V19.6309C14.5 17.9609 13.67 17.1309 12 17.1309Z" stroke="black" stroke-width="1.5" stroke-linecap="round" stroke-linejoin="round"/>
</svg>
