<svg width="24" height="24" viewBox="0 0 24 24" fill="none" xmlns="http://www.w3.org/2000/svg">
<path d="M15.4485 19.7909C15.4485 19.7909 15.4485 11.0556 22 11.0556C15.4485 11.0556 15.4485 2.32031 15.4485 2.32031C15.4485 2.32031 15.4485 11.0556 8.89703 11.0556C15.4485 11.0556 15.4485 19.7909 15.4485 19.7909Z" fill="black"/>
<path d="M5.55615 13.823C5.55615 13.823 5.55615 8.88563 9.11232 8.88563C5.55615 8.88563 5.55615 3.94824 5.55615 3.94824C5.55615 3.94824 5.55615 8.88563 1.99997 8.88563C5.55615 8.88563 5.55615 13.823 5.55615 13.823Z" fill="black"/>
<path d="M8.89713 21.6815C8.89713 21.6815 8.89713 16.9721 13.1212 16.9721C8.89713 16.9721 8.89713 12.2627 8.89713 12.2627C8.89713 12.2627 8.89713 16.9721 4.673 16.9721C8.89713 16.9721 8.89713 21.6815 8.89713 21.6815Z" fill="black"/>
</svg>
