<svg width="24" height="25" viewBox="0 0 24 25" fill="none" xmlns="http://www.w3.org/2000/svg">
<path d="M15.4479 19.9217C15.4479 19.9217 15.4479 11.1865 21.9994 11.1865C15.4479 11.1865 15.4479 2.45117 15.4479 2.45117C15.4479 2.45117 15.4479 11.1865 8.89648 11.1865C15.4479 11.1865 15.4479 19.9217 15.4479 19.9217Z" stroke="black" stroke-width="1.2"/>
<path d="M5.55618 13.9549C5.55618 13.9549 5.55618 9.01747 9.11235 9.01747C5.55618 9.01747 5.55618 4.08008 5.55618 4.08008C5.55618 4.08008 5.55618 9.01747 2 9.01747C5.55618 9.01747 5.55618 13.9549 5.55618 13.9549Z" stroke="black" stroke-width="1.2"/>
<path d="M8.89795 21.8134C8.89795 21.8134 8.89795 17.1039 13.1221 17.1039C8.89795 17.1039 8.89795 12.3945 8.89795 12.3945C8.89795 12.3945 8.89795 17.1039 4.67383 17.1039C8.89795 17.1039 8.89795 21.8134 8.89795 21.8134Z" stroke="black" stroke-width="1.2"/>
</svg>
