<svg width="24" height="25" viewBox="0 0 24 25" fill="none" xmlns="http://www.w3.org/2000/svg">
<path d="M9 2.13086H15C20 2.13086 22 4.13086 22 9.13086V15.1309C22 20.1309 20 22.1309 15 22.1309H9C4 22.1309 2 20.1309 2 15.1309V9.13086C2 4.13086 4 2.13086 9 2.13086Z" stroke="black" stroke-width="1.5" stroke-linecap="round" stroke-linejoin="round"/>
<path d="M8.57031 15.4013L15.1103 8.86133" stroke="black" stroke-width="1.5" stroke-linecap="round" stroke-linejoin="round"/>
<path d="M8.98001 10.501C9.65932 10.501 10.21 9.95034 10.21 9.27103C10.21 8.59172 9.65932 8.04102 8.98001 8.04102C8.3007 8.04102 7.75 8.59172 7.75 9.27103C7.75 9.95034 8.3007 10.501 8.98001 10.501Z" stroke="black" stroke-width="1.5" stroke-linecap="round" stroke-linejoin="round"/>
<path d="M15.519 16.2217C16.1984 16.2217 16.7491 15.671 16.7491 14.9917C16.7491 14.3124 16.1984 13.7617 15.519 13.7617C14.8397 13.7617 14.2891 14.3124 14.2891 14.9917C14.2891 15.671 14.8397 16.2217 15.519 16.2217Z" stroke="black" stroke-width="1.5" stroke-linecap="round" stroke-linejoin="round"/>
</svg>
