<svg width="24" height="25" viewBox="0 0 24 25" fill="none" xmlns="http://www.w3.org/2000/svg">
<path d="M9 22.1309H15C20 22.1309 22 20.1309 22 15.1309V9.13086C22 4.13086 20 2.13086 15 2.13086H9C4 2.13086 2 4.13086 2 9.13086V15.1309C2 20.1309 4 22.1309 9 22.1309Z" stroke="black" stroke-width="1.5" stroke-linecap="round" stroke-linejoin="round"/>
<path d="M15.5703 18.6305V14.7305" stroke="black" stroke-width="1.5" stroke-miterlimit="10" stroke-linecap="round" stroke-linejoin="round"/>
<path d="M15.5703 7.58086V5.63086" stroke="black" stroke-width="1.5" stroke-miterlimit="10" stroke-linecap="round" stroke-linejoin="round"/>
<path d="M15.5707 12.7801C17.0066 12.7801 18.1707 11.616 18.1707 10.1801C18.1707 8.74414 17.0066 7.58008 15.5707 7.58008C14.1348 7.58008 12.9707 8.74414 12.9707 10.1801C12.9707 11.616 14.1348 12.7801 15.5707 12.7801Z" stroke="black" stroke-width="1.5" stroke-miterlimit="10" stroke-linecap="round" stroke-linejoin="round"/>
<path d="M8.42969 18.6316V16.6816" stroke="black" stroke-width="1.5" stroke-miterlimit="10" stroke-linecap="round" stroke-linejoin="round"/>
<path d="M8.42969 9.53086V5.63086" stroke="black" stroke-width="1.5" stroke-miterlimit="10" stroke-linecap="round" stroke-linejoin="round"/>
<path d="M8.43008 16.6805C9.86602 16.6805 11.0301 15.5164 11.0301 14.0805C11.0301 12.6445 9.86602 11.4805 8.43008 11.4805C6.99414 11.4805 5.83008 12.6445 5.83008 14.0805C5.83008 15.5164 6.99414 16.6805 8.43008 16.6805Z" stroke="black" stroke-width="1.5" stroke-miterlimit="10" stroke-linecap="round" stroke-linejoin="round"/>
</svg>
