<svg width="24" height="25" viewBox="0 0 24 25" fill="none" xmlns="http://www.w3.org/2000/svg">
<path d="M20.1 9.59884C18.29 9.59884 17.55 8.31884 18.45 6.74884C18.97 5.83884 18.66 4.67884 17.75 4.15884L16.02 3.16884C15.23 2.69884 14.21 2.97884 13.74 3.76884L13.63 3.95884C12.73 5.52884 11.25 5.52884 10.34 3.95884L10.23 3.76884C9.78 2.97884 8.76 2.69884 7.97 3.16884L6.24 4.15884C5.33 4.67884 5.02 5.84884 5.54 6.75884C6.45 8.31884 5.71 9.59884 3.9 9.59884C2.86 9.59884 2 10.4488 2 11.4988V13.2588C2 14.2988 2.85 15.1588 3.9 15.1588C5.71 15.1588 6.45 16.4388 5.54 18.0088C5.02 18.9188 5.33 20.0788 6.24 20.5988L7.97 21.5888C8.76 22.0588 9.78 21.7788 10.25 20.9888L10.36 20.7988C11.26 19.2288 12.74 19.2288 13.65 20.7988L13.76 20.9888C14.23 21.7788 15.25 22.0588 16.04 21.5888L17.77 20.5988C18.68 20.0788 18.99 18.9088 18.47 18.0088C17.56 16.4388 18.3 15.1588 20.11 15.1588C21.15 15.1588 22.01 14.3088 22.01 13.2588V11.4988C22 10.4588 21.15 9.59884 20.1 9.59884ZM12 15.6288C10.21 15.6288 8.75 14.1688 8.75 12.3788C8.75 10.5888 10.21 9.12884 12 9.12884C13.79 9.12884 15.25 10.5888 15.25 12.3788C15.25 14.1688 13.79 15.6288 12 15.6288Z" fill="black"/>
</svg>
