<svg width="24" height="25" viewBox="0 0 24 25" fill="none" xmlns="http://www.w3.org/2000/svg">
<path d="M3.16992 7.57031L11.9999 12.6803L20.7699 7.60028" stroke="black" stroke-width="1.5" stroke-linecap="round" stroke-linejoin="round"/>
<path d="M12 21.7399V12.6699" stroke="black" stroke-width="1.5" stroke-linecap="round" stroke-linejoin="round"/>
<path d="M9.9306 2.61086L4.59061 5.58089C3.38061 6.25089 2.39062 7.93087 2.39062 9.31087V14.9609C2.39062 16.3409 3.38061 18.0209 4.59061 18.6909L9.9306 21.6609C11.0706 22.2909 12.9406 22.2909 14.0806 21.6609L19.4206 18.6909C20.6306 18.0209 21.6206 16.3409 21.6206 14.9609V9.31087C21.6206 7.93087 20.6306 6.25089 19.4206 5.58089L14.0806 2.61086C12.9306 1.97086 11.0706 1.97086 9.9306 2.61086Z" stroke="black" stroke-width="1.5" stroke-linecap="round" stroke-linejoin="round"/>
<path d="M16.9998 13.3705V9.71051L7.50977 4.23047" stroke="black" stroke-width="1.5" stroke-linecap="round" stroke-linejoin="round"/>
</svg>
